/**
 *
 *   VS1053 MIDI file player
 *
 *   The MIDI file must be in format 0. If your midi file is in format 1 or 2 then
 *   use the GNMIDI converter for windows to convert your file into midi format 0.
 *   ( www.gnmidi.com/gn1to0.zip )
 *   
 *   Then, by using the Notepad++ you can extract the *.mid file into C table and  
 *   paste the code into this example.
 *   
 *   The demo midi song is from the classic arcade game "Bubble Bobble".
 *
 *   (c) 28 Aug 2015 by Vassilis Serasidis
 *   Home: http://www.serasidis.gr
 *   email: avrsite@yahoo.gr
 *
 *
 */

#include <VS1003_STM.h>
#include <SPI.h>

/*
 * VS1003 development board connected by it's header pins the following way:
 *
 * GND  - GND  -
 * XDCS - D6   - PB10
 * DREQ - D7   - PA8
 * XRES - D8   - PA9
 * XCS  - D9   - PC14
 * SCLK - D13  - PA5
 * SI   - D11  - PA7
 * SO   - D12  - PA6
 * GND  - GND  -
 * 5V   - 5V   -
 */

static const unsigned char Bubble_Bobble_MIDI[] = {
  0x4D, 0x54, 0x68, 0x64, 0x00, 0x00, 0x00, 0x06, 0x00, 0x00, 0x00, 0x01,
  0x01, 0x80, 0x4D, 0x54, 0x72, 0x6B, 0x00, 0x00, 0x40, 0x5F, 0x00, 0xFF,
  0x7F, 0x07, 0x05, 0x0F, 0x12, 0x03, 0x03, 0x00, 0x7F, 0x00, 0xFF, 0x58,
  0x04, 0x04, 0x02, 0x60, 0x08, 0x00, 0xFF, 0x7F, 0x03, 0x00, 0x00, 0x41,
  0x00, 0xFF, 0x51, 0x03, 0x06, 0x8A, 0x1B, 0x00, 0xFF, 0x7F, 0x05, 0x05,
  0x0F, 0x09, 0x00, 0x08, 0x00, 0xFF, 0x7F, 0x0F, 0x05, 0x0F, 0x06, 0x47,
  0x65, 0x6E, 0x65, 0x72, 0x61, 0x6C, 0x20, 0x4D, 0x49, 0x44, 0x49, 0x00,
  0xB1, 0x00, 0x00, 0x00, 0xC1, 0x0B, 0x00, 0xB1, 0x0A, 0x3F, 0x00, 0x07,
  0x7F, 0x00, 0xFF, 0x7F, 0x0F, 0x05, 0x0F, 0x06, 0x47, 0x65, 0x6E, 0x65,
  0x72, 0x61, 0x6C, 0x20, 0x4D, 0x49, 0x44, 0x49, 0x00, 0xB2, 0x00, 0x00,
  0x00, 0xC2, 0x27, 0x00, 0xB2, 0x0A, 0x3F, 0x00, 0x07, 0x7F, 0x00, 0x92,
  0x22, 0x64, 0x00, 0xFF, 0x7F, 0x0F, 0x05, 0x0F, 0x06, 0x47, 0x65, 0x6E,
  0x65, 0x72, 0x61, 0x6C, 0x20, 0x4D, 0x49, 0x44, 0x49, 0x00, 0xB3, 0x00,
  0x00, 0x00, 0xC3, 0x30, 0x00, 0xB3, 0x0A, 0x3F, 0x00, 0xFF, 0x7F, 0x0F,
  0x05, 0x0F, 0x06, 0x47, 0x65, 0x6E, 0x65, 0x72, 0x61, 0x6C, 0x20, 0x4D,
  0x49, 0x44, 0x49, 0x00, 0xB1, 0x00, 0x00, 0x00, 0xC1, 0x0B, 0x00, 0xB1,
  0x0A, 0x3F, 0x00, 0xFF, 0x7F, 0x0F, 0x05, 0x0F, 0x06, 0x47, 0x65, 0x6E,
  0x65, 0x72, 0x61, 0x6C, 0x20, 0x4D, 0x49, 0x44, 0x49, 0x00, 0xB4, 0x00,
  0x00, 0x00, 0xC4, 0x30, 0x00, 0xB4, 0x0A, 0x3F, 0x00, 0xFF, 0x59, 0x02,
  0x00, 0x00, 0x00, 0xFF, 0x7F, 0x0F, 0x05, 0x0F, 0x06, 0x47, 0x65, 0x6E,
  0x65, 0x72, 0x61, 0x6C, 0x20, 0x4D, 0x49, 0x44, 0x49, 0x00, 0xFF, 0x59,
  0x02, 0x00, 0x00, 0x00, 0xFF, 0x7F, 0x0F, 0x05, 0x0F, 0x06, 0x47, 0x65,
  0x6E, 0x65, 0x72, 0x61, 0x6C, 0x20, 0x4D, 0x49, 0x44, 0x49, 0x00, 0xFF,
  0x7F, 0x0F, 0x05, 0x0F, 0x06, 0x47, 0x65, 0x6E, 0x65, 0x72, 0x61, 0x6C,
  0x20, 0x4D, 0x49, 0x44, 0x49, 0x00, 0xFF, 0x7F, 0x7D, 0x05, 0x0F, 0x02,
  0x00, 0x77, 0x00, 0x01, 0x02, 0x03, 0x04, 0x05, 0x06, 0x07, 0x08, 0x09,
  0x0A, 0x0B, 0x0C, 0x0D, 0x0E, 0x0F, 0x10, 0x11, 0x12, 0x13, 0x14, 0x15,
  0x16, 0x17, 0x18, 0x19, 0x1A, 0x1B, 0x1C, 0x1D, 0x1E, 0x1F, 0x20, 0x21,
  0x22, 0x23, 0x24, 0x25, 0x26, 0x27, 0x28, 0x29, 0x2A, 0x2B, 0x2C, 0x2D,
  0x2E, 0x2F, 0x30, 0x31, 0x32, 0x33, 0x34, 0x35, 0x36, 0x37, 0x38, 0x39,
  0x3A, 0x3B, 0x3C, 0x3D, 0x3E, 0x3F, 0x40, 0x41, 0x42, 0x43, 0x44, 0x45,
  0x46, 0x47, 0x48, 0x49, 0x4A, 0x4B, 0x4C, 0x4D, 0x4E, 0x4F, 0x50, 0x51,
  0x52, 0x53, 0x54, 0x55, 0x56, 0x57, 0x58, 0x59, 0x5A, 0x5B, 0x5C, 0x5D,
  0x5E, 0x5F, 0x60, 0x61, 0x62, 0x63, 0x64, 0x65, 0x66, 0x67, 0x68, 0x69,
  0x6A, 0x6B, 0x6C, 0x6D, 0x6E, 0x6F, 0x70, 0x71, 0x72, 0x73, 0x74, 0x75,
  0x76, 0x77, 0x00, 0xFF, 0x7F, 0x04, 0x05, 0x0F, 0x03, 0x01, 0x00, 0xFF,
  0x20, 0x01, 0x09, 0x00, 0x99, 0x23, 0x7F, 0x00, 0xFF, 0x7F, 0x05, 0x05,
  0x0F, 0x01, 0x01, 0x1F, 0x30, 0x89, 0x23, 0x40, 0x81, 0x10, 0x82, 0x22,
  0x00, 0x00, 0x92, 0x2E, 0x64, 0x00, 0x99, 0x2E, 0x7F, 0x30, 0x89, 0x2E,
  0x40, 0x81, 0x10, 0x82, 0x2E, 0x00, 0x00, 0x92, 0x22, 0x64, 0x00, 0x99,
  0x23, 0x7F, 0x00, 0x2A, 0x7F, 0x00, 0x27, 0x7F, 0x30, 0x89, 0x27, 0x40,
  0x00, 0x2A, 0x40, 0x00, 0x23, 0x40, 0x81, 0x10, 0x82, 0x22, 0x00, 0x00,
  0x92, 0x2E, 0x64, 0x00, 0x99, 0x2E, 0x7F, 0x30, 0x89, 0x2E, 0x40, 0x81,
  0x10, 0x82, 0x2E, 0x00, 0x00, 0x92, 0x22, 0x64, 0x00, 0x99, 0x23, 0x7F,
  0x00, 0x2A, 0x7F, 0x30, 0x89, 0x2A, 0x40, 0x00, 0x23, 0x40, 0x81, 0x10,
  0x82, 0x22, 0x00, 0x00, 0x92, 0x2E, 0x64, 0x00, 0x99, 0x2E, 0x7F, 0x30,
  0x89, 0x2E, 0x40, 0x60, 0x99, 0x2E, 0x7F, 0x30, 0x92, 0x2E, 0x00, 0x00,
  0x22, 0x64, 0x00, 0x89, 0x2E, 0x40, 0x00, 0x99, 0x23, 0x7F, 0x00, 0x2A,
  0x7F, 0x00, 0x27, 0x7F, 0x30, 0x89, 0x27, 0x40, 0x00, 0x2A, 0x40, 0x00,
  0x23, 0x40, 0x30, 0x99, 0x2A, 0x7F, 0x30, 0x89, 0x2A, 0x40, 0x30, 0x82,
  0x22, 0x00, 0x00, 0x92, 0x2E, 0x64, 0x00, 0x99, 0x2E, 0x7F, 0x30, 0x89,
  0x2E, 0x40, 0x81, 0x10, 0x82, 0x2E, 0x00, 0x00, 0x92, 0x22, 0x64, 0x00,
  0x99, 0x23, 0x7F, 0x30, 0x89, 0x23, 0x40, 0x81, 0x10, 0x82, 0x22, 0x00,
  0x00, 0x92, 0x2E, 0x64, 0x00, 0x99, 0x2E, 0x7F, 0x30, 0x89, 0x2E, 0x40,
  0x81, 0x10, 0x82, 0x2E, 0x00, 0x00, 0x92, 0x22, 0x64, 0x00, 0x99, 0x23,
  0x7F, 0x00, 0x2A, 0x7F, 0x00, 0x27, 0x7F, 0x30, 0x89, 0x27, 0x40, 0x00,
  0x2A, 0x40, 0x00, 0x23, 0x40, 0x81, 0x10, 0x82, 0x22, 0x00, 0x00, 0x92,
  0x2E, 0x64, 0x00, 0x99, 0x2E, 0x7F, 0x30, 0x89, 0x2E, 0x40, 0x81, 0x10,
  0x82, 0x2E, 0x00, 0x00, 0x92, 0x22, 0x64, 0x00, 0x99, 0x23, 0x7F, 0x00,
  0x2A, 0x7F, 0x30, 0x89, 0x2A, 0x40, 0x00, 0x23, 0x40, 0x81, 0x10, 0x82,
  0x22, 0x00, 0x00, 0x92, 0x2E, 0x64, 0x00, 0x99, 0x2E, 0x7F, 0x30, 0x89,
  0x2E, 0x40, 0x60, 0x99, 0x2E, 0x7F, 0x30, 0x92, 0x2E, 0x00, 0x00, 0x22,
  0x64, 0x00, 0x89, 0x2E, 0x40, 0x00, 0x99, 0x23, 0x7F, 0x00, 0x2A, 0x7F,
  0x00, 0x27, 0x7F, 0x30, 0x89, 0x27, 0x40, 0x00, 0x2A, 0x40, 0x00, 0x23,
  0x40, 0x30, 0x99, 0x2A, 0x7F, 0x30, 0x89, 0x2A, 0x40, 0x30, 0x82, 0x22,
  0x00, 0x00, 0x92, 0x2E, 0x64, 0x00, 0x99, 0x2E, 0x7F, 0x30, 0x89, 0x2E,
  0x40, 0x81, 0x10, 0x82, 0x2E, 0x00, 0x00, 0x92, 0x1F, 0x64, 0x00, 0x99,
  0x23, 0x7F, 0x30, 0x89, 0x23, 0x40, 0x81, 0x10, 0x82, 0x1F, 0x00, 0x00,
  0x92, 0x2B, 0x64, 0x00, 0x99, 0x2E, 0x7F, 0x30, 0x89, 0x2E, 0x40, 0x81,
  0x10, 0x82, 0x2B, 0x00, 0x00, 0x92, 0x1F, 0x64, 0x00, 0x99, 0x23, 0x7F,
  0x00, 0x2A, 0x7F, 0x00, 0x27, 0x7F, 0x30, 0x89, 0x27, 0x40, 0x00, 0x2A,
  0x40, 0x00, 0x23, 0x40, 0x81, 0x10, 0x82, 0x1F, 0x00, 0x00, 0x92, 0x2B,
  0x64, 0x00, 0x99, 0x2E, 0x7F, 0x30, 0x89, 0x2E, 0x40, 0x81, 0x10, 0x82,
  0x2B, 0x00, 0x00, 0x92, 0x1F, 0x64, 0x00, 0x99, 0x23, 0x7F, 0x00, 0x2A,
  0x7F, 0x30, 0x89, 0x2A, 0x40, 0x00, 0x23, 0x40, 0x81, 0x10, 0x82, 0x1F,
  0x00, 0x00, 0x92, 0x2B, 0x64, 0x00, 0x99, 0x2E, 0x7F, 0x30, 0x89, 0x2E,
  0x40, 0x60, 0x99, 0x2E, 0x7F, 0x30, 0x92, 0x2B, 0x00, 0x00, 0x1F, 0x64,
  0x00, 0x89, 0x2E, 0x40, 0x00, 0x99, 0x23, 0x7F, 0x00, 0x2A, 0x7F, 0x00,
  0x27, 0x7F, 0x30, 0x89, 0x27, 0x40, 0x00, 0x2A, 0x40, 0x00, 0x23, 0x40,
  0x30, 0x99, 0x2A, 0x7F, 0x30, 0x89, 0x2A, 0x40, 0x30, 0x82, 0x1F, 0x00,
  0x00, 0x92, 0x2B, 0x64, 0x00, 0x99, 0x2E, 0x7F, 0x30, 0x89, 0x2E, 0x40,
  0x81, 0x10, 0x82, 0x2B, 0x00, 0x00, 0x92, 0x1F, 0x64, 0x00, 0x99, 0x23,
  0x7F, 0x30, 0x89, 0x23, 0x40, 0x81, 0x10, 0x82, 0x1F, 0x00, 0x00, 0x92,
  0x2B, 0x64, 0x00, 0x99, 0x2E, 0x7F, 0x30, 0x89, 0x2E, 0x40, 0x81, 0x10,
  0x82, 0x2B, 0x00, 0x00, 0x92, 0x1F, 0x64, 0x00, 0x99, 0x23, 0x7F, 0x00,
  0x2A, 0x7F, 0x00, 0x27, 0x7F, 0x30, 0x89, 0x27, 0x40, 0x00, 0x2A, 0x40,
  0x00, 0x23, 0x40, 0x81, 0x10, 0x82, 0x1F, 0x00, 0x00, 0x92, 0x2B, 0x64,
  0x00, 0x99, 0x2E, 0x7F, 0x30, 0x89, 0x2E, 0x40, 0x81, 0x10, 0x82, 0x2B,
  0x00, 0x00, 0x92, 0x1F, 0x64, 0x00, 0x99, 0x23, 0x7F, 0x00, 0x2A, 0x7F,
  0x30, 0x89, 0x2A, 0x40, 0x00, 0x23, 0x40, 0x81, 0x10, 0x82, 0x1F, 0x00,
  0x00, 0x92, 0x2B, 0x64, 0x00, 0x99, 0x2E, 0x7F, 0x30, 0x89, 0x2E, 0x40,
  0x60, 0x99, 0x2E, 0x7F, 0x30, 0x92, 0x2B, 0x00, 0x00, 0x1F, 0x64, 0x00,
  0x89, 0x2E, 0x40, 0x00, 0x99, 0x23, 0x7F, 0x00, 0x2A, 0x7F, 0x00, 0x27,
  0x7F, 0x30, 0x89, 0x27, 0x40, 0x00, 0x2A, 0x40, 0x00, 0x23, 0x40, 0x30,
  0x99, 0x2A, 0x7F, 0x30, 0x89, 0x2A, 0x40, 0x30, 0x82, 0x1F, 0x00, 0x00,
  0x92, 0x2B, 0x64, 0x00, 0x99, 0x2E, 0x7F, 0x30, 0x89, 0x2E, 0x40, 0x81,
  0x10, 0x82, 0x2B, 0x00, 0x00, 0x92, 0x22, 0x64, 0x00, 0x99, 0x23, 0x7F,
  0x30, 0x89, 0x23, 0x40, 0x81, 0x10, 0x82, 0x22, 0x00, 0x00, 0x92, 0x2E,
  0x64, 0x00, 0x99, 0x2E, 0x7F, 0x30, 0x89, 0x2E, 0x40, 0x81, 0x10, 0x82,
  0x2E, 0x00, 0x00, 0x92, 0x22, 0x64, 0x00, 0x99, 0x23, 0x7F, 0x00, 0x2A,
  0x7F, 0x00, 0x27, 0x7F, 0x30, 0x89, 0x27, 0x40, 0x00, 0x2A, 0x40, 0x00,
  0x23, 0x40, 0x81, 0x10, 0x82, 0x22, 0x00, 0x00, 0x92, 0x2E, 0x64, 0x00,
  0x99, 0x2E, 0x7F, 0x30, 0x89, 0x2E, 0x40, 0x81, 0x10, 0x82, 0x2E, 0x00,
  0x00, 0x92, 0x22, 0x64, 0x00, 0x99, 0x23, 0x7F, 0x00, 0x2A, 0x7F, 0x30,
  0x89, 0x2A, 0x40, 0x00, 0x23, 0x40, 0x81, 0x10, 0x82, 0x22, 0x00, 0x00,
  0x92, 0x2E, 0x64, 0x00, 0x99, 0x2E, 0x7F, 0x30, 0x89, 0x2E, 0x40, 0x60,
  0x99, 0x2E, 0x7F, 0x30, 0x92, 0x2E, 0x00, 0x00, 0x22, 0x64, 0x00, 0x89,
  0x2E, 0x40, 0x00, 0x99, 0x23, 0x7F, 0x00, 0x2A, 0x7F, 0x00, 0x27, 0x7F,
  0x30, 0x89, 0x27, 0x40, 0x00, 0x2A, 0x40, 0x00, 0x23, 0x40, 0x30, 0x99,
  0x2A, 0x7F, 0x30, 0x89, 0x2A, 0x40, 0x30, 0x82, 0x22, 0x00, 0x00, 0x92,
  0x2E, 0x64, 0x00, 0x99, 0x2E, 0x7F, 0x30, 0x89, 0x2E, 0x40, 0x81, 0x10,
  0x82, 0x2E, 0x00, 0x00, 0x92, 0x22, 0x64, 0x00, 0x99, 0x23, 0x7F, 0x30,
  0x89, 0x23, 0x40, 0x81, 0x10, 0x82, 0x22, 0x00, 0x00, 0x92, 0x2E, 0x64,
  0x00, 0x99, 0x2E, 0x7F, 0x30, 0x89, 0x2E, 0x40, 0x81, 0x10, 0x82, 0x2E,
  0x00, 0x00, 0x92, 0x22, 0x64, 0x00, 0x99, 0x23, 0x7F, 0x00, 0x2A, 0x7F,
  0x00, 0x27, 0x7F, 0x30, 0x89, 0x27, 0x40, 0x00, 0x2A, 0x40, 0x00, 0x23,
  0x40, 0x81, 0x10, 0x82, 0x22, 0x00, 0x00, 0x92, 0x2E, 0x64, 0x00, 0x99,
  0x2E, 0x7F, 0x30, 0x89, 0x2E, 0x40, 0x81, 0x10, 0x82, 0x2E, 0x00, 0x00,
  0x92, 0x22, 0x64, 0x00, 0x99, 0x23, 0x7F, 0x00, 0x2A, 0x7F, 0x30, 0x89,
  0x2A, 0x40, 0x00, 0x23, 0x40, 0x81, 0x10, 0x82, 0x22, 0x00, 0x00, 0x92,
  0x2E, 0x64, 0x00, 0x99, 0x2E, 0x7F, 0x30, 0x89, 0x2E, 0x40, 0x60, 0x99,
  0x2E, 0x7F, 0x30, 0x92, 0x2E, 0x00, 0x00, 0x22, 0x64, 0x00, 0x89, 0x2E,
  0x40, 0x00, 0x99, 0x23, 0x7F, 0x00, 0x2A, 0x7F, 0x00, 0x27, 0x7F, 0x30,
  0x89, 0x27, 0x40, 0x00, 0x2A, 0x40, 0x00, 0x23, 0x40, 0x30, 0x99, 0x2A,
  0x7F, 0x30, 0x89, 0x2A, 0x40, 0x30, 0x82, 0x22, 0x00, 0x00, 0x92, 0x2E,
  0x64, 0x00, 0x99, 0x2E, 0x7F, 0x30, 0x89, 0x2E, 0x40, 0x81, 0x10, 0x82,
  0x2E, 0x00, 0x00, 0x92, 0x1F, 0x64, 0x00, 0x99, 0x23, 0x7F, 0x30, 0x89,
  0x23, 0x40, 0x81, 0x10, 0x82, 0x1F, 0x00, 0x00, 0x92, 0x2B, 0x64, 0x00,
  0x99, 0x2E, 0x7F, 0x30, 0x89, 0x2E, 0x40, 0x81, 0x10, 0x82, 0x2B, 0x00,
  0x00, 0x92, 0x1F, 0x64, 0x00, 0x99, 0x23, 0x7F, 0x00, 0x2A, 0x7F, 0x00,
  0x27, 0x7F, 0x30, 0x89, 0x27, 0x40, 0x00, 0x2A, 0x40, 0x00, 0x23, 0x40,
  0x81, 0x10, 0x82, 0x1F, 0x00, 0x00, 0x92, 0x2B, 0x64, 0x00, 0x99, 0x2E,
  0x7F, 0x30, 0x89, 0x2E, 0x40, 0x81, 0x10, 0x82, 0x2B, 0x00, 0x00, 0x92,
  0x1F, 0x64, 0x00, 0x99, 0x23, 0x7F, 0x00, 0x2A, 0x7F, 0x30, 0x89, 0x2A,
  0x40, 0x00, 0x23, 0x40, 0x81, 0x10, 0x82, 0x1F, 0x00, 0x00, 0x92, 0x2B,
  0x64, 0x00, 0x99, 0x2E, 0x7F, 0x30, 0x89, 0x2E, 0x40, 0x60, 0x99, 0x2E,
  0x7F, 0x30, 0x92, 0x2B, 0x00, 0x00, 0x1F, 0x64, 0x00, 0x89, 0x2E, 0x40,
  0x00, 0x99, 0x23, 0x7F, 0x00, 0x2A, 0x7F, 0x00, 0x27, 0x7F, 0x30, 0x89,
  0x27, 0x40, 0x00, 0x2A, 0x40, 0x00, 0x23, 0x40, 0x30, 0x99, 0x2A, 0x7F,
  0x30, 0x89, 0x2A, 0x40, 0x30, 0x82, 0x1F, 0x00, 0x00, 0x92, 0x2B, 0x64,
  0x00, 0x99, 0x2E, 0x7F, 0x30, 0x89, 0x2E, 0x40, 0x81, 0x10, 0x82, 0x2B,
  0x00, 0x00, 0x92, 0x1F, 0x64, 0x00, 0x99, 0x23, 0x7F, 0x30, 0x89, 0x23,
  0x40, 0x81, 0x10, 0x82, 0x1F, 0x00, 0x00, 0x92, 0x2B, 0x64, 0x00, 0x99,
  0x2E, 0x7F, 0x30, 0x89, 0x2E, 0x40, 0x81, 0x10, 0x82, 0x2B, 0x00, 0x00,
  0x92, 0x1F, 0x64, 0x00, 0x99, 0x23, 0x7F, 0x00, 0x2A, 0x7F, 0x00, 0x27,
  0x7F, 0x30, 0x89, 0x27, 0x40, 0x00, 0x2A, 0x40, 0x00, 0x23, 0x40, 0x81,
  0x10, 0x82, 0x1F, 0x00, 0x00, 0x92, 0x2B, 0x64, 0x00, 0x99, 0x2E, 0x7F,
  0x30, 0x89, 0x2E, 0x40, 0x81, 0x10, 0x82, 0x2B, 0x00, 0x00, 0x92, 0x22,
  0x64, 0x00, 0x99, 0x23, 0x7F, 0x00, 0x2A, 0x7F, 0x30, 0x89, 0x2A, 0x40,
  0x00, 0x23, 0x40, 0x81, 0x10, 0x82, 0x22, 0x00, 0x00, 0x92, 0x1D, 0x64,
  0x00, 0x99, 0x2E, 0x7F, 0x30, 0x89, 0x2E, 0x40, 0x60, 0x99, 0x2E, 0x7F,
  0x30, 0x92, 0x1D, 0x00, 0x00, 0x1F, 0x64, 0x00, 0x89, 0x2E, 0x40, 0x00,
  0x99, 0x23, 0x7F, 0x00, 0x2A, 0x7F, 0x00, 0x27, 0x7F, 0x30, 0x89, 0x27,
  0x40, 0x00, 0x2A, 0x40, 0x00, 0x23, 0x40, 0x30, 0x99, 0x2A, 0x7F, 0x30,
  0x89, 0x2A, 0x40, 0x30, 0x82, 0x1F, 0x00, 0x00, 0x92, 0x20, 0x64, 0x00,
  0x99, 0x2E, 0x7F, 0x30, 0x89, 0x2E, 0x40, 0x81, 0x10, 0x91, 0x46, 0x64,
  0x00, 0x92, 0x20, 0x00, 0x00, 0x22, 0x64, 0x00, 0x91, 0x52, 0x64, 0x00,
  0xB1, 0x07, 0x7F, 0x00, 0x99, 0x23, 0x7F, 0x30, 0x89, 0x23, 0x40, 0x81,
  0x10, 0x81, 0x46, 0x00, 0x00, 0x91, 0x45, 0x64, 0x00, 0x92, 0x22, 0x00,
  0x00, 0x2E, 0x64, 0x00, 0xB3, 0x07, 0x7F, 0x00, 0x81, 0x52, 0x00, 0x00,
  0x91, 0x51, 0x64, 0x00, 0x99, 0x2E, 0x7F, 0x30, 0x89, 0x2E, 0x40, 0x81,
  0x10, 0x81, 0x45, 0x00, 0x00, 0x91, 0x43, 0x64, 0x00, 0x92, 0x2E, 0x00,
  0x00, 0x22, 0x64, 0x00, 0x91, 0x51, 0x00, 0x00, 0x4F, 0x64, 0x00, 0x99,
  0x23, 0x7F, 0x00, 0x2A, 0x7F, 0x00, 0x27, 0x7F, 0x30, 0x89, 0x27, 0x40,
  0x00, 0x2A, 0x40, 0x00, 0x23, 0x40, 0x81, 0x10, 0x82, 0x22, 0x00, 0x00,
  0x92, 0x2E, 0x64, 0x00, 0x99, 0x2E, 0x7F, 0x30, 0x89, 0x2E, 0x40, 0x30,
  0x81, 0x43, 0x00, 0x00, 0x91, 0x41, 0x64, 0x00, 0x4F, 0x00, 0x00, 0x4D,
  0x64, 0x60, 0x41, 0x00, 0x00, 0x45, 0x64, 0x00, 0x92, 0x2E, 0x00, 0x00,
  0x22, 0x64, 0x00, 0x91, 0x4D, 0x00, 0x00, 0x51, 0x64, 0x00, 0x99, 0x23,
  0x7F, 0x00, 0x2A, 0x7F, 0x30, 0x89, 0x2A, 0x40, 0x00, 0x23, 0x40, 0x81,
  0x10, 0x81, 0x45, 0x00, 0x00, 0x91, 0x43, 0x64, 0x00, 0x92, 0x22, 0x00,
  0x00, 0x2E, 0x64, 0x00, 0x91, 0x51, 0x00, 0x00, 0x4F, 0x64, 0x00, 0x99,
  0x2E, 0x7F, 0x30, 0x89, 0x2E, 0x40, 0x60, 0x99, 0x2E, 0x7F, 0x30, 0x91,
  0x43, 0x00, 0x00, 0x41, 0x64, 0x00, 0x92, 0x2E, 0x00, 0x00, 0x22, 0x64,
  0x00, 0x91, 0x4F, 0x00, 0x00, 0x4D, 0x64, 0x00, 0x89, 0x2E, 0x40, 0x00,
  0x99, 0x23, 0x7F, 0x00, 0x2A, 0x7F, 0x00, 0x27, 0x7F, 0x30, 0x89, 0x27,
  0x40, 0x00, 0x2A, 0x40, 0x00, 0x23, 0x40, 0x30, 0x99, 0x2A, 0x7F, 0x30,
  0x89, 0x2A, 0x40, 0x30, 0x81, 0x41, 0x00, 0x00, 0x91, 0x3F, 0x64, 0x00,
  0x92, 0x22, 0x00, 0x00, 0x2E, 0x64, 0x00, 0x91, 0x4D, 0x00, 0x00, 0x4B,
  0x64, 0x00, 0x99, 0x2E, 0x7F, 0x30, 0x89, 0x2E, 0x40, 0x81, 0x10, 0x81,
  0x3F, 0x00, 0x00, 0x91, 0x43, 0x64, 0x00, 0x92, 0x2E, 0x00, 0x00, 0x22,
  0x64, 0x00, 0x91, 0x4B, 0x00, 0x00, 0x4F, 0x64, 0x00, 0x99, 0x23, 0x7F,
  0x30, 0x89, 0x23, 0x40, 0x81, 0x10, 0x81, 0x43, 0x00, 0x00, 0x91, 0x41,
  0x64, 0x00, 0x92, 0x22, 0x00, 0x00, 0x2E, 0x64, 0x00, 0x91, 0x4F, 0x00,
  0x00, 0x4D, 0x64, 0x00, 0x99, 0x2E, 0x7F, 0x30, 0x89, 0x2E, 0x40, 0x81,
  0x10, 0x81, 0x41, 0x00, 0x00, 0x91, 0x3F, 0x64, 0x00, 0x92, 0x2E, 0x00,
  0x00, 0x22, 0x64, 0x00, 0x91, 0x4D, 0x00, 0x00, 0x4B, 0x64, 0x00, 0x99,
  0x23, 0x7F, 0x00, 0x2A, 0x7F, 0x00, 0x27, 0x7F, 0x30, 0x89, 0x27, 0x40,
  0x00, 0x2A, 0x40, 0x00, 0x23, 0x40, 0x30, 0x81, 0x3F, 0x00, 0x00, 0x91,
  0x3E, 0x64, 0x00, 0x4B, 0x00, 0x00, 0x4A, 0x64, 0x60, 0x92, 0x22, 0x00,
  0x00, 0x2E, 0x64, 0x00, 0x99, 0x2E, 0x7F, 0x30, 0x89, 0x2E, 0x40, 0x81,
  0x10, 0x81, 0x3E, 0x00, 0x00, 0x91, 0x41, 0x64, 0x00, 0x92, 0x2E, 0x00,
  0x00, 0x22, 0x64, 0x00, 0x91, 0x4A, 0x00, 0x00, 0x4D, 0x64, 0x00, 0x99,
  0x23, 0x7F, 0x00, 0x2A, 0x7F, 0x30, 0x89, 0x2A, 0x40, 0x00, 0x23, 0x40,
  0x81, 0x10, 0x82, 0x22, 0x00, 0x00, 0x92, 0x2E, 0x64, 0x00, 0x99, 0x2E,
  0x7F, 0x30, 0x89, 0x2E, 0x40, 0x60, 0x99, 0x2E, 0x7F, 0x30, 0x92, 0x2E,
  0x00, 0x00, 0x22, 0x64, 0x00, 0x89, 0x2E, 0x40, 0x00, 0x99, 0x23, 0x7F,
  0x00, 0x2A, 0x7F, 0x00, 0x27, 0x7F, 0x30, 0x89, 0x27, 0x40, 0x00, 0x2A,
  0x40, 0x00, 0x23, 0x40, 0x30, 0x99, 0x2A, 0x7F, 0x30, 0x89, 0x2A, 0x40,
  0x30, 0x81, 0x41, 0x00, 0x00, 0x91, 0x3E, 0x64, 0x00, 0x92, 0x22, 0x00,
  0x00, 0x2E, 0x64, 0x00, 0x91, 0x4D, 0x00, 0x00, 0x4A, 0x64, 0x00, 0x99,
  0x2E, 0x7F, 0x30, 0x89, 0x2E, 0x40, 0x30, 0x81, 0x3E, 0x00, 0x00, 0x91,
  0x3C, 0x64, 0x00, 0x4A, 0x00, 0x00, 0x48, 0x64, 0x60, 0x3C, 0x00, 0x00,
  0x3A, 0x64, 0x00, 0x92, 0x2E, 0x00, 0x00, 0x1F, 0x64, 0x00, 0x91, 0x48,
  0x00, 0x00, 0x46, 0x64, 0x00, 0x99, 0x23, 0x7F, 0x30, 0x89, 0x23, 0x40,
  0x81, 0x10, 0x81, 0x3A, 0x00, 0x00, 0x91, 0x3C, 0x64, 0x00, 0x92, 0x1F,
  0x00, 0x00, 0x2B, 0x64, 0x00, 0x91, 0x46, 0x00, 0x00, 0x48, 0x64, 0x00,
  0x99, 0x2E, 0x7F, 0x30, 0x89, 0x2E, 0x40, 0x81, 0x10, 0x81, 0x3C, 0x00,
  0x00, 0x91, 0x3E, 0x64, 0x00, 0x92, 0x2B, 0x00, 0x00, 0x1F, 0x64, 0x00,
  0x91, 0x48, 0x00, 0x00, 0x4A, 0x64, 0x00, 0x99, 0x23, 0x7F, 0x00, 0x2A,
  0x7F, 0x00, 0x27, 0x7F, 0x30, 0x89, 0x27, 0x40, 0x00, 0x2A, 0x40, 0x00,
  0x23, 0x40, 0x81, 0x10, 0x81, 0x3E, 0x00, 0x00, 0x91, 0x3F, 0x64, 0x00,
  0x92, 0x1F, 0x00, 0x00, 0x2B, 0x64, 0x00, 0x91, 0x4A, 0x00, 0x00, 0x4B,
  0x64, 0x00, 0x99, 0x2E, 0x7F, 0x30, 0x89, 0x2E, 0x40, 0x81, 0x10, 0x81,
  0x3F, 0x00, 0x00, 0x91, 0x3C, 0x64, 0x00, 0x92, 0x2B, 0x00, 0x00, 0x1F,
  0x64, 0x00, 0x91, 0x4B, 0x00, 0x00, 0x48, 0x64, 0x00, 0x99, 0x23, 0x7F,
  0x00, 0x2A, 0x7F, 0x30, 0x89, 0x2A, 0x40, 0x00, 0x23, 0x40, 0x81, 0x10,
  0x81, 0x3C, 0x00, 0x00, 0x91, 0x3E, 0x64, 0x00, 0x92, 0x1F, 0x00, 0x00,
  0x2B, 0x64, 0x00, 0x91, 0x48, 0x00, 0x00, 0x4A, 0x64, 0x00, 0x99, 0x2E,
  0x7F, 0x30, 0x89, 0x2E, 0x40, 0x30, 0x81, 0x3E, 0x00, 0x00, 0x91, 0x3F,
  0x64, 0x00, 0x4A, 0x00, 0x00, 0x4B, 0x64, 0x30, 0x99, 0x2E, 0x7F, 0x30,
  0x92, 0x2B, 0x00, 0x00, 0x1F, 0x64, 0x00, 0x89, 0x2E, 0x40, 0x00, 0x99,
  0x23, 0x7F, 0x00, 0x2A, 0x7F, 0x00, 0x27, 0x7F, 0x30, 0x89, 0x27, 0x40,
  0x00, 0x2A, 0x40, 0x00, 0x23, 0x40, 0x30, 0x99, 0x2A, 0x7F, 0x30, 0x89,
  0x2A, 0x40, 0x30, 0x81, 0x3F, 0x00, 0x00, 0x91, 0x41, 0x64, 0x00, 0x92,
  0x1F, 0x00, 0x00, 0x2B, 0x64, 0x00, 0x91, 0x4B, 0x00, 0x00, 0x4D, 0x64,
  0x00, 0x99, 0x2E, 0x7F, 0x30, 0x89, 0x2E, 0x40, 0x81, 0x10, 0x81, 0x41,
  0x00, 0x00, 0x91, 0x41, 0x64, 0x00, 0x92, 0x2B, 0x00, 0x00, 0x1F, 0x64,
  0x00, 0x91, 0x4D, 0x00, 0x00, 0x4D, 0x64, 0x00, 0x99, 0x23, 0x7F, 0x30,
  0x89, 0x23, 0x40, 0x81, 0x10, 0x81, 0x41, 0x00, 0x00, 0x91, 0x43, 0x64,
  0x00, 0x92, 0x1F, 0x00, 0x00, 0x2B, 0x64, 0x00, 0x91, 0x4D, 0x00, 0x00,
  0x4F, 0x64, 0x00, 0x99, 0x2E, 0x7F, 0x30, 0x89, 0x2E, 0x40, 0x81, 0x10,
  0x81, 0x43, 0x00, 0x00, 0x91, 0x45, 0x64, 0x00, 0x92, 0x2B, 0x00, 0x00,
  0x1F, 0x64, 0x00, 0x91, 0x4F, 0x00, 0x00, 0x51, 0x64, 0x00, 0x99, 0x23,
  0x7F, 0x00, 0x2A, 0x7F, 0x00, 0x27, 0x7F, 0x30, 0x89, 0x27, 0x40, 0x00,
  0x2A, 0x40, 0x00, 0x23, 0x40, 0x30, 0x81, 0x45, 0x00, 0x00, 0x91, 0x43,
  0x64, 0x00, 0x51, 0x00, 0x00, 0x4F, 0x64, 0x60, 0x92, 0x1F, 0x00, 0x00,
  0x2B, 0x64, 0x00, 0x99, 0x2E, 0x7F, 0x30, 0x89, 0x2E, 0x40, 0x81, 0x10,
  0x81, 0x43, 0x00, 0x00, 0x91, 0x41, 0x64, 0x00, 0x92, 0x2B, 0x00, 0x00,
  0x1F, 0x64, 0x00, 0x91, 0x4F, 0x00, 0x00, 0x4D, 0x64, 0x00, 0x99, 0x23,
  0x7F, 0x00, 0x2A, 0x7F, 0x30, 0x89, 0x2A, 0x40, 0x00, 0x23, 0x40, 0x81,
  0x10, 0x81, 0x41, 0x00, 0x00, 0x91, 0x41, 0x64, 0x00, 0x92, 0x1F, 0x00,
  0x00, 0x2B, 0x64, 0x00, 0x91, 0x4D, 0x00, 0x00, 0x4D, 0x64, 0x00, 0x99,
  0x2E, 0x7F, 0x30, 0x89, 0x2E, 0x40, 0x60, 0x99, 0x2E, 0x7F, 0x30, 0x91,
  0x41, 0x00, 0x00, 0x43, 0x64, 0x00, 0x92, 0x2B, 0x00, 0x00, 0x1F, 0x64,
  0x00, 0x91, 0x4D, 0x00, 0x00, 0x4F, 0x64, 0x00, 0x89, 0x2E, 0x40, 0x00,
  0x99, 0x23, 0x7F, 0x00, 0x2A, 0x7F, 0x00, 0x27, 0x7F, 0x30, 0x89, 0x27,
  0x40, 0x00, 0x2A, 0x40, 0x00, 0x23, 0x40, 0x30, 0x99, 0x2A, 0x7F, 0x30,
  0x89, 0x2A, 0x40, 0x30, 0x81, 0x43, 0x00, 0x00, 0x91, 0x45, 0x64, 0x00,
  0x92, 0x1F, 0x00, 0x00, 0x2B, 0x64, 0x00, 0x91, 0x4F, 0x00, 0x00, 0x51,
  0x64, 0x00, 0x99, 0x2E, 0x7F, 0x30, 0x89, 0x2E, 0x40, 0x81, 0x10, 0x81,
  0x45, 0x00, 0x00, 0x91, 0x46, 0x64, 0x00, 0x92, 0x2B, 0x00, 0x00, 0x22,
  0x64, 0x00, 0x91, 0x51, 0x00, 0x00, 0x52, 0x64, 0x00, 0x99, 0x23, 0x7F,
  0x30, 0x89, 0x23, 0x40, 0x81, 0x10, 0x81, 0x46, 0x00, 0x00, 0x91, 0x45,
  0x64, 0x00, 0x92, 0x22, 0x00, 0x00, 0x2E, 0x64, 0x00, 0x91, 0x52, 0x00,
  0x00, 0x51, 0x64, 0x00, 0x99, 0x2E, 0x7F, 0x30, 0x89, 0x2E, 0x40, 0x81,
  0x10, 0x81, 0x45, 0x00, 0x00, 0x91, 0x43, 0x64, 0x00, 0x92, 0x2E, 0x00,
  0x00, 0x22, 0x64, 0x00, 0x91, 0x51, 0x00, 0x00, 0x4F, 0x64, 0x00, 0x99,
  0x23, 0x7F, 0x00, 0x2A, 0x7F, 0x00, 0x27, 0x7F, 0x30, 0x89, 0x27, 0x40,
  0x00, 0x2A, 0x40, 0x00, 0x23, 0x40, 0x81, 0x10, 0x82, 0x22, 0x00, 0x00,
  0x92, 0x2E, 0x64, 0x00, 0x99, 0x2E, 0x7F, 0x30, 0x89, 0x2E, 0x40, 0x30,
  0x81, 0x43, 0x00, 0x00, 0x91, 0x41, 0x64, 0x00, 0x4F, 0x00, 0x00, 0x4D,
  0x64, 0x60, 0x41, 0x00, 0x00, 0x45, 0x64, 0x00, 0x92, 0x2E, 0x00, 0x00,
  0x22, 0x64, 0x00, 0x91, 0x4D, 0x00, 0x00, 0x51, 0x64, 0x00, 0x99, 0x23,
  0x7F, 0x00, 0x2A, 0x7F, 0x30, 0x89, 0x2A, 0x40, 0x00, 0x23, 0x40, 0x81,
  0x10, 0x81, 0x45, 0x00, 0x00, 0x91, 0x43, 0x64, 0x00, 0x92, 0x22, 0x00,
  0x00, 0x2E, 0x64, 0x00, 0x91, 0x51, 0x00, 0x00, 0x4F, 0x64, 0x00, 0x99,
  0x2E, 0x7F, 0x30, 0x89, 0x2E, 0x40, 0x60, 0x99, 0x2E, 0x7F, 0x30, 0x91,
  0x43, 0x00, 0x00, 0x41, 0x64, 0x00, 0x92, 0x2E, 0x00, 0x00, 0x22, 0x64,
  0x00, 0x91, 0x4F, 0x00, 0x00, 0x4D, 0x64, 0x00, 0x89, 0x2E, 0x40, 0x00,
  0x99, 0x23, 0x7F, 0x00, 0x2A, 0x7F, 0x00, 0x27, 0x7F, 0x30, 0x89, 0x27,
  0x40, 0x00, 0x2A, 0x40, 0x00, 0x23, 0x40, 0x30, 0x81, 0x41, 0x00, 0x00,
  0x91, 0x3F, 0x64, 0x00, 0x4D, 0x00, 0x00, 0x4B, 0x64, 0x00, 0x99, 0x2A,
  0x7F, 0x30, 0x89, 0x2A, 0x40, 0x30, 0x82, 0x22, 0x00, 0x00, 0x92, 0x2E,
  0x64, 0x00, 0x99, 0x2E, 0x7F, 0x30, 0x89, 0x2E, 0x40, 0x81, 0x10, 0x81,
  0x3F, 0x00, 0x00, 0x91, 0x43, 0x64, 0x00, 0x92, 0x2E, 0x00, 0x00, 0x22,
  0x64, 0x00, 0x91, 0x4B, 0x00, 0x00, 0x4F, 0x64, 0x00, 0x99, 0x23, 0x7F,
  0x30, 0x89, 0x23, 0x40, 0x81, 0x10, 0x81, 0x43, 0x00, 0x00, 0x91, 0x41,
  0x64, 0x00, 0x92, 0x22, 0x00, 0x00, 0x2E, 0x64, 0x00, 0x91, 0x4F, 0x00,
  0x00, 0x4D, 0x64, 0x00, 0x99, 0x2E, 0x7F, 0x30, 0x89, 0x2E, 0x40, 0x81,
  0x10, 0x81, 0x41, 0x00, 0x00, 0x91, 0x3F, 0x64, 0x00, 0x92, 0x2E, 0x00,
  0x00, 0x22, 0x64, 0x00, 0x91, 0x4D, 0x00, 0x00, 0x4B, 0x64, 0x00, 0x99,
  0x23, 0x7F, 0x00, 0x2A, 0x7F, 0x00, 0x27, 0x7F, 0x30, 0x89, 0x27, 0x40,
  0x00, 0x2A, 0x40, 0x00, 0x23, 0x40, 0x30, 0x81, 0x3F, 0x00, 0x00, 0x91,
  0x3E, 0x64, 0x00, 0x4B, 0x00, 0x00, 0x4A, 0x64, 0x60, 0x92, 0x22, 0x00,
  0x00, 0x2E, 0x64, 0x00, 0x99, 0x2E, 0x7F, 0x30, 0x89, 0x2E, 0x40, 0x81,
  0x10, 0x81, 0x3E, 0x00, 0x00, 0x91, 0x41, 0x64, 0x00, 0x92, 0x2E, 0x00,
  0x00, 0x22, 0x64, 0x00, 0x91, 0x4A, 0x00, 0x00, 0x4D, 0x64, 0x00, 0x99,
  0x23, 0x7F, 0x00, 0x2A, 0x7F, 0x30, 0x89, 0x2A, 0x40, 0x00, 0x23, 0x40,
  0x81, 0x10, 0x82, 0x22, 0x00, 0x00, 0x92, 0x2E, 0x64, 0x00, 0x99, 0x2E,
  0x7F, 0x30, 0x89, 0x2E, 0x40, 0x60, 0x99, 0x2E, 0x7F, 0x30, 0x92, 0x2E,
  0x00, 0x00, 0x22, 0x64, 0x00, 0x89, 0x2E, 0x40, 0x00, 0x99, 0x23, 0x7F,
  0x00, 0x2A, 0x7F, 0x00, 0x27, 0x7F, 0x30, 0x89, 0x27, 0x40, 0x00, 0x2A,
  0x40, 0x00, 0x23, 0x40, 0x30, 0x99, 0x2A, 0x7F, 0x30, 0x89, 0x2A, 0x40,
  0x30, 0x81, 0x41, 0x00, 0x00, 0x91, 0x3E, 0x64, 0x00, 0x92, 0x22, 0x00,
  0x00, 0x2E, 0x64, 0x00, 0x91, 0x4D, 0x00, 0x00, 0x4A, 0x64, 0x00, 0x99,
  0x2E, 0x7F, 0x30, 0x89, 0x2E, 0x40, 0x30, 0x81, 0x3E, 0x00, 0x00, 0x91,
  0x3C, 0x64, 0x00, 0x4A, 0x00, 0x00, 0x48, 0x64, 0x60, 0x3C, 0x00, 0x00,
  0x3A, 0x64, 0x00, 0x92, 0x2E, 0x00, 0x00, 0x1F, 0x64, 0x00, 0x91, 0x48,
  0x00, 0x00, 0x46, 0x64, 0x00, 0x99, 0x23, 0x7F, 0x30, 0x89, 0x23, 0x40,
  0x81, 0x10, 0x81, 0x3A, 0x00, 0x00, 0x91, 0x3C, 0x64, 0x00, 0x92, 0x1F,
  0x00, 0x00, 0x2B, 0x64, 0x00, 0x91, 0x46, 0x00, 0x00, 0x48, 0x64, 0x00,
  0x99, 0x2E, 0x7F, 0x30, 0x89, 0x2E, 0x40, 0x81, 0x10, 0x81, 0x3C, 0x00,
  0x00, 0x91, 0x3E, 0x64, 0x00, 0x92, 0x2B, 0x00, 0x00, 0x1F, 0x64, 0x00,
  0x91, 0x48, 0x00, 0x00, 0x4A, 0x64, 0x00, 0x99, 0x23, 0x7F, 0x00, 0x2A,
  0x7F, 0x00, 0x27, 0x7F, 0x30, 0x89, 0x27, 0x40, 0x00, 0x2A, 0x40, 0x00,
  0x23, 0x40, 0x81, 0x10, 0x81, 0x3E, 0x00, 0x00, 0x91, 0x3F, 0x64, 0x00,
  0x92, 0x1F, 0x00, 0x00, 0x2B, 0x64, 0x00, 0x91, 0x4A, 0x00, 0x00, 0x4B,
  0x64, 0x00, 0x99, 0x2E, 0x7F, 0x30, 0x89, 0x2E, 0x40, 0x81, 0x10, 0x81,
  0x3F, 0x00, 0x00, 0x91, 0x3C, 0x64, 0x00, 0x92, 0x2B, 0x00, 0x00, 0x1F,
  0x64, 0x00, 0x91, 0x4B, 0x00, 0x00, 0x48, 0x64, 0x00, 0x99, 0x23, 0x7F,
  0x00, 0x2A, 0x7F, 0x30, 0x89, 0x2A, 0x40, 0x00, 0x23, 0x40, 0x81, 0x10,
  0x81, 0x3C, 0x00, 0x00, 0x91, 0x3E, 0x64, 0x00, 0x92, 0x1F, 0x00, 0x00,
  0x2B, 0x64, 0x00, 0x91, 0x48, 0x00, 0x00, 0x4A, 0x64, 0x00, 0x99, 0x2E,
  0x7F, 0x30, 0x89, 0x2E, 0x40, 0x30, 0x81, 0x3E, 0x00, 0x00, 0x91, 0x3F,
  0x64, 0x00, 0x4A, 0x00, 0x00, 0x4B, 0x64, 0x30, 0x99, 0x2E, 0x7F, 0x30,
  0x92, 0x2B, 0x00, 0x00, 0x1F, 0x64, 0x00, 0x89, 0x2E, 0x40, 0x00, 0x99,
  0x23, 0x7F, 0x00, 0x2A, 0x7F, 0x00, 0x27, 0x7F, 0x30, 0x89, 0x27, 0x40,
  0x00, 0x2A, 0x40, 0x00, 0x23, 0x40, 0x30, 0x99, 0x2A, 0x7F, 0x30, 0x89,
  0x2A, 0x40, 0x30, 0x81, 0x3F, 0x00, 0x00, 0x91, 0x41, 0x64, 0x00, 0x92,
  0x1F, 0x00, 0x00, 0x2B, 0x64, 0x00, 0x91, 0x4B, 0x00, 0x00, 0x4D, 0x64,
  0x00, 0x99, 0x2E, 0x7F, 0x30, 0x89, 0x2E, 0x40, 0x81, 0x10, 0x81, 0x41,
  0x00, 0x00, 0x91, 0x41, 0x64, 0x00, 0x92, 0x2B, 0x00, 0x00, 0x1F, 0x64,
  0x00, 0x91, 0x4D, 0x00, 0x00, 0x4D, 0x64, 0x00, 0x99, 0x23, 0x7F, 0x30,
  0x89, 0x23, 0x40, 0x81, 0x10, 0x81, 0x41, 0x00, 0x00, 0x91, 0x43, 0x64,
  0x00, 0x92, 0x1F, 0x00, 0x00, 0x2B, 0x64, 0x00, 0x91, 0x4D, 0x00, 0x00,
  0x4F, 0x64, 0x00, 0x99, 0x2E, 0x7F, 0x30, 0x89, 0x2E, 0x40, 0x81, 0x10,
  0x81, 0x43, 0x00, 0x00, 0x91, 0x45, 0x64, 0x00, 0x92, 0x2B, 0x00, 0x00,
  0x1F, 0x64, 0x00, 0x91, 0x4F, 0x00, 0x00, 0x51, 0x64, 0x00, 0x99, 0x23,
  0x7F, 0x00, 0x2A, 0x7F, 0x00, 0x27, 0x7F, 0x30, 0x89, 0x27, 0x40, 0x00,
  0x2A, 0x40, 0x00, 0x23, 0x40, 0x30, 0x81, 0x45, 0x00, 0x00, 0x91, 0x41,
  0x64, 0x00, 0x51, 0x00, 0x00, 0x4D, 0x64, 0x60, 0x92, 0x1F, 0x00, 0x00,
  0x2B, 0x64, 0x00, 0x99, 0x2E, 0x7F, 0x30, 0x89, 0x2E, 0x40, 0x81, 0x10,
  0x81, 0x41, 0x00, 0x00, 0x91, 0x46, 0x64, 0x00, 0x92, 0x2B, 0x00, 0x00,
  0x22, 0x64, 0x00, 0x91, 0x4D, 0x00, 0x00, 0x52, 0x64, 0x00, 0x99, 0x23,
  0x7F, 0x00, 0x2A, 0x7F, 0x30, 0x89, 0x2A, 0x40, 0x00, 0x23, 0x40, 0x81,
  0x10, 0x81, 0x46, 0x00, 0x00, 0x91, 0x41, 0x64, 0x00, 0x92, 0x22, 0x00,
  0x00, 0x1D, 0x64, 0x00, 0x91, 0x52, 0x00, 0x00, 0x4D, 0x64, 0x00, 0x99,
  0x2E, 0x7F, 0x30, 0x89, 0x2E, 0x40, 0x60, 0x99, 0x2E, 0x7F, 0x30, 0x91,
  0x41, 0x00, 0x00, 0x43, 0x64, 0x00, 0x92, 0x1D, 0x00, 0x00, 0x1F, 0x64,
  0x00, 0x91, 0x4D, 0x00, 0x00, 0x4F, 0x64, 0x00, 0x89, 0x2E, 0x40, 0x00,
  0x99, 0x23, 0x7F, 0x00, 0x2A, 0x7F, 0x00, 0x27, 0x7F, 0x30, 0x89, 0x27,
  0x40, 0x00, 0x2A, 0x40, 0x00, 0x23, 0x40, 0x30, 0x99, 0x2A, 0x7F, 0x30,
  0x89, 0x2A, 0x40, 0x30, 0x81, 0x43, 0x00, 0x00, 0x91, 0x44, 0x64, 0x00,
  0x92, 0x1F, 0x00, 0x00, 0x20, 0x64, 0x00, 0x91, 0x4F, 0x00, 0x00, 0x50,
  0x64, 0x00, 0x99, 0x2E, 0x7F, 0x30, 0x89, 0x2E, 0x40, 0x81, 0x10, 0x81,
  0x44, 0x00, 0x00, 0x91, 0x45, 0x64, 0x00, 0x92, 0x20, 0x00, 0x00, 0x21,
  0x64, 0x00, 0x91, 0x50, 0x00, 0x00, 0x51, 0x64, 0x00, 0x99, 0x23, 0x7F,
  0x30, 0x89, 0x23, 0x40, 0x81, 0x10, 0x82, 0x21, 0x00, 0x00, 0x92, 0x2D,
  0x64, 0x00, 0x93, 0x4D, 0x64, 0x00, 0x99, 0x2E, 0x7F, 0x30, 0x89, 0x2E,
  0x40, 0x81, 0x10, 0x82, 0x2D, 0x00, 0x00, 0x92, 0x21, 0x64, 0x00, 0x93,
  0x4D, 0x00, 0x00, 0x4F, 0x64, 0x00, 0x99, 0x23, 0x7F, 0x00, 0x2A, 0x7F,
  0x00, 0x27, 0x7F, 0x30, 0x89, 0x27, 0x40, 0x00, 0x2A, 0x40, 0x00, 0x23,
  0x40, 0x30, 0x94, 0x4D, 0x32, 0x00, 0xB4, 0x07, 0x7F, 0x60, 0x82, 0x21,
  0x00, 0x00, 0x92, 0x2D, 0x64, 0x00, 0x93, 0x4F, 0x00, 0x00, 0x50, 0x64,
  0x00, 0x99, 0x2E, 0x7F, 0x30, 0x89, 0x2E, 0x40, 0x30, 0x84, 0x4D, 0x00,
  0x00, 0x94, 0x4F, 0x32, 0x60, 0xB1, 0x07, 0x00, 0x00, 0x82, 0x2D, 0x00,
  0x00, 0x92, 0x21, 0x64, 0x00, 0x93, 0x50, 0x00, 0x00, 0x51, 0x64, 0x00,
  0xB1, 0x07, 0x00, 0x00, 0x99, 0x23, 0x7F, 0x00, 0x2A, 0x7F, 0x30, 0x89,
  0x2A, 0x40, 0x00, 0x23, 0x40, 0x30, 0x84, 0x4F, 0x00, 0x00, 0x94, 0x50,
  0x32, 0x60, 0x91, 0x45, 0x00, 0x00, 0xB1, 0x07, 0x7F, 0x00, 0x91, 0x41,
  0x64, 0x00, 0x92, 0x21, 0x00, 0x00, 0x1D, 0x64, 0x00, 0x91, 0x51, 0x00,
  0x00, 0x4D, 0x64, 0x00, 0xB1, 0x07, 0x7F, 0x00, 0x99, 0x2E, 0x7F, 0x30,
  0x89, 0x2E, 0x40, 0x30, 0x84, 0x50, 0x00, 0x00, 0x94, 0x51, 0x32, 0x30,
  0x99, 0x2E, 0x7F, 0x30, 0x91, 0x41, 0x00, 0x00, 0x43, 0x64, 0x00, 0x92,
  0x1D, 0x00, 0x00, 0x1F, 0x64, 0x00, 0x91, 0x4D, 0x00, 0x00, 0x4F, 0x64,
  0x00, 0x89, 0x2E, 0x40, 0x00, 0x99, 0x23, 0x7F, 0x00, 0x2A, 0x7F, 0x00,
  0x27, 0x7F, 0x30, 0x89, 0x27, 0x40, 0x00, 0x2A, 0x40, 0x00, 0x23, 0x40,
  0x30, 0x99, 0x2A, 0x7F, 0x30, 0x89, 0x2A, 0x40, 0x30, 0x81, 0x43, 0x00,
  0x00, 0x91, 0x45, 0x64, 0x00, 0x92, 0x1F, 0x00, 0x00, 0x21, 0x64, 0x00,
  0x91, 0x4F, 0x00, 0x00, 0x51, 0x64, 0x00, 0x99, 0x2E, 0x7F, 0x30, 0x89,
  0x2E, 0x40, 0x81, 0x10, 0x81, 0x45, 0x00, 0x00, 0x91, 0x46, 0x64, 0x00,
  0x92, 0x21, 0x00, 0x00, 0x22, 0x64, 0x00, 0xB3, 0x07, 0x00, 0x00, 0x81,
  0x51, 0x00, 0x00, 0x91, 0x52, 0x64, 0x00, 0x99, 0x23, 0x7F, 0x30, 0x89,
  0x23, 0x40, 0x81, 0x10, 0x82, 0x22, 0x00, 0x00, 0x92, 0x2E, 0x64, 0x00,
  0x93, 0x51, 0x00, 0x00, 0xB3, 0x07, 0x7F, 0x00, 0x93, 0x4D, 0x64, 0x00,
  0x99, 0x2E, 0x7F, 0x30, 0x89, 0x2E, 0x40, 0x30, 0xB4, 0x07, 0x00, 0x60,
  0x82, 0x2E, 0x00, 0x00, 0x92, 0x22, 0x64, 0x00, 0x93, 0x4D, 0x00, 0x00,
  0x4F, 0x64, 0x00, 0x99, 0x23, 0x7F, 0x00, 0x2A, 0x7F, 0x00, 0x27, 0x7F,
  0x30, 0x89, 0x27, 0x40, 0x00, 0x2A, 0x40, 0x00, 0x23, 0x40, 0x30, 0x84,
  0x51, 0x40, 0x00, 0x94, 0x4D, 0x32, 0x00, 0xB4, 0x07, 0x7F, 0x60, 0x82,
  0x22, 0x00, 0x00, 0x92, 0x2E, 0x64, 0x00, 0x93, 0x4F, 0x00, 0x00, 0x51,
  0x64, 0x00, 0x99, 0x2E, 0x7F, 0x30, 0x89, 0x2E, 0x40, 0x30, 0x84, 0x4D,
  0x00, 0x00, 0x94, 0x4F, 0x32, 0x60, 0xB1, 0x07, 0x00, 0x00, 0x82, 0x2E,
  0x00, 0x00, 0x92, 0x22, 0x64, 0x00, 0x93, 0x51, 0x00, 0x00, 0x52, 0x64,
  0x00, 0xB1, 0x07, 0x00, 0x00, 0x99, 0x23, 0x7F, 0x00, 0x2A, 0x7F, 0x30,
  0x89, 0x2A, 0x40, 0x00, 0x23, 0x40, 0x30, 0x84, 0x4F, 0x00, 0x00, 0x94,
  0x51, 0x32, 0x60, 0x91, 0x46, 0x00, 0x00, 0xB1, 0x07, 0x7F, 0x00, 0x91,
  0x41, 0x64, 0x00, 0x92, 0x22, 0x00, 0x00, 0x1D, 0x64, 0x00, 0x91, 0x52,
  0x00, 0x00, 0x4D, 0x64, 0x00, 0xB1, 0x07, 0x7F, 0x00, 0x99, 0x2E, 0x7F,
  0x30, 0x89, 0x2E, 0x40, 0x30, 0x84, 0x51, 0x00, 0x00, 0x94, 0x52, 0x32,
  0x30, 0x99, 0x2E, 0x7F, 0x30, 0x91, 0x41, 0x00, 0x00, 0x43, 0x64, 0x00,
  0x92, 0x1D, 0x00, 0x00, 0x1F, 0x64, 0x00, 0x91, 0x4D, 0x00, 0x00, 0x4F,
  0x64, 0x00, 0x89, 0x2E, 0x40, 0x00, 0x99, 0x23, 0x7F, 0x00, 0x2A, 0x7F,
  0x00, 0x27, 0x7F, 0x30, 0x89, 0x27, 0x40, 0x00, 0x2A, 0x40, 0x00, 0x23,
  0x40, 0x30, 0x99, 0x2A, 0x7F, 0x30, 0x89, 0x2A, 0x40, 0x30, 0x81, 0x43,
  0x00, 0x00, 0x91, 0x45, 0x64, 0x00, 0x92, 0x1F, 0x00, 0x00, 0x20, 0x64,
  0x00, 0x91, 0x4F, 0x00, 0x00, 0x51, 0x64, 0x00, 0x99, 0x2E, 0x7F, 0x30,
  0x89, 0x2E, 0x40, 0x81, 0x10, 0x81, 0x45, 0x00, 0x00, 0x91, 0x48, 0x64,
  0x00, 0x92, 0x20, 0x00, 0x00, 0x21, 0x64, 0x00, 0xB3, 0x07, 0x00, 0x00,
  0x81, 0x51, 0x00, 0x00, 0x91, 0x54, 0x64, 0x00, 0x99, 0x23, 0x7F, 0x30,
  0x89, 0x23, 0x40, 0x81, 0x10, 0x82, 0x21, 0x00, 0x00, 0x92, 0x2D, 0x64,
  0x00, 0x93, 0x52, 0x00, 0x00, 0xB3, 0x07, 0x7F, 0x00, 0x93, 0x4D, 0x64,
  0x00, 0x99, 0x2E, 0x7F, 0x30, 0x89, 0x2E, 0x40, 0x30, 0xB4, 0x07, 0x00,
  0x60, 0x82, 0x2D, 0x00, 0x00, 0x92, 0x21, 0x64, 0x00, 0x93, 0x4D, 0x00,
  0x00, 0x4F, 0x64, 0x00, 0x99, 0x23, 0x7F, 0x00, 0x2A, 0x7F, 0x00, 0x27,
  0x7F, 0x30, 0x89, 0x27, 0x40, 0x00, 0x2A, 0x40, 0x00, 0x23, 0x40, 0x30,
  0x84, 0x52, 0x40, 0x00, 0x94, 0x4D, 0x32, 0x00, 0xB4, 0x07, 0x7F, 0x60,
  0x82, 0x21, 0x00, 0x00, 0x92, 0x2D, 0x64, 0x00, 0x93, 0x4F, 0x00, 0x00,
  0x51, 0x64, 0x00, 0x99, 0x2E, 0x7F, 0x30, 0x89, 0x2E, 0x40, 0x30, 0x84,
  0x4D, 0x00, 0x00, 0x94, 0x4F, 0x32, 0x60, 0xB1, 0x07, 0x00, 0x00, 0x82,
  0x2D, 0x00, 0x00, 0x92, 0x21, 0x64, 0x00, 0x93, 0x51, 0x00, 0x00, 0x54,
  0x64, 0x00, 0xB1, 0x07, 0x00, 0x00, 0x99, 0x23, 0x7F, 0x00, 0x2A, 0x7F,
  0x30, 0x89, 0x2A, 0x40, 0x00, 0x23, 0x40, 0x30, 0x84, 0x4F, 0x00, 0x00,
  0x94, 0x51, 0x32, 0x60, 0x91, 0x48, 0x00, 0x00, 0xB1, 0x07, 0x7F, 0x00,
  0x91, 0x41, 0x64, 0x00, 0x92, 0x21, 0x00, 0x00, 0x1D, 0x64, 0x00, 0x91,
  0x54, 0x00, 0x00, 0x4D, 0x64, 0x00, 0xB1, 0x07, 0x7F, 0x00, 0x99, 0x2E,
  0x7F, 0x30, 0x89, 0x2E, 0x40, 0x30, 0x84, 0x51, 0x00, 0x00, 0x94, 0x54,
  0x32, 0x30, 0x99, 0x2E, 0x7F, 0x30, 0x91, 0x41, 0x00, 0x00, 0x43, 0x64,
  0x00, 0x92, 0x1D, 0x00, 0x00, 0x1F, 0x64, 0x00, 0x91, 0x4D, 0x00, 0x00,
  0x4F, 0x64, 0x00, 0x89, 0x2E, 0x40, 0x00, 0x99, 0x23, 0x7F, 0x00, 0x2A,
  0x7F, 0x00, 0x27, 0x7F, 0x30, 0x89, 0x27, 0x40, 0x00, 0x2A, 0x40, 0x00,
  0x23, 0x40, 0x30, 0x99, 0x2A, 0x7F, 0x30, 0x89, 0x2A, 0x40, 0x30, 0x81,
  0x43, 0x00, 0x00, 0x91, 0x45, 0x64, 0x00, 0x92, 0x1F, 0x00, 0x00, 0x21,
  0x64, 0x00, 0x91, 0x4F, 0x00, 0x00, 0x51, 0x64, 0x00, 0x99, 0x2E, 0x7F,
  0x30, 0x89, 0x2E, 0x40, 0x81, 0x10, 0x81, 0x45, 0x00, 0x00, 0x91, 0x4A,
  0x64, 0x00, 0x92, 0x21, 0x00, 0x00, 0x22, 0x64, 0x00, 0xB3, 0x07, 0x00,
  0x00, 0x81, 0x51, 0x00, 0x00, 0x91, 0x56, 0x64, 0x00, 0x99, 0x23, 0x7F,
  0x30, 0x89, 0x23, 0x40, 0x81, 0x10, 0x82, 0x22, 0x00, 0x00, 0x92, 0x2E,
  0x64, 0x00, 0x93, 0x54, 0x00, 0x00, 0xB3, 0x07, 0x7F, 0x00, 0x93, 0x4D,
  0x64, 0x00, 0x99, 0x2E, 0x7F, 0x30, 0x89, 0x2E, 0x40, 0x30, 0xB4, 0x07,
  0x00, 0x60, 0x82, 0x2E, 0x00, 0x00, 0x92, 0x22, 0x64, 0x00, 0x93, 0x4D,
  0x00, 0x00, 0x4F, 0x64, 0x00, 0x99, 0x23, 0x7F, 0x00, 0x2A, 0x7F, 0x00,
  0x27, 0x7F, 0x30, 0x89, 0x27, 0x40, 0x00, 0x2A, 0x40, 0x00, 0x23, 0x40,
  0x30, 0x84, 0x54, 0x40, 0x00, 0x94, 0x4D, 0x32, 0x00, 0xB4, 0x07, 0x7F,
  0x60, 0x82, 0x22, 0x00, 0x00, 0x92, 0x2E, 0x64, 0x00, 0x93, 0x4F, 0x00,
  0x00, 0x51, 0x64, 0x00, 0x99, 0x2E, 0x7F, 0x30, 0x89, 0x2E, 0x40, 0x30,
  0x84, 0x4D, 0x00, 0x00, 0x94, 0x4F, 0x32, 0x60, 0xB1, 0x07, 0x00, 0x00,
  0x82, 0x2E, 0x00, 0x00, 0x92, 0x22, 0x64, 0x00, 0x93, 0x51, 0x00, 0x00,
  0x56, 0x64, 0x00, 0xB1, 0x07, 0x00, 0x00, 0x99, 0x23, 0x7F, 0x00, 0x2A,
  0x7F, 0x30, 0x89, 0x2A, 0x40, 0x00, 0x23, 0x40, 0x30, 0x84, 0x4F, 0x00,
  0x00, 0x94, 0x51, 0x32, 0x60, 0x91, 0x4A, 0x00, 0x00, 0xB1, 0x07, 0x7F,
  0x00, 0x91, 0x46, 0x64, 0x00, 0x92, 0x22, 0x00, 0x00, 0x22, 0x64, 0x00,
  0x91, 0x56, 0x00, 0x00, 0x52, 0x64, 0x00, 0xB1, 0x07, 0x7F, 0x00, 0x99,
  0x2E, 0x7F, 0x30, 0x89, 0x2E, 0x40, 0x30, 0x84, 0x51, 0x00, 0x00, 0x94,
  0x56, 0x32, 0x30, 0x99, 0x2E, 0x7F, 0x30, 0x91, 0x46, 0x00, 0x00, 0x48,
  0x64, 0x00, 0x92, 0x22, 0x00, 0x00, 0x24, 0x64, 0x00, 0x91, 0x52, 0x00,
  0x00, 0x54, 0x64, 0x00, 0x89, 0x2E, 0x40, 0x00, 0x99, 0x23, 0x7F, 0x00,
  0x2A, 0x7F, 0x00, 0x27, 0x7F, 0x30, 0x89, 0x27, 0x40, 0x00, 0x2A, 0x40,
  0x00, 0x23, 0x40, 0x30, 0x99, 0x2A, 0x7F, 0x30, 0x89, 0x2A, 0x40, 0x30,
  0x81, 0x48, 0x00, 0x00, 0x91, 0x4A, 0x64, 0x00, 0x92, 0x24, 0x00, 0x00,
  0x26, 0x64, 0x00, 0x91, 0x54, 0x00, 0x00, 0x56, 0x64, 0x00, 0x99, 0x2E,
  0x7F, 0x30, 0x89, 0x2E, 0x40, 0x81, 0x10, 0x81, 0x4A, 0x00, 0x00, 0x91,
  0x4B, 0x64, 0x00, 0x92, 0x26, 0x00, 0x00, 0x27, 0x64, 0x00, 0xB3, 0x07,
  0x00, 0x00, 0x81, 0x56, 0x00, 0x00, 0x91, 0x57, 0x64, 0x00, 0x99, 0x23,
  0x7F, 0x30, 0x89, 0x23, 0x40, 0x81, 0x10, 0x81, 0x4B, 0x00, 0x00, 0x91,
  0x4B, 0x64, 0x00, 0x92, 0x27, 0x00, 0x00, 0x33, 0x64, 0x00, 0x91, 0x57,
  0x00, 0x00, 0x57, 0x64, 0x00, 0x99, 0x2E, 0x7F, 0x30, 0x89, 0x2E, 0x40,
  0x30, 0xB4, 0x07, 0x00, 0x60, 0x82, 0x33, 0x00, 0x00, 0x92, 0x27, 0x64,
  0x00, 0x99, 0x23, 0x7F, 0x00, 0x2A, 0x7F, 0x00, 0x27, 0x7F, 0x30, 0x89,
  0x27, 0x40, 0x00, 0x2A, 0x40, 0x00, 0x23, 0x40, 0x81, 0x10, 0x81, 0x4B,
  0x00, 0x00, 0x91, 0x4B, 0x64, 0x00, 0x92, 0x27, 0x00, 0x00, 0x33, 0x64,
  0x00, 0x91, 0x57, 0x00, 0x00, 0x57, 0x64, 0x00, 0x99, 0x2E, 0x7F, 0x30,
  0x89, 0x2E, 0x40, 0x81, 0x10, 0x82, 0x33, 0x00, 0x00, 0x92, 0x27, 0x64,
  0x00, 0x99, 0x23, 0x7F, 0x00, 0x2A, 0x7F, 0x30, 0x89, 0x2A, 0x40, 0x00,
  0x23, 0x40, 0x81, 0x10, 0x81, 0x4B, 0x00, 0x00, 0x91, 0x4A, 0x64, 0x00,
  0x92, 0x27, 0x00, 0x00, 0x33, 0x64, 0x00, 0x91, 0x57, 0x00, 0x00, 0x56,
  0x64, 0x00, 0x99, 0x2E, 0x7F, 0x30, 0x89, 0x2E, 0x40, 0x60, 0x99, 0x2E,
  0x7F, 0x30, 0x91, 0x4A, 0x00, 0x00, 0x48, 0x64, 0x00, 0x92, 0x33, 0x00,
  0x00, 0x27, 0x64, 0x00, 0x91, 0x56, 0x00, 0x00, 0x54, 0x64, 0x00, 0x89,
  0x2E, 0x40, 0x00, 0x99, 0x23, 0x7F, 0x00, 0x2A, 0x7F, 0x00, 0x27, 0x7F,
  0x30, 0x89, 0x27, 0x40, 0x00, 0x2A, 0x40, 0x00, 0x23, 0x40, 0x30, 0x99,
  0x2A, 0x7F, 0x30, 0x89, 0x2A, 0x40, 0x30, 0x82, 0x27, 0x00, 0x00, 0x92,
  0x33, 0x64, 0x00, 0x99, 0x2E, 0x7F, 0x30, 0x89, 0x2E, 0x40, 0x81, 0x10,
  0x81, 0x48, 0x00, 0x00, 0x91, 0x4A, 0x64, 0x00, 0x92, 0x33, 0x00, 0x00,
  0x26, 0x64, 0x00, 0x91, 0x54, 0x00, 0x00, 0x56, 0x64, 0x00, 0x99, 0x23,
  0x7F, 0x30, 0x89, 0x23, 0x40, 0x81, 0x10, 0x82, 0x26, 0x00, 0x00, 0x92,
  0x32, 0x64, 0x00, 0x99, 0x2E, 0x7F, 0x30, 0x89, 0x2E, 0x40, 0x81, 0x10,
  0x82, 0x32, 0x00, 0x00, 0x92, 0x26, 0x64, 0x00, 0x99, 0x23, 0x7F, 0x00,
  0x2A, 0x7F, 0x00, 0x27, 0x7F, 0x30, 0x89, 0x27, 0x40, 0x00, 0x2A, 0x40,
  0x00, 0x23, 0x40, 0x81, 0x10, 0x82, 0x26, 0x00, 0x00, 0x92, 0x32, 0x64,
  0x00, 0x99, 0x2E, 0x7F, 0x30, 0x89, 0x2E, 0x40, 0x81, 0x10, 0x82, 0x32,
  0x00, 0x00, 0x92, 0x26, 0x64, 0x00, 0x99, 0x23, 0x7F, 0x00, 0x2A, 0x7F,
  0x30, 0x89, 0x2A, 0x40, 0x00, 0x23, 0x40, 0x81, 0x10, 0x82, 0x26, 0x00,
  0x00, 0x92, 0x32, 0x64, 0x00, 0x99, 0x2E, 0x7F, 0x30, 0x89, 0x2E, 0x40,
  0x60, 0x99, 0x2E, 0x7F, 0x30, 0x91, 0x4A, 0x00, 0x00, 0x4A, 0x64, 0x00,
  0x92, 0x32, 0x00, 0x00, 0x26, 0x64, 0x00, 0x91, 0x56, 0x00, 0x00, 0x56,
  0x64, 0x00, 0x89, 0x2E, 0x40, 0x00, 0x99, 0x23, 0x7F, 0x00, 0x2A, 0x7F,
  0x00, 0x27, 0x7F, 0x30, 0x89, 0x27, 0x40, 0x00, 0x2A, 0x40, 0x00, 0x23,
  0x40, 0x30, 0x99, 0x2A, 0x7F, 0x30, 0x89, 0x2A, 0x40, 0x30, 0x82, 0x26,
  0x00, 0x00, 0x92, 0x32, 0x64, 0x00, 0x99, 0x2E, 0x7F, 0x30, 0x89, 0x2E,
  0x40, 0x81, 0x10, 0x81, 0x4A, 0x00, 0x00, 0x91, 0x48, 0x64, 0x00, 0x92,
  0x32, 0x00, 0x00, 0x24, 0x64, 0x00, 0x91, 0x56, 0x00, 0x00, 0x54, 0x64,
  0x00, 0x99, 0x23, 0x7F, 0x30, 0x89, 0x23, 0x40, 0x81, 0x10, 0x82, 0x24,
  0x00, 0x00, 0x92, 0x30, 0x64, 0x00, 0x99, 0x2E, 0x7F, 0x30, 0x89, 0x2E,
  0x40, 0x81, 0x10, 0x82, 0x30, 0x00, 0x00, 0x92, 0x24, 0x64, 0x00, 0x99,
  0x23, 0x7F, 0x00, 0x2A, 0x7F, 0x00, 0x27, 0x7F, 0x30, 0x89, 0x27, 0x40,
  0x00, 0x2A, 0x40, 0x00, 0x23, 0x40, 0x81, 0x10, 0x81, 0x48, 0x00, 0x00,
  0x91, 0x43, 0x64, 0x00, 0x92, 0x24, 0x00, 0x00, 0x30, 0x64, 0x00, 0x91,
  0x54, 0x00, 0x00, 0x4F, 0x64, 0x00, 0x99, 0x2E, 0x7F, 0x30, 0x89, 0x2E,
  0x40, 0x81, 0x10, 0x82, 0x30, 0x00, 0x00, 0x92, 0x1F, 0x64, 0x00, 0x99,
  0x23, 0x7F, 0x00, 0x2A, 0x7F, 0x30, 0x89, 0x2A, 0x40, 0x00, 0x23, 0x40,
  0x81, 0x10, 0x81, 0x43, 0x00, 0x00, 0x91, 0x43, 0x64, 0x00, 0x92, 0x1F,
  0x00, 0x00, 0x2B, 0x64, 0x00, 0x91, 0x4F, 0x00, 0x00, 0x4F, 0x64, 0x00,
  0x99, 0x2E, 0x7F, 0x30, 0x89, 0x2E, 0x40, 0x60, 0x99, 0x2E, 0x7F, 0x30,
  0x91, 0x43, 0x00, 0x00, 0x4A, 0x64, 0x00, 0x92, 0x2B, 0x00, 0x00, 0x1F,
  0x64, 0x00, 0x91, 0x4F, 0x00, 0x00, 0x56, 0x64, 0x00, 0x89, 0x2E, 0x40,
  0x00, 0x99, 0x23, 0x7F, 0x00, 0x2A, 0x7F, 0x00, 0x27, 0x7F, 0x30, 0x89,
  0x27, 0x40, 0x00, 0x2A, 0x40, 0x00, 0x23, 0x40, 0x30, 0x99, 0x2A, 0x7F,
  0x30, 0x89, 0x2A, 0x40, 0x30, 0x82, 0x1F, 0x00, 0x00, 0x92, 0x2B, 0x64,
  0x00, 0x99, 0x2E, 0x7F, 0x30, 0x89, 0x2E, 0x40, 0x81, 0x10, 0x81, 0x4A,
  0x00, 0x00, 0x91, 0x48, 0x64, 0x00, 0x92, 0x2B, 0x00, 0x00, 0x24, 0x64,
  0x00, 0x91, 0x56, 0x00, 0x00, 0x54, 0x64, 0x00, 0x99, 0x23, 0x7F, 0x30,
  0x89, 0x23, 0x40, 0x81, 0x10, 0x82, 0x24, 0x00, 0x00, 0x92, 0x30, 0x64,
  0x00, 0x99, 0x2E, 0x7F, 0x30, 0x89, 0x2E, 0x40, 0x81, 0x10, 0x82, 0x30,
  0x00, 0x00, 0x92, 0x24, 0x64, 0x00, 0x99, 0x23, 0x7F, 0x00, 0x2A, 0x7F,
  0x00, 0x27, 0x7F, 0x30, 0x89, 0x27, 0x40, 0x00, 0x2A, 0x40, 0x00, 0x23,
  0x40, 0x81, 0x10, 0x82, 0x24, 0x00, 0x00, 0x92, 0x30, 0x64, 0x00, 0x99,
  0x2E, 0x7F, 0x30, 0x89, 0x2E, 0x40, 0x81, 0x10, 0xB1, 0x07, 0x00, 0x00,
  0x82, 0x30, 0x00, 0x00, 0x92, 0x24, 0x64, 0x00, 0xB1, 0x07, 0x00, 0x00,
  0x99, 0x23, 0x7F, 0x00, 0x2A, 0x7F, 0x30, 0x89, 0x2A, 0x40, 0x00, 0x23,
  0x40, 0x81, 0x10, 0x81, 0x48, 0x00, 0x00, 0xB1, 0x07, 0x7F, 0x00, 0x91,
  0x41, 0x64, 0x00, 0x92, 0x24, 0x00, 0x00, 0x1D, 0x64, 0x00, 0x91, 0x54,
  0x00, 0x00, 0x4D, 0x64, 0x00, 0xB1, 0x07, 0x7F, 0x00, 0x99, 0x2E, 0x7F,
  0x30, 0x89, 0x2E, 0x40, 0x60, 0x99, 0x2E, 0x7F, 0x30, 0x91, 0x41, 0x00,
  0x00, 0x43, 0x64, 0x00, 0x92, 0x1D, 0x00, 0x00, 0x1F, 0x64, 0x00, 0x91,
  0x4D, 0x00, 0x00, 0x4F, 0x64, 0x00, 0x89, 0x2E, 0x40, 0x00, 0x99, 0x23,
  0x7F, 0x00, 0x2A, 0x7F, 0x00, 0x27, 0x7F, 0x30, 0x89, 0x27, 0x40, 0x00,
  0x2A, 0x40, 0x00, 0x23, 0x40, 0x30, 0x99, 0x2A, 0x7F, 0x30, 0x89, 0x2A,
  0x40, 0x30, 0x81, 0x43, 0x00, 0x00, 0x91, 0x44, 0x64, 0x00, 0x92, 0x1F,
  0x00, 0x00, 0x20, 0x64, 0x00, 0x91, 0x4F, 0x00, 0x00, 0x50, 0x64, 0x00,
  0x99, 0x2E, 0x7F, 0x30, 0x89, 0x2E, 0x40, 0x81, 0x10, 0x81, 0x44, 0x00,
  0x00, 0x91, 0x45, 0x64, 0x00, 0x92, 0x20, 0x00, 0x00, 0x21, 0x64, 0x00,
  0x91, 0x50, 0x00, 0x00, 0x51, 0x64, 0x00, 0x99, 0x23, 0x7F, 0x30, 0x89,
  0x23, 0x40, 0x81, 0x10, 0x82, 0x21, 0x00, 0x00, 0x92, 0x2D, 0x64, 0x00,
  0x93, 0x56, 0x00, 0x00, 0xB3, 0x07, 0x7F, 0x00, 0x93, 0x4D, 0x64, 0x00,
  0x99, 0x2E, 0x7F, 0x30, 0x89, 0x2E, 0x40, 0x81, 0x10, 0x82, 0x2D, 0x00,
  0x00, 0x92, 0x21, 0x64, 0x00, 0x93, 0x4D, 0x00, 0x00, 0x4F, 0x64, 0x00,
  0x99, 0x23, 0x7F, 0x00, 0x2A, 0x7F, 0x00, 0x27, 0x7F, 0x30, 0x89, 0x27,
  0x40, 0x00, 0x2A, 0x40, 0x00, 0x23, 0x40, 0x30, 0x84, 0x56, 0x40, 0x00,
  0x94, 0x4D, 0x32, 0x00, 0xB4, 0x07, 0x7F, 0x60, 0x82, 0x21, 0x00, 0x00,
  0x92, 0x2D, 0x64, 0x00, 0x93, 0x4F, 0x00, 0x00, 0x50, 0x64, 0x00, 0x99,
  0x2E, 0x7F, 0x30, 0x89, 0x2E, 0x40, 0x30, 0x84, 0x4D, 0x00, 0x00, 0x94,
  0x4F, 0x32, 0x60, 0xB1, 0x07, 0x00, 0x00, 0x82, 0x2D, 0x00, 0x00, 0x92,
  0x21, 0x64, 0x00, 0x93, 0x50, 0x00, 0x00, 0x51, 0x64, 0x00, 0xB1, 0x07,
  0x00, 0x00, 0x99, 0x23, 0x7F, 0x00, 0x2A, 0x7F, 0x30, 0x89, 0x2A, 0x40,
  0x00, 0x23, 0x40, 0x30, 0x84, 0x4F, 0x00, 0x00, 0x94, 0x50, 0x32, 0x60,
  0x91, 0x45, 0x00, 0x00, 0xB1, 0x07, 0x7F, 0x00, 0x91, 0x41, 0x64, 0x00,
  0x92, 0x21, 0x00, 0x00, 0x1D, 0x64, 0x00, 0x91, 0x51, 0x00, 0x00, 0x4D,
  0x64, 0x00, 0xB1, 0x07, 0x7F, 0x00, 0x99, 0x2E, 0x7F, 0x30, 0x89, 0x2E,
  0x40, 0x30, 0x84, 0x50, 0x00, 0x00, 0x94, 0x51, 0x32, 0x30, 0x99, 0x2E,
  0x7F, 0x30, 0x91, 0x41, 0x00, 0x00, 0x43, 0x64, 0x00, 0x92, 0x1D, 0x00,
  0x00, 0x1F, 0x64, 0x00, 0x91, 0x4D, 0x00, 0x00, 0x4F, 0x64, 0x00, 0x89,
  0x2E, 0x40, 0x00, 0x99, 0x23, 0x7F, 0x00, 0x2A, 0x7F, 0x00, 0x27, 0x7F,
  0x30, 0x89, 0x27, 0x40, 0x00, 0x2A, 0x40, 0x00, 0x23, 0x40, 0x30, 0x99,
  0x2A, 0x7F, 0x30, 0x89, 0x2A, 0x40, 0x30, 0x81, 0x43, 0x00, 0x00, 0x91,
  0x45, 0x64, 0x00, 0x92, 0x1F, 0x00, 0x00, 0x21, 0x64, 0x00, 0x91, 0x4F,
  0x00, 0x00, 0x51, 0x64, 0x00, 0x99, 0x2E, 0x7F, 0x30, 0x89, 0x2E, 0x40,
  0x81, 0x10, 0x81, 0x45, 0x00, 0x00, 0x91, 0x46, 0x64, 0x00, 0x92, 0x21,
  0x00, 0x00, 0x22, 0x64, 0x00, 0xB3, 0x07, 0x00, 0x00, 0x81, 0x51, 0x00,
  0x00, 0x91, 0x52, 0x64, 0x00, 0x99, 0x23, 0x7F, 0x30, 0x89, 0x23, 0x40,
  0x81, 0x10, 0x82, 0x22, 0x00, 0x00, 0x92, 0x2E, 0x64, 0x00, 0x93, 0x51,
  0x00, 0x00, 0xB3, 0x07, 0x7F, 0x00, 0x93, 0x4D, 0x64, 0x00, 0x99, 0x2E,
  0x7F, 0x30, 0x89, 0x2E, 0x40, 0x30, 0xB4, 0x07, 0x00, 0x60, 0x82, 0x2E,
  0x00, 0x00, 0x92, 0x22, 0x64, 0x00, 0x93, 0x4D, 0x00, 0x00, 0x4F, 0x64,
  0x00, 0x99, 0x23, 0x7F, 0x00, 0x2A, 0x7F, 0x00, 0x27, 0x7F, 0x30, 0x89,
  0x27, 0x40, 0x00, 0x2A, 0x40, 0x00, 0x23, 0x40, 0x30, 0x84, 0x51, 0x40,
  0x00, 0x94, 0x4D, 0x32, 0x00, 0xB4, 0x07, 0x7F, 0x60, 0x82, 0x22, 0x00,
  0x00, 0x92, 0x2E, 0x64, 0x00, 0x93, 0x4F, 0x00, 0x00, 0x51, 0x64, 0x00,
  0x99, 0x2E, 0x7F, 0x30, 0x89, 0x2E, 0x40, 0x30, 0x84, 0x4D, 0x00, 0x00,
  0x94, 0x4F, 0x32, 0x60, 0xB1, 0x07, 0x00, 0x00, 0x82, 0x2E, 0x00, 0x00,
  0x92, 0x22, 0x64, 0x00, 0x93, 0x51, 0x00, 0x00, 0x52, 0x64, 0x00, 0xB1,
  0x07, 0x00, 0x00, 0x99, 0x23, 0x7F, 0x00, 0x2A, 0x7F, 0x30, 0x89, 0x2A,
  0x40, 0x00, 0x23, 0x40, 0x30, 0x84, 0x4F, 0x00, 0x00, 0x94, 0x51, 0x32,
  0x60, 0x91, 0x46, 0x00, 0x00, 0xB1, 0x07, 0x7F, 0x00, 0x91, 0x41, 0x64,
  0x00, 0x92, 0x22, 0x00, 0x00, 0x1D, 0x64, 0x00, 0x91, 0x52, 0x00, 0x00,
  0x4D, 0x64, 0x00, 0xB1, 0x07, 0x7F, 0x00, 0x99, 0x2E, 0x7F, 0x30, 0x89,
  0x2E, 0x40, 0x30, 0x84, 0x51, 0x00, 0x00, 0x94, 0x52, 0x32, 0x30, 0x99,
  0x2E, 0x7F, 0x30, 0x91, 0x41, 0x00, 0x00, 0x43, 0x64, 0x00, 0x92, 0x1D,
  0x00, 0x00, 0x1F, 0x64, 0x00, 0x91, 0x4D, 0x00, 0x00, 0x4F, 0x64, 0x00,
  0x89, 0x2E, 0x40, 0x00, 0x99, 0x23, 0x7F, 0x00, 0x2A, 0x7F, 0x00, 0x27,
  0x7F, 0x30, 0x89, 0x27, 0x40, 0x00, 0x2A, 0x40, 0x00, 0x23, 0x40, 0x30,
  0x99, 0x2A, 0x7F, 0x30, 0x89, 0x2A, 0x40, 0x30, 0x81, 0x43, 0x00, 0x00,
  0x91, 0x45, 0x64, 0x00, 0x92, 0x1F, 0x00, 0x00, 0x20, 0x64, 0x00, 0x91,
  0x4F, 0x00, 0x00, 0x51, 0x64, 0x00, 0x99, 0x2E, 0x7F, 0x30, 0x89, 0x2E,
  0x40, 0x81, 0x10, 0x81, 0x45, 0x00, 0x00, 0x91, 0x48, 0x64, 0x00, 0x92,
  0x20, 0x00, 0x00, 0x21, 0x64, 0x00, 0xB3, 0x07, 0x00, 0x00, 0x81, 0x51,
  0x00, 0x00, 0x91, 0x54, 0x64, 0x00, 0x99, 0x23, 0x7F, 0x30, 0x89, 0x23,
  0x40, 0x81, 0x10, 0x82, 0x21, 0x00, 0x00, 0x92, 0x2D, 0x64, 0x00, 0x93,
  0x52, 0x00, 0x00, 0xB3, 0x07, 0x7F, 0x00, 0x93, 0x4D, 0x64, 0x00, 0x99,
  0x2E, 0x7F, 0x30, 0x89, 0x2E, 0x40, 0x30, 0xB4, 0x07, 0x00, 0x60, 0x82,
  0x2D, 0x00, 0x00, 0x92, 0x21, 0x64, 0x00, 0x93, 0x4D, 0x00, 0x00, 0x4F,
  0x64, 0x00, 0x99, 0x23, 0x7F, 0x00, 0x2A, 0x7F, 0x00, 0x27, 0x7F, 0x30,
  0x89, 0x27, 0x40, 0x00, 0x2A, 0x40, 0x00, 0x23, 0x40, 0x30, 0x84, 0x52,
  0x40, 0x00, 0x94, 0x4D, 0x32, 0x00, 0xB4, 0x07, 0x7F, 0x60, 0x82, 0x21,
  0x00, 0x00, 0x92, 0x2D, 0x64, 0x00, 0x93, 0x4F, 0x00, 0x00, 0x51, 0x64,
  0x00, 0x99, 0x2E, 0x7F, 0x30, 0x89, 0x2E, 0x40, 0x30, 0x84, 0x4D, 0x00,
  0x00, 0x94, 0x4F, 0x32, 0x60, 0xB1, 0x07, 0x00, 0x00, 0x82, 0x2D, 0x00,
  0x00, 0x92, 0x21, 0x64, 0x00, 0x93, 0x51, 0x00, 0x00, 0x54, 0x64, 0x00,
  0xB1, 0x07, 0x00, 0x00, 0x99, 0x23, 0x7F, 0x00, 0x2A, 0x7F, 0x30, 0x89,
  0x2A, 0x40, 0x00, 0x23, 0x40, 0x30, 0x84, 0x4F, 0x00, 0x00, 0x94, 0x51,
  0x32, 0x60, 0x91, 0x48, 0x00, 0x00, 0xB1, 0x07, 0x7F, 0x00, 0x91, 0x41,
  0x64, 0x00, 0x92, 0x21, 0x00, 0x00, 0x1D, 0x64, 0x00, 0x91, 0x54, 0x00,
  0x00, 0x4D, 0x64, 0x00, 0xB1, 0x07, 0x7F, 0x00, 0x99, 0x2E, 0x7F, 0x30,
  0x89, 0x2E, 0x40, 0x30, 0x84, 0x51, 0x00, 0x00, 0x94, 0x54, 0x32, 0x30,
  0x99, 0x2E, 0x7F, 0x30, 0x91, 0x41, 0x00, 0x00, 0x43, 0x64, 0x00, 0x92,
  0x1D, 0x00, 0x00, 0x1F, 0x64, 0x00, 0x91, 0x4D, 0x00, 0x00, 0x4F, 0x64,
  0x00, 0x89, 0x2E, 0x40, 0x00, 0x99, 0x23, 0x7F, 0x00, 0x2A, 0x7F, 0x00,
  0x27, 0x7F, 0x30, 0x89, 0x27, 0x40, 0x00, 0x2A, 0x40, 0x00, 0x23, 0x40,
  0x30, 0x99, 0x2A, 0x7F, 0x30, 0x89, 0x2A, 0x40, 0x30, 0x81, 0x43, 0x00,
  0x00, 0x91, 0x45, 0x64, 0x00, 0x92, 0x1F, 0x00, 0x00, 0x21, 0x64, 0x00,
  0x91, 0x4F, 0x00, 0x00, 0x51, 0x64, 0x00, 0x99, 0x2E, 0x7F, 0x30, 0x89,
  0x2E, 0x40, 0x81, 0x10, 0x81, 0x45, 0x00, 0x00, 0x91, 0x4A, 0x64, 0x00,
  0x92, 0x21, 0x00, 0x00, 0x22, 0x64, 0x00, 0xB3, 0x07, 0x00, 0x00, 0x81,
  0x51, 0x00, 0x00, 0x91, 0x56, 0x64, 0x00, 0x99, 0x23, 0x7F, 0x30, 0x89,
  0x23, 0x40, 0x81, 0x10, 0x82, 0x22, 0x00, 0x00, 0x92, 0x2E, 0x64, 0x00,
  0x93, 0x54, 0x00, 0x00, 0xB3, 0x07, 0x7F, 0x00, 0x93, 0x4D, 0x64, 0x00,
  0x99, 0x2E, 0x7F, 0x30, 0x89, 0x2E, 0x40, 0x30, 0xB4, 0x07, 0x00, 0x60,
  0x82, 0x2E, 0x00, 0x00, 0x92, 0x22, 0x64, 0x00, 0x93, 0x4D, 0x00, 0x00,
  0x4F, 0x64, 0x00, 0x99, 0x23, 0x7F, 0x00, 0x2A, 0x7F, 0x00, 0x27, 0x7F,
  0x30, 0x89, 0x27, 0x40, 0x00, 0x2A, 0x40, 0x00, 0x23, 0x40, 0x30, 0x84,
  0x54, 0x40, 0x00, 0x94, 0x4D, 0x32, 0x00, 0xB4, 0x07, 0x7F, 0x60, 0x82,
  0x22, 0x00, 0x00, 0x92, 0x2E, 0x64, 0x00, 0x93, 0x4F, 0x00, 0x00, 0x51,
  0x64, 0x00, 0x99, 0x2E, 0x7F, 0x30, 0x89, 0x2E, 0x40, 0x30, 0x84, 0x4D,
  0x00, 0x00, 0x94, 0x4F, 0x32, 0x60, 0xB1, 0x07, 0x00, 0x00, 0x82, 0x2E,
  0x00, 0x00, 0x92, 0x22, 0x64, 0x00, 0x93, 0x51, 0x00, 0x00, 0x56, 0x64,
  0x00, 0xB1, 0x07, 0x00, 0x00, 0x99, 0x23, 0x7F, 0x00, 0x2A, 0x7F, 0x30,
  0x89, 0x2A, 0x40, 0x00, 0x23, 0x40, 0x30, 0x84, 0x4F, 0x00, 0x00, 0x94,
  0x51, 0x32, 0x60, 0x91, 0x4A, 0x00, 0x00, 0xB1, 0x07, 0x7F, 0x00, 0x91,
  0x46, 0x64, 0x00, 0x92, 0x22, 0x00, 0x00, 0x22, 0x64, 0x00, 0x91, 0x56,
  0x00, 0x00, 0x52, 0x64, 0x00, 0xB1, 0x07, 0x7F, 0x00, 0x99, 0x2E, 0x7F,
  0x30, 0x89, 0x2E, 0x40, 0x30, 0x84, 0x51, 0x00, 0x00, 0x94, 0x56, 0x32,
  0x30, 0x99, 0x2E, 0x7F, 0x30, 0x91, 0x46, 0x00, 0x00, 0x48, 0x64, 0x00,
  0x92, 0x22, 0x00, 0x00, 0x24, 0x64, 0x00, 0x91, 0x52, 0x00, 0x00, 0x54,
  0x64, 0x00, 0x89, 0x2E, 0x40, 0x00, 0x99, 0x23, 0x7F, 0x00, 0x2A, 0x7F,
  0x00, 0x27, 0x7F, 0x30, 0x89, 0x27, 0x40, 0x00, 0x2A, 0x40, 0x00, 0x23,
  0x40, 0x30, 0x99, 0x2A, 0x7F, 0x30, 0x89, 0x2A, 0x40, 0x30, 0x81, 0x48,
  0x00, 0x00, 0x91, 0x4A, 0x64, 0x00, 0x92, 0x24, 0x00, 0x00, 0x26, 0x64,
  0x00, 0x91, 0x54, 0x00, 0x00, 0x56, 0x64, 0x00, 0x99, 0x2E, 0x7F, 0x30,
  0x89, 0x2E, 0x40, 0x81, 0x10, 0x81, 0x4A, 0x00, 0x00, 0x91, 0x4B, 0x64,
  0x00, 0x92, 0x26, 0x00, 0x00, 0x27, 0x64, 0x00, 0xB3, 0x07, 0x00, 0x00,
  0x81, 0x56, 0x00, 0x00, 0x91, 0x57, 0x64, 0x00, 0x99, 0x23, 0x7F, 0x30,
  0x89, 0x23, 0x40, 0x81, 0x10, 0x81, 0x4B, 0x00, 0x00, 0x91, 0x4B, 0x64,
  0x00, 0x92, 0x27, 0x00, 0x00, 0x33, 0x64, 0x00, 0x91, 0x57, 0x00, 0x00,
  0x57, 0x64, 0x00, 0x99, 0x2E, 0x7F, 0x30, 0x89, 0x2E, 0x40, 0x30, 0xB4,
  0x07, 0x00, 0x60, 0x82, 0x33, 0x00, 0x00, 0x92, 0x27, 0x64, 0x00, 0x99,
  0x23, 0x7F, 0x00, 0x2A, 0x7F, 0x00, 0x27, 0x7F, 0x30, 0x89, 0x27, 0x40,
  0x00, 0x2A, 0x40, 0x00, 0x23, 0x40, 0x81, 0x10, 0x81, 0x4B, 0x00, 0x00,
  0x91, 0x4B, 0x64, 0x00, 0x92, 0x27, 0x00, 0x00, 0x33, 0x64, 0x00, 0x91,
  0x57, 0x00, 0x00, 0x57, 0x64, 0x00, 0x99, 0x2E, 0x7F, 0x30, 0x89, 0x2E,
  0x40, 0x81, 0x10, 0x82, 0x33, 0x00, 0x00, 0x92, 0x27, 0x64, 0x00, 0x99,
  0x23, 0x7F, 0x00, 0x2A, 0x7F, 0x30, 0x89, 0x2A, 0x40, 0x00, 0x23, 0x40,
  0x81, 0x10, 0x81, 0x4B, 0x00, 0x00, 0x91, 0x4A, 0x64, 0x00, 0x92, 0x27,
  0x00, 0x00, 0x33, 0x64, 0x00, 0x91, 0x57, 0x00, 0x00, 0x56, 0x64, 0x00,
  0x99, 0x2E, 0x7F, 0x30, 0x89, 0x2E, 0x40, 0x60, 0x99, 0x2E, 0x7F, 0x30,
  0x91, 0x4A, 0x00, 0x00, 0x48, 0x64, 0x00, 0x92, 0x33, 0x00, 0x00, 0x27,
  0x64, 0x00, 0x91, 0x56, 0x00, 0x00, 0x54, 0x64, 0x00, 0x89, 0x2E, 0x40,
  0x00, 0x99, 0x23, 0x7F, 0x00, 0x2A, 0x7F, 0x00, 0x27, 0x7F, 0x30, 0x89,
  0x27, 0x40, 0x00, 0x2A, 0x40, 0x00, 0x23, 0x40, 0x30, 0x99, 0x2A, 0x7F,
  0x30, 0x89, 0x2A, 0x40, 0x30, 0x82, 0x27, 0x00, 0x00, 0x92, 0x33, 0x64,
  0x00, 0x99, 0x2E, 0x7F, 0x30, 0x89, 0x2E, 0x40, 0x81, 0x10, 0x81, 0x48,
  0x00, 0x00, 0x91, 0x4A, 0x64, 0x00, 0x92, 0x33, 0x00, 0x00, 0x26, 0x64,
  0x00, 0x91, 0x54, 0x00, 0x00, 0x56, 0x64, 0x00, 0x99, 0x23, 0x7F, 0x30,
  0x89, 0x23, 0x40, 0x81, 0x10, 0x82, 0x26, 0x00, 0x00, 0x92, 0x32, 0x64,
  0x00, 0x99, 0x2E, 0x7F, 0x30, 0x89, 0x2E, 0x40, 0x81, 0x10, 0x82, 0x32,
  0x00, 0x00, 0x92, 0x26, 0x64, 0x00, 0x99, 0x23, 0x7F, 0x00, 0x2A, 0x7F,
  0x00, 0x27, 0x7F, 0x30, 0x89, 0x27, 0x40, 0x00, 0x2A, 0x40, 0x00, 0x23,
  0x40, 0x81, 0x10, 0x82, 0x26, 0x00, 0x00, 0x92, 0x32, 0x64, 0x00, 0x99,
  0x2E, 0x7F, 0x30, 0x89, 0x2E, 0x40, 0x81, 0x10, 0x82, 0x32, 0x00, 0x00,
  0x92, 0x26, 0x64, 0x00, 0x99, 0x23, 0x7F, 0x00, 0x2A, 0x7F, 0x30, 0x89,
  0x2A, 0x40, 0x00, 0x23, 0x40, 0x81, 0x10, 0x82, 0x26, 0x00, 0x00, 0x92,
  0x32, 0x64, 0x00, 0x99, 0x2E, 0x7F, 0x30, 0x89, 0x2E, 0x40, 0x60, 0x99,
  0x2E, 0x7F, 0x30, 0x91, 0x4A, 0x00, 0x00, 0x4A, 0x64, 0x00, 0x92, 0x32,
  0x00, 0x00, 0x26, 0x64, 0x00, 0x91, 0x56, 0x00, 0x00, 0x56, 0x64, 0x00,
  0x89, 0x2E, 0x40, 0x00, 0x99, 0x23, 0x7F, 0x00, 0x2A, 0x7F, 0x00, 0x27,
  0x7F, 0x30, 0x89, 0x27, 0x40, 0x00, 0x2A, 0x40, 0x00, 0x23, 0x40, 0x30,
  0x99, 0x2A, 0x7F, 0x30, 0x89, 0x2A, 0x40, 0x30, 0x82, 0x26, 0x00, 0x00,
  0x92, 0x32, 0x64, 0x00, 0x99, 0x2E, 0x7F, 0x30, 0x89, 0x2E, 0x40, 0x81,
  0x10, 0x81, 0x4A, 0x00, 0x00, 0x91, 0x48, 0x64, 0x00, 0x92, 0x32, 0x00,
  0x00, 0x24, 0x64, 0x00, 0x91, 0x56, 0x00, 0x00, 0x54, 0x64, 0x00, 0x99,
  0x23, 0x7F, 0x30, 0x89, 0x23, 0x40, 0x81, 0x10, 0x82, 0x24, 0x00, 0x00,
  0x92, 0x30, 0x64, 0x00, 0x99, 0x2E, 0x7F, 0x30, 0x89, 0x2E, 0x40, 0x81,
  0x10, 0x82, 0x30, 0x00, 0x00, 0x92, 0x24, 0x64, 0x00, 0x99, 0x23, 0x7F,
  0x00, 0x2A, 0x7F, 0x00, 0x27, 0x7F, 0x30, 0x89, 0x27, 0x40, 0x00, 0x2A,
  0x40, 0x00, 0x23, 0x40, 0x81, 0x10, 0x81, 0x48, 0x00, 0x00, 0x91, 0x41,
  0x64, 0x00, 0x92, 0x24, 0x00, 0x00, 0x30, 0x64, 0x00, 0x91, 0x54, 0x00,
  0x00, 0x4D, 0x64, 0x00, 0x99, 0x2E, 0x7F, 0x30, 0x89, 0x2E, 0x40, 0x81,
  0x10, 0x82, 0x30, 0x00, 0x00, 0x92, 0x1D, 0x64, 0x00, 0x99, 0x23, 0x7F,
  0x00, 0x2A, 0x7F, 0x30, 0x89, 0x2A, 0x40, 0x00, 0x23, 0x40, 0x81, 0x10,
  0x81, 0x41, 0x00, 0x00, 0x91, 0x4A, 0x64, 0x00, 0x92, 0x1D, 0x00, 0x00,
  0x24, 0x64, 0x00, 0x91, 0x4D, 0x00, 0x00, 0x56, 0x64, 0x00, 0x99, 0x2E,
  0x7F, 0x30, 0x89, 0x2E, 0x40, 0x60, 0x99, 0x2E, 0x7F, 0x30, 0x91, 0x4A,
  0x00, 0x00, 0x41, 0x64, 0x00, 0x92, 0x24, 0x00, 0x00, 0x1D, 0x64, 0x00,
  0x91, 0x56, 0x00, 0x00, 0x4D, 0x64, 0x00, 0x89, 0x2E, 0x40, 0x00, 0x99,
  0x23, 0x7F, 0x00, 0x2A, 0x7F, 0x00, 0x27, 0x7F, 0x30, 0x89, 0x27, 0x40,
  0x00, 0x2A, 0x40, 0x00, 0x23, 0x40, 0x30, 0x99, 0x2A, 0x7F, 0x30, 0x89,
  0x2A, 0x40, 0x30, 0x81, 0x41, 0x00, 0x00, 0x91, 0x4A, 0x64, 0x00, 0x92,
  0x1D, 0x00, 0x00, 0x24, 0x64, 0x00, 0x91, 0x4D, 0x00, 0x00, 0x56, 0x64,
  0x00, 0x99, 0x2E, 0x7F, 0x30, 0x89, 0x2E, 0x40, 0x81, 0x10, 0x81, 0x4A,
  0x00, 0x00, 0x91, 0x46, 0x64, 0x00, 0x92, 0x24, 0x00, 0x00, 0x22, 0x64,
  0x00, 0x91, 0x56, 0x00, 0x00, 0x52, 0x64, 0x00, 0x99, 0x23, 0x7F, 0x30,
  0x89, 0x23, 0x40, 0x81, 0x10, 0x99, 0x2E, 0x7F, 0x30, 0x89, 0x2E, 0x40,
  0x81, 0x10, 0x99, 0x23, 0x7F, 0x00, 0x2A, 0x7F, 0x00, 0x27, 0x7F, 0x30,
  0x89, 0x27, 0x40, 0x00, 0x2A, 0x40, 0x00, 0x23, 0x40, 0x81, 0x10, 0x99,
  0x2E, 0x7F, 0x30, 0x89, 0x2E, 0x40, 0x81, 0x10, 0xB1, 0x07, 0x00, 0x00,
  0xB2, 0x07, 0x00, 0x00, 0xB1, 0x07, 0x00, 0x00, 0x99, 0x23, 0x7F, 0x00,
  0x2A, 0x7F, 0x30, 0x89, 0x2A, 0x40, 0x00, 0x23, 0x40, 0x81, 0x10, 0x81,
  0x46, 0x00, 0x00, 0xB1, 0x07, 0x7F, 0x00, 0x91, 0x41, 0x64, 0x00, 0x92,
  0x22, 0x00, 0x00, 0xB2, 0x07, 0x7F, 0x00, 0x92, 0x1D, 0x64, 0x00, 0x91,
  0x52, 0x00, 0x00, 0x4D, 0x64, 0x00, 0xB1, 0x07, 0x7F, 0x00, 0x99, 0x2E,
  0x7F, 0x30, 0x89, 0x2E, 0x40, 0x60, 0x99, 0x2E, 0x7F, 0x30, 0x91, 0x41,
  0x00, 0x00, 0x43, 0x64, 0x00, 0x92, 0x1D, 0x00, 0x00, 0x1F, 0x64, 0x00,
  0x91, 0x4D, 0x00, 0x00, 0x4F, 0x64, 0x00, 0x89, 0x2E, 0x40, 0x00, 0x99,
  0x23, 0x7F, 0x00, 0x2A, 0x7F, 0x00, 0x27, 0x7F, 0x30, 0x89, 0x27, 0x40,
  0x00, 0x2A, 0x40, 0x00, 0x23, 0x40, 0x30, 0x99, 0x2A, 0x7F, 0x30, 0x89,
  0x2A, 0x40, 0x30, 0x81, 0x43, 0x00, 0x00, 0x91, 0x45, 0x64, 0x00, 0x92,
  0x1F, 0x00, 0x00, 0x21, 0x64, 0x00, 0x91, 0x4F, 0x00, 0x00, 0x51, 0x64,
  0x00, 0x99, 0x2E, 0x7F, 0x30, 0x89, 0x2E, 0x40, 0x81, 0x10, 0x81, 0x45,
  0x00, 0x00, 0x82, 0x21, 0x00, 0x00, 0x92, 0x22, 0x64, 0x00, 0x93, 0x56,
  0x00, 0x00, 0x91, 0x51, 0x00, 0x00, 0x84, 0x56, 0x40, 0x81, 0x40, 0x82,
  0x22, 0x00, 0x00, 0x92, 0x2E, 0x64, 0x81, 0x40, 0x2E, 0x00, 0x00, 0x22,
  0x64, 0x81, 0x40, 0x22, 0x00, 0x00, 0x2E, 0x64, 0x81, 0x40, 0x2E, 0x00,
  0x00, 0x22, 0x64, 0x81, 0x40, 0x22, 0x00, 0x00, 0x2E, 0x64, 0x81, 0x40,
  0x2E, 0x00, 0x00, 0x22, 0x64, 0x81, 0x40, 0x22, 0x00, 0x00, 0x2E, 0x64,
  0x81, 0x40, 0x2E, 0x00, 0x00, 0x22, 0x64, 0x81, 0x40, 0x22, 0x00, 0x00,
  0x2E, 0x64, 0x81, 0x40, 0x2E, 0x00, 0x00, 0x22, 0x64, 0x81, 0x40, 0x22,
  0x00, 0x00, 0x2E, 0x64, 0x81, 0x40, 0x2E, 0x00, 0x00, 0x22, 0x64, 0x81,
  0x40, 0x22, 0x00, 0x00, 0x2E, 0x64, 0x81, 0x40, 0x2E, 0x00, 0x00, 0x22,
  0x64, 0x81, 0x40, 0x22, 0x00, 0x00, 0x2E, 0x64, 0x81, 0x40, 0x2E, 0x00,
  0x00, 0x1F, 0x64, 0x81, 0x40, 0x1F, 0x00, 0x00, 0x2B, 0x64, 0x81, 0x40,
  0x2B, 0x00, 0x00, 0x1F, 0x64, 0x81, 0x40, 0x1F, 0x00, 0x00, 0x2B, 0x64,
  0x81, 0x40, 0x2B, 0x00, 0x00, 0x1F, 0x64, 0x81, 0x40, 0x1F, 0x00, 0x00,
  0x2B, 0x64, 0x81, 0x40, 0x2B, 0x00, 0x00, 0x1F, 0x64, 0x81, 0x40, 0x1F,
  0x00, 0x00, 0x2B, 0x64, 0x81, 0x40, 0x2B, 0x00, 0x00, 0x1F, 0x64, 0x81,
  0x40, 0x1F, 0x00, 0x00, 0x2B, 0x64, 0x81, 0x40, 0x2B, 0x00, 0x00, 0x1F,
  0x64, 0x81, 0x40, 0x1F, 0x00, 0x00, 0x2B, 0x64, 0x81, 0x40, 0x2B, 0x00,
  0x00, 0x1F, 0x64, 0x81, 0x40, 0x1F, 0x00, 0x00, 0x2B, 0x64, 0x81, 0x40,
  0x2B, 0x00, 0x00, 0x1F, 0x64, 0x81, 0x40, 0x1F, 0x00, 0x00, 0x2B, 0x64,
  0x81, 0x40, 0x2B, 0x00, 0x00, 0x22, 0x64, 0x81, 0x40, 0x22, 0x00, 0x00,
  0x2E, 0x64, 0x81, 0x40, 0x2E, 0x00, 0x00, 0x22, 0x64, 0x81, 0x40, 0x22,
  0x00, 0x00, 0x2E, 0x64, 0x81, 0x40, 0x2E, 0x00, 0x00, 0x22, 0x64, 0x81,
  0x40, 0x22, 0x00, 0x00, 0x2E, 0x64, 0x81, 0x40, 0x2E, 0x00, 0x00, 0x22,
  0x64, 0x81, 0x40, 0x22, 0x00, 0x00, 0x2E, 0x64, 0x81, 0x40, 0x2E, 0x00,
  0x00, 0x22, 0x64, 0x81, 0x40, 0x22, 0x00, 0x00, 0x2E, 0x64, 0x81, 0x40,
  0x2E, 0x00, 0x00, 0x22, 0x64, 0x81, 0x40, 0x22, 0x00, 0x00, 0x2E, 0x64,
  0x81, 0x40, 0x2E, 0x00, 0x00, 0x22, 0x64, 0x81, 0x40, 0x22, 0x00, 0x00,
  0x2E, 0x64, 0x81, 0x40, 0x2E, 0x00, 0x00, 0x22, 0x64, 0x81, 0x40, 0x22,
  0x00, 0x00, 0x2E, 0x64, 0x81, 0x40, 0x2E, 0x00, 0x00, 0x1F, 0x64, 0x81,
  0x40, 0x1F, 0x00, 0x00, 0x2B, 0x64, 0x81, 0x40, 0x2B, 0x00, 0x00, 0x1F,
  0x64, 0x81, 0x40, 0x1F, 0x00, 0x00, 0x2B, 0x64, 0x81, 0x40, 0x2B, 0x00,
  0x00, 0x1F, 0x64, 0x81, 0x40, 0x1F, 0x00, 0x00, 0x2B, 0x64, 0x81, 0x40,
  0x2B, 0x00, 0x00, 0x1F, 0x64, 0x81, 0x40, 0x1F, 0x00, 0x00, 0x2B, 0x64,
  0x81, 0x40, 0x2B, 0x00, 0x00, 0x1F, 0x64, 0x81, 0x40, 0x1F, 0x00, 0x00,
  0x2B, 0x64, 0x81, 0x40, 0x2B, 0x00, 0x00, 0x1F, 0x64, 0x81, 0x40, 0x1F,
  0x00, 0x00, 0x2B, 0x64, 0x81, 0x40, 0x2B, 0x00, 0x00, 0x22, 0x64, 0x81,
  0x40, 0x22, 0x00, 0x00, 0x1D, 0x64, 0x81, 0x40, 0x1D, 0x00, 0x00, 0x1F,
  0x64, 0x81, 0x40, 0x1F, 0x00, 0x00, 0x20, 0x64, 0x81, 0x40, 0x91, 0x46,
  0x64, 0x00, 0x92, 0x20, 0x00, 0x00, 0x22, 0x64, 0x00, 0x91, 0x52, 0x64,
  0x00, 0xB1, 0x07, 0x7F, 0x81, 0x40, 0x81, 0x46, 0x00, 0x00, 0x91, 0x45,
  0x64, 0x00, 0x92, 0x22, 0x00, 0x00, 0x2E, 0x64, 0x00, 0xB3, 0x07, 0x7F,
  0x00, 0x81, 0x52, 0x00, 0x00, 0x91, 0x51, 0x64, 0x81, 0x40, 0x45, 0x00,
  0x00, 0x43, 0x64, 0x00, 0x92, 0x2E, 0x00, 0x00, 0x22, 0x64, 0x00, 0x91,
  0x51, 0x00, 0x00, 0x4F, 0x64, 0x81, 0x40, 0x92, 0x22, 0x00, 0x00, 0x2E,
  0x64, 0x60, 0x91, 0x43, 0x00, 0x00, 0x41, 0x64, 0x00, 0x4F, 0x00, 0x00,
  0x4D, 0x64, 0x60, 0x41, 0x00, 0x00, 0x45, 0x64, 0x00, 0x92, 0x2E, 0x00,
  0x00, 0x22, 0x64, 0x00, 0x91, 0x4D, 0x00, 0x00, 0x51, 0x64, 0x81, 0x40,
  0x45, 0x00, 0x00, 0x43, 0x64, 0x00, 0x92, 0x22, 0x00, 0x00, 0x2E, 0x64,
  0x00, 0x91, 0x51, 0x00, 0x00, 0x4F, 0x64, 0x81, 0x40, 0x43, 0x00, 0x00,
  0x41, 0x64, 0x00, 0x92, 0x2E, 0x00, 0x00, 0x22, 0x64, 0x00, 0x91, 0x4F,
  0x00, 0x00, 0x4D, 0x64, 0x81, 0x40, 0x41, 0x00, 0x00, 0x3F, 0x64, 0x00,
  0x92, 0x22, 0x00, 0x00, 0x2E, 0x64, 0x00, 0x91, 0x4D, 0x00, 0x00, 0x4B,
  0x64, 0x81, 0x40, 0x3F, 0x00, 0x00, 0x43, 0x64, 0x00, 0x92, 0x2E, 0x00,
  0x00, 0x22, 0x64, 0x00, 0x91, 0x4B, 0x00, 0x00, 0x4F, 0x64, 0x81, 0x40,
  0x43, 0x00, 0x00, 0x41, 0x64, 0x00, 0x92, 0x22, 0x00, 0x00, 0x2E, 0x64,
  0x00, 0x91, 0x4F, 0x00, 0x00, 0x4D, 0x64, 0x81, 0x40, 0x41, 0x00, 0x00,
  0x3F, 0x64, 0x00, 0x92, 0x2E, 0x00, 0x00, 0x22, 0x64, 0x00, 0x91, 0x4D,
  0x00, 0x00, 0x4B, 0x64, 0x60, 0x3F, 0x00, 0x00, 0x3E, 0x64, 0x00, 0x4B,
  0x00, 0x00, 0x4A, 0x64, 0x60, 0x92, 0x22, 0x00, 0x00, 0x2E, 0x64, 0x81,
  0x40, 0x91, 0x3E, 0x00, 0x00, 0x41, 0x64, 0x00, 0x92, 0x2E, 0x00, 0x00,
  0x22, 0x64, 0x00, 0x91, 0x4A, 0x00, 0x00, 0x4D, 0x64, 0x81, 0x40, 0x92,
  0x22, 0x00, 0x00, 0x2E, 0x64, 0x81, 0x40, 0x2E, 0x00, 0x00, 0x22, 0x64,
  0x81, 0x40, 0x91, 0x41, 0x00, 0x00, 0x3E, 0x64, 0x00, 0x92, 0x22, 0x00,
  0x00, 0x2E, 0x64, 0x00, 0x91, 0x4D, 0x00, 0x00, 0x4A, 0x64, 0x60, 0x3E,
  0x00, 0x00, 0x3C, 0x64, 0x00, 0x4A, 0x00, 0x00, 0x48, 0x64, 0x60, 0x3C,
  0x00, 0x00, 0x3A, 0x64, 0x00, 0x92, 0x2E, 0x00, 0x00, 0x1F, 0x64, 0x00,
  0x91, 0x48, 0x00, 0x00, 0x46, 0x64, 0x81, 0x40, 0x3A, 0x00, 0x00, 0x3C,
  0x64, 0x00, 0x92, 0x1F, 0x00, 0x00, 0x2B, 0x64, 0x00, 0x91, 0x46, 0x00,
  0x00, 0x48, 0x64, 0x81, 0x40, 0x3C, 0x00, 0x00, 0x3E, 0x64, 0x00, 0x92,
  0x2B, 0x00, 0x00, 0x1F, 0x64, 0x00, 0x91, 0x48, 0x00, 0x00, 0x4A, 0x64,
  0x81, 0x40, 0x3E, 0x00, 0x00, 0x3F, 0x64, 0x00, 0x92, 0x1F, 0x00, 0x00,
  0x2B, 0x64, 0x00, 0x91, 0x4A, 0x00, 0x00, 0x4B, 0x64, 0x81, 0x40, 0x3F,
  0x00, 0x00, 0x3C, 0x64, 0x00, 0x92, 0x2B, 0x00, 0x00, 0x1F, 0x64, 0x00,
  0x91, 0x4B, 0x00, 0x00, 0x48, 0x64, 0x81, 0x40, 0x3C, 0x00, 0x00, 0x3E,
  0x64, 0x00, 0x92, 0x1F, 0x00, 0x00, 0x2B, 0x64, 0x00, 0x91, 0x48, 0x00,
  0x00, 0x4A, 0x64, 0x60, 0x3E, 0x00, 0x00, 0x3F, 0x64, 0x00, 0x4A, 0x00,
  0x00, 0x4B, 0x64, 0x60, 0x92, 0x2B, 0x00, 0x00, 0x1F, 0x64, 0x81, 0x40,
  0x91, 0x3F, 0x00, 0x00, 0x41, 0x64, 0x00, 0x92, 0x1F, 0x00, 0x00, 0x2B,
  0x64, 0x00, 0x91, 0x4B, 0x00, 0x00, 0x4D, 0x64, 0x81, 0x40, 0x41, 0x00,
  0x00, 0x41, 0x64, 0x00, 0x92, 0x2B, 0x00, 0x00, 0x1F, 0x64, 0x00, 0x91,
  0x4D, 0x00, 0x00, 0x4D, 0x64, 0x81, 0x40, 0x41, 0x00, 0x00, 0x43, 0x64,
  0x00, 0x92, 0x1F, 0x00, 0x00, 0x2B, 0x64, 0x00, 0x91, 0x4D, 0x00, 0x00,
  0x4F, 0x64, 0x81, 0x40, 0x43, 0x00, 0x00, 0x45, 0x64, 0x00, 0x92, 0x2B,
  0x00, 0x00, 0x1F, 0x64, 0x00, 0x91, 0x4F, 0x00, 0x00, 0x51, 0x64, 0x60,
  0x45, 0x00, 0x00, 0x43, 0x64, 0x00, 0x51, 0x00, 0x00, 0x4F, 0x64, 0x60,
  0x92, 0x1F, 0x00, 0x00, 0x2B, 0x64, 0x81, 0x40, 0x91, 0x43, 0x00, 0x00,
  0x41, 0x64, 0x00, 0x92, 0x2B, 0x00, 0x00, 0x1F, 0x64, 0x00, 0x91, 0x4F,
  0x00, 0x00, 0x4D, 0x64, 0x81, 0x40, 0x41, 0x00, 0x00, 0x41, 0x64, 0x00,
  0x92, 0x1F, 0x00, 0x00, 0x2B, 0x64, 0x00, 0x91, 0x4D, 0x00, 0x00, 0x4D,
  0x64, 0x81, 0x40, 0x41, 0x00, 0x00, 0x43, 0x64, 0x00, 0x92, 0x2B, 0x00,
  0x00, 0x1F, 0x64, 0x00, 0x91, 0x4D, 0x00, 0x00, 0x4F, 0x64, 0x81, 0x40,
  0x43, 0x00, 0x00, 0x45, 0x64, 0x00, 0x92, 0x1F, 0x00, 0x00, 0x2B, 0x64,
  0x00, 0x91, 0x4F, 0x00, 0x00, 0x51, 0x64, 0x81, 0x40, 0x45, 0x00, 0x00,
  0x46, 0x64, 0x00, 0x92, 0x2B, 0x00, 0x00, 0x22, 0x64, 0x00, 0x91, 0x51,
  0x00, 0x00, 0x52, 0x64, 0x00, 0x99, 0x2A, 0x7F, 0x00, 0xFF, 0x7F, 0x05,
  0x05, 0x0F, 0x01, 0x01, 0x03, 0x30, 0x89, 0x2A, 0x40, 0x81, 0x10, 0x81,
  0x46, 0x00, 0x00, 0x91, 0x45, 0x64, 0x00, 0x92, 0x22, 0x00, 0x00, 0x2E,
  0x64, 0x00, 0x91, 0x52, 0x00, 0x00, 0x51, 0x64, 0x00, 0x99, 0x2E, 0x7F,
  0x30, 0x89, 0x2E, 0x40, 0x81, 0x10, 0x81, 0x45, 0x00, 0x00, 0x91, 0x43,
  0x64, 0x00, 0x92, 0x2E, 0x00, 0x00, 0x22, 0x64, 0x00, 0x91, 0x51, 0x00,
  0x00, 0x4F, 0x64, 0x00, 0x99, 0x2A, 0x7F, 0x30, 0x89, 0x2A, 0x40, 0x81,
  0x10, 0x82, 0x22, 0x00, 0x00, 0x92, 0x2E, 0x64, 0x00, 0x99, 0x2E, 0x7F,
  0x30, 0x89, 0x2E, 0x40, 0x30, 0x81, 0x43, 0x00, 0x00, 0x91, 0x41, 0x64,
  0x00, 0x4F, 0x00, 0x00, 0x4D, 0x64, 0x60, 0x41, 0x00, 0x00, 0x45, 0x64,
  0x00, 0x92, 0x2E, 0x00, 0x00, 0x22, 0x64, 0x00, 0x91, 0x4D, 0x00, 0x00,
  0x51, 0x64, 0x00, 0x99, 0x2A, 0x7F, 0x30, 0x89, 0x2A, 0x40, 0x30, 0x99,
  0x2A, 0x7F, 0x30, 0x89, 0x2A, 0x40, 0x30, 0x81, 0x45, 0x00, 0x00, 0x91,
  0x43, 0x64, 0x00, 0x92, 0x22, 0x00, 0x00, 0x2E, 0x64, 0x00, 0x91, 0x51,
  0x00, 0x00, 0x4F, 0x64, 0x00, 0x99, 0x2E, 0x7F, 0x30, 0x89, 0x2E, 0x40,
  0x60, 0x99, 0x2E, 0x7F, 0x30, 0x91, 0x43, 0x00, 0x00, 0x41, 0x64, 0x00,
  0x92, 0x2E, 0x00, 0x00, 0x22, 0x64, 0x00, 0x91, 0x4F, 0x00, 0x00, 0x4D,
  0x64, 0x00, 0x89, 0x2E, 0x40, 0x00, 0x99, 0x2A, 0x7F, 0x30, 0x89, 0x2A,
  0x40, 0x30, 0x81, 0x41, 0x00, 0x00, 0x91, 0x3F, 0x64, 0x00, 0x4D, 0x00,
  0x00, 0x4B, 0x64, 0x00, 0x99, 0x2A, 0x7F, 0x30, 0x89, 0x2A, 0x40, 0x30,
  0x82, 0x22, 0x00, 0x00, 0x92, 0x2E, 0x64, 0x00, 0x99, 0x2E, 0x7F, 0x30,
  0x89, 0x2E, 0x40, 0x81, 0x10, 0x81, 0x3F, 0x00, 0x00, 0x91, 0x43, 0x64,
  0x00, 0x92, 0x2E, 0x00, 0x00, 0x22, 0x64, 0x00, 0x91, 0x4B, 0x00, 0x00,
  0x4F, 0x64, 0x00, 0x99, 0x2A, 0x7F, 0x30, 0x89, 0x2A, 0x40, 0x81, 0x10,
  0x81, 0x43, 0x00, 0x00, 0x91, 0x41, 0x64, 0x00, 0x92, 0x22, 0x00, 0x00,
  0x2E, 0x64, 0x00, 0x91, 0x4F, 0x00, 0x00, 0x4D, 0x64, 0x00, 0x99, 0x2E,
  0x7F, 0x30, 0x89, 0x2E, 0x40, 0x81, 0x10, 0x81, 0x41, 0x00, 0x00, 0x91,
  0x3F, 0x64, 0x00, 0x92, 0x2E, 0x00, 0x00, 0x22, 0x64, 0x00, 0x91, 0x4D,
  0x00, 0x00, 0x4B, 0x64, 0x00, 0x99, 0x2A, 0x7F, 0x30, 0x89, 0x2A, 0x40,
  0x30, 0x81, 0x3F, 0x00, 0x00, 0x91, 0x3E, 0x64, 0x00, 0x4B, 0x00, 0x00,
  0x4A, 0x64, 0x60, 0x92, 0x22, 0x00, 0x00, 0x2E, 0x64, 0x00, 0x99, 0x2E,
  0x7F, 0x30, 0x89, 0x2E, 0x40, 0x81, 0x10, 0x81, 0x3E, 0x00, 0x00, 0x91,
  0x41, 0x64, 0x00, 0x92, 0x2E, 0x00, 0x00, 0x22, 0x64, 0x00, 0x91, 0x4A,
  0x00, 0x00, 0x4D, 0x64, 0x00, 0x99, 0x2A, 0x7F, 0x30, 0x89, 0x2A, 0x40,
  0x30, 0x99, 0x2A, 0x7F, 0x30, 0x89, 0x2A, 0x40, 0x30, 0x82, 0x22, 0x00,
  0x00, 0x92, 0x2E, 0x64, 0x00, 0x99, 0x2E, 0x7F, 0x30, 0x89, 0x2E, 0x40,
  0x60, 0x99, 0x2E, 0x7F, 0x30, 0x92, 0x2E, 0x00, 0x00, 0x22, 0x64, 0x00,
  0x89, 0x2E, 0x40, 0x00, 0x99, 0x2A, 0x7F, 0x30, 0x89, 0x2A, 0x40, 0x30,
  0x99, 0x2A, 0x7F, 0x30, 0x89, 0x2A, 0x40, 0x30, 0x81, 0x41, 0x00, 0x00,
  0x91, 0x3E, 0x64, 0x00, 0x92, 0x22, 0x00, 0x00, 0x2E, 0x64, 0x00, 0x91,
  0x4D, 0x00, 0x00, 0x4A, 0x64, 0x00, 0x99, 0x2E, 0x7F, 0x30, 0x89, 0x2E,
  0x40, 0x30, 0x81, 0x3E, 0x00, 0x00, 0x91, 0x3C, 0x64, 0x00, 0x4A, 0x00,
  0x00, 0x48, 0x64, 0x60, 0x3C, 0x00, 0x00, 0x3A, 0x64, 0x00, 0x92, 0x2E,
  0x00, 0x00, 0x1F, 0x64, 0x00, 0x91, 0x48, 0x00, 0x00, 0x46, 0x64, 0x00,
  0x99, 0x2A, 0x7F, 0x30, 0x89, 0x2A, 0x40, 0x81, 0x10, 0x81, 0x3A, 0x00,
  0x00, 0x91, 0x3C, 0x64, 0x00, 0x92, 0x1F, 0x00, 0x00, 0x2B, 0x64, 0x00,
  0x91, 0x46, 0x00, 0x00, 0x48, 0x64, 0x00, 0x99, 0x2E, 0x7F, 0x30, 0x89,
  0x2E, 0x40, 0x81, 0x10, 0x81, 0x3C, 0x00, 0x00, 0x91, 0x3E, 0x64, 0x00,
  0x92, 0x2B, 0x00, 0x00, 0x1F, 0x64, 0x00, 0x91, 0x48, 0x00, 0x00, 0x4A,
  0x64, 0x00, 0x99, 0x2A, 0x7F, 0x30, 0x89, 0x2A, 0x40, 0x81, 0x10, 0x81,
  0x3E, 0x00, 0x00, 0x91, 0x3F, 0x64, 0x00, 0x92, 0x1F, 0x00, 0x00, 0x2B,
  0x64, 0x00, 0x91, 0x4A, 0x00, 0x00, 0x4B, 0x64, 0x00, 0x99, 0x2E, 0x7F,
  0x30, 0x89, 0x2E, 0x40, 0x81, 0x10, 0x81, 0x3F, 0x00, 0x00, 0x91, 0x3C,
  0x64, 0x00, 0x92, 0x2B, 0x00, 0x00, 0x1F, 0x64, 0x00, 0x91, 0x4B, 0x00,
  0x00, 0x48, 0x64, 0x00, 0x99, 0x2A, 0x7F, 0x30, 0x89, 0x2A, 0x40, 0x30,
  0x99, 0x2A, 0x7F, 0x30, 0x89, 0x2A, 0x40, 0x30, 0x81, 0x3C, 0x00, 0x00,
  0x91, 0x3E, 0x64, 0x00, 0x92, 0x1F, 0x00, 0x00, 0x2B, 0x64, 0x00, 0x91,
  0x48, 0x00, 0x00, 0x4A, 0x64, 0x00, 0x99, 0x2E, 0x7F, 0x30, 0x89, 0x2E,
  0x40, 0x30, 0x81, 0x3E, 0x00, 0x00, 0x91, 0x3F, 0x64, 0x00, 0x4A, 0x00,
  0x00, 0x4B, 0x64, 0x30, 0x99, 0x2E, 0x7F, 0x30, 0x92, 0x2B, 0x00, 0x00,
  0x1F, 0x64, 0x00, 0x89, 0x2E, 0x40, 0x00, 0x99, 0x2A, 0x7F, 0x30, 0x89,
  0x2A, 0x40, 0x30, 0x99, 0x2A, 0x7F, 0x30, 0x89, 0x2A, 0x40, 0x30, 0x81,
  0x3F, 0x00, 0x00, 0x91, 0x41, 0x64, 0x00, 0x92, 0x1F, 0x00, 0x00, 0x2B,
  0x64, 0x00, 0x91, 0x4B, 0x00, 0x00, 0x4D, 0x64, 0x00, 0x99, 0x2E, 0x7F,
  0x30, 0x89, 0x2E, 0x40, 0x81, 0x10, 0x81, 0x41, 0x00, 0x00, 0x91, 0x41,
  0x64, 0x00, 0x92, 0x2B, 0x00, 0x00, 0x1F, 0x64, 0x00, 0x91, 0x4D, 0x00,
  0x00, 0x4D, 0x64, 0x00, 0x99, 0x2A, 0x7F, 0x30, 0x89, 0x2A, 0x40, 0x81,
  0x10, 0x81, 0x41, 0x00, 0x00, 0x91, 0x43, 0x64, 0x00, 0x92, 0x1F, 0x00,
  0x00, 0x2B, 0x64, 0x00, 0x91, 0x4D, 0x00, 0x00, 0x4F, 0x64, 0x00, 0x99,
  0x2E, 0x7F, 0x30, 0x89, 0x2E, 0x40, 0x81, 0x10, 0x81, 0x43, 0x00, 0x00,
  0x91, 0x45, 0x64, 0x00, 0x92, 0x2B, 0x00, 0x00, 0x1F, 0x64, 0x00, 0x91,
  0x4F, 0x00, 0x00, 0x51, 0x64, 0x00, 0x99, 0x2A, 0x7F, 0x30, 0x89, 0x2A,
  0x40, 0x30, 0x81, 0x45, 0x00, 0x00, 0x91, 0x41, 0x64, 0x00, 0x51, 0x00,
  0x00, 0x4D, 0x64, 0x60, 0x92, 0x1F, 0x00, 0x00, 0x2B, 0x64, 0x00, 0x99,
  0x2E, 0x7F, 0x30, 0x89, 0x2E, 0x40, 0x81, 0x10, 0x81, 0x41, 0x00, 0x00,
  0x91, 0x46, 0x64, 0x00, 0x92, 0x2B, 0x00, 0x00, 0x22, 0x64, 0x00, 0x91,
  0x4D, 0x00, 0x00, 0x52, 0x64, 0x00, 0x99, 0x2A, 0x7F, 0x30, 0x89, 0x2A,
  0x40, 0x30, 0x99, 0x2A, 0x7F, 0x30, 0x89, 0x2A, 0x40, 0x30, 0x81, 0x46,
  0x00, 0x00, 0x91, 0x41, 0x64, 0x00, 0x92, 0x22, 0x00, 0x00, 0x1D, 0x64,
  0x00, 0x91, 0x52, 0x00, 0x00, 0x4D, 0x64, 0x00, 0x99, 0x2E, 0x7F, 0x30,
  0x89, 0x2E, 0x40, 0x60, 0x99, 0x2E, 0x7F, 0x30, 0x91, 0x41, 0x00, 0x00,
  0x43, 0x64, 0x00, 0x92, 0x1D, 0x00, 0x00, 0x1F, 0x64, 0x00, 0x91, 0x4D,
  0x00, 0x00, 0x4F, 0x64, 0x00, 0x89, 0x2E, 0x40, 0x00, 0x99, 0x2A, 0x7F,
  0x30, 0x89, 0x2A, 0x40, 0x30, 0x99, 0x2A, 0x7F, 0x30, 0x89, 0x2A, 0x40,
  0x30, 0x81, 0x43, 0x00, 0x00, 0x91, 0x44, 0x64, 0x00, 0x92, 0x1F, 0x00,
  0x00, 0x20, 0x64, 0x00, 0x91, 0x4F, 0x00, 0x00, 0x50, 0x64, 0x00, 0x99,
  0x2E, 0x7F, 0x30, 0x89, 0x2E, 0x40, 0x81, 0x10, 0x81, 0x44, 0x00, 0x00,
  0x91, 0x45, 0x64, 0x00, 0x92, 0x20, 0x00, 0x00, 0x21, 0x64, 0x00, 0x91,
  0x50, 0x00, 0x00, 0x51, 0x64, 0x00, 0x99, 0x2A, 0x7F, 0x00, 0x23, 0x7F,
  0x00, 0xFF, 0x7F, 0x05, 0x05, 0x0F, 0x01, 0x01, 0x03, 0x30, 0x89, 0x23,
  0x40, 0x00, 0x2A, 0x40, 0x81, 0x10, 0x82, 0x21, 0x00, 0x00, 0x92, 0x2D,
  0x64, 0x00, 0x93, 0x4D, 0x64, 0x00, 0x99, 0x2E, 0x7F, 0x30, 0x89, 0x2E,
  0x40, 0x81, 0x10, 0x82, 0x2D, 0x00, 0x00, 0x92, 0x21, 0x64, 0x00, 0x93,
  0x4D, 0x00, 0x00, 0x4F, 0x64, 0x00, 0x99, 0x2A, 0x7F, 0x00, 0x23, 0x7F,
  0x30, 0x89, 0x23, 0x40, 0x00, 0x2A, 0x40, 0x30, 0x94, 0x4D, 0x32, 0x00,
  0xB4, 0x07, 0x7F, 0x60, 0x82, 0x21, 0x00, 0x00, 0x92, 0x2D, 0x64, 0x00,
  0x93, 0x4F, 0x00, 0x00, 0x50, 0x64, 0x00, 0x99, 0x2E, 0x7F, 0x30, 0x89,
  0x2E, 0x40, 0x30, 0x84, 0x4D, 0x00, 0x00, 0x94, 0x4F, 0x32, 0x60, 0xB1,
  0x07, 0x00, 0x00, 0x82, 0x2D, 0x00, 0x00, 0x92, 0x21, 0x64, 0x00, 0x93,
  0x50, 0x00, 0x00, 0x51, 0x64, 0x00, 0xB1, 0x07, 0x00, 0x00, 0x99, 0x2A,
  0x7F, 0x00, 0x23, 0x7F, 0x30, 0x89, 0x23, 0x40, 0x00, 0x2A, 0x40, 0x30,
  0x84, 0x4F, 0x00, 0x00, 0x94, 0x50, 0x32, 0x00, 0x99, 0x2A, 0x7F, 0x30,
  0x89, 0x2A, 0x40, 0x30, 0x81, 0x45, 0x00, 0x00, 0xB1, 0x07, 0x7F, 0x00,
  0x91, 0x41, 0x64, 0x00, 0x92, 0x21, 0x00, 0x00, 0x1D, 0x64, 0x00, 0x91,
  0x51, 0x00, 0x00, 0x4D, 0x64, 0x00, 0xB1, 0x07, 0x7F, 0x00, 0x99, 0x2E,
  0x7F, 0x30, 0x89, 0x2E, 0x40, 0x30, 0x84, 0x50, 0x00, 0x00, 0x94, 0x51,
  0x32, 0x30, 0x99, 0x2E, 0x7F, 0x30, 0x91, 0x41, 0x00, 0x00, 0x43, 0x64,
  0x00, 0x92, 0x1D, 0x00, 0x00, 0x1F, 0x64, 0x00, 0x91, 0x4D, 0x00, 0x00,
  0x4F, 0x64, 0x00, 0x89, 0x2E, 0x40, 0x00, 0x99, 0x2A, 0x7F, 0x00, 0x23,
  0x7F, 0x30, 0x89, 0x23, 0x40, 0x00, 0x2A, 0x40, 0x30, 0x99, 0x2A, 0x7F,
  0x30, 0x89, 0x2A, 0x40, 0x30, 0x81, 0x43, 0x00, 0x00, 0x91, 0x45, 0x64,
  0x00, 0x92, 0x1F, 0x00, 0x00, 0x21, 0x64, 0x00, 0x91, 0x4F, 0x00, 0x00,
  0x51, 0x64, 0x00, 0x99, 0x2E, 0x7F, 0x30, 0x89, 0x2E, 0x40, 0x81, 0x10,
  0x81, 0x45, 0x00, 0x00, 0x91, 0x46, 0x64, 0x00, 0x92, 0x21, 0x00, 0x00,
  0x22, 0x64, 0x00, 0xB3, 0x07, 0x00, 0x00, 0x81, 0x51, 0x00, 0x00, 0x91,
  0x52, 0x64, 0x00, 0x99, 0x2A, 0x7F, 0x00, 0x23, 0x7F, 0x30, 0x89, 0x2A,
  0x40, 0x00, 0x23, 0x40, 0x81, 0x10, 0x82, 0x22, 0x00, 0x00, 0x92, 0x2E,
  0x64, 0x00, 0x93, 0x51, 0x00, 0x00, 0xB3, 0x07, 0x7F, 0x00, 0x93, 0x4D,
  0x64, 0x00, 0x99, 0x2E, 0x7F, 0x30, 0x89, 0x2E, 0x40, 0x30, 0xB4, 0x07,
  0x00, 0x60, 0x82, 0x2E, 0x00, 0x00, 0x92, 0x22, 0x64, 0x00, 0x93, 0x4D,
  0x00, 0x00, 0x4F, 0x64, 0x00, 0x99, 0x2A, 0x7F, 0x00, 0x23, 0x7F, 0x30,
  0x89, 0x2A, 0x40, 0x00, 0x23, 0x40, 0x30, 0x84, 0x51, 0x40, 0x00, 0x94,
  0x4D, 0x32, 0x00, 0xB4, 0x07, 0x7F, 0x60, 0x82, 0x22, 0x00, 0x00, 0x92,
  0x2E, 0x64, 0x00, 0x93, 0x4F, 0x00, 0x00, 0x51, 0x64, 0x00, 0x99, 0x2E,
  0x7F, 0x30, 0x89, 0x2E, 0x40, 0x30, 0x84, 0x4D, 0x00, 0x00, 0x94, 0x4F,
  0x32, 0x60, 0xB1, 0x07, 0x00, 0x00, 0x82, 0x2E, 0x00, 0x00, 0x92, 0x22,
  0x64, 0x00, 0x93, 0x51, 0x00, 0x00, 0x52, 0x64, 0x00, 0xB1, 0x07, 0x00,
  0x00, 0x99, 0x2A, 0x7F, 0x00, 0x23, 0x7F, 0x30, 0x89, 0x2A, 0x40, 0x00,
  0x23, 0x40, 0x30, 0x84, 0x4F, 0x00, 0x00, 0x94, 0x51, 0x32, 0x00, 0x99,
  0x2A, 0x7F, 0x30, 0x89, 0x2A, 0x40, 0x30, 0x81, 0x46, 0x00, 0x00, 0xB1,
  0x07, 0x7F, 0x00, 0x91, 0x41, 0x64, 0x00, 0x92, 0x22, 0x00, 0x00, 0x1D,
  0x64, 0x00, 0x91, 0x52, 0x00, 0x00, 0x4D, 0x64, 0x00, 0xB1, 0x07, 0x7F,
  0x00, 0x99, 0x2E, 0x7F, 0x30, 0x89, 0x2E, 0x40, 0x30, 0x84, 0x51, 0x00,
  0x00, 0x94, 0x52, 0x32, 0x30, 0x99, 0x2E, 0x7F, 0x30, 0x91, 0x41, 0x00,
  0x00, 0x43, 0x64, 0x00, 0x92, 0x1D, 0x00, 0x00, 0x1F, 0x64, 0x00, 0x91,
  0x4D, 0x00, 0x00, 0x4F, 0x64, 0x00, 0x89, 0x2E, 0x40, 0x00, 0x99, 0x2A,
  0x7F, 0x00, 0x23, 0x7F, 0x30, 0x89, 0x2A, 0x40, 0x00, 0x23, 0x40, 0x30,
  0x99, 0x2A, 0x7F, 0x30, 0x89, 0x2A, 0x40, 0x30, 0x81, 0x43, 0x00, 0x00,
  0x91, 0x45, 0x64, 0x00, 0x92, 0x1F, 0x00, 0x00, 0x20, 0x64, 0x00, 0x91,
  0x4F, 0x00, 0x00, 0x51, 0x64, 0x00, 0x99, 0x2E, 0x7F, 0x30, 0x89, 0x2E,
  0x40, 0x81, 0x10, 0x81, 0x45, 0x00, 0x00, 0x91, 0x48, 0x64, 0x00, 0x92,
  0x20, 0x00, 0x00, 0x21, 0x64, 0x00, 0xB3, 0x07, 0x00, 0x00, 0x81, 0x51,
  0x00, 0x00, 0x91, 0x54, 0x64, 0x00, 0x99, 0x2A, 0x7F, 0x00, 0x23, 0x7F,
  0x30, 0x89, 0x2A, 0x40, 0x00, 0x23, 0x40, 0x81, 0x10, 0x82, 0x21, 0x00,
  0x00, 0x92, 0x2D, 0x64, 0x00, 0x93, 0x52, 0x00, 0x00, 0xB3, 0x07, 0x7F,
  0x00, 0x93, 0x4D, 0x64, 0x00, 0x99, 0x2E, 0x7F, 0x30, 0x89, 0x2E, 0x40,
  0x30, 0xB4, 0x07, 0x00, 0x60, 0x82, 0x2D, 0x00, 0x00, 0x92, 0x21, 0x64,
  0x00, 0x93, 0x4D, 0x00, 0x00, 0x4F, 0x64, 0x00, 0x99, 0x2A, 0x7F, 0x00,
  0x23, 0x7F, 0x30, 0x89, 0x2A, 0x40, 0x00, 0x23, 0x40, 0x30, 0x84, 0x52,
  0x40, 0x00, 0x94, 0x4D, 0x32, 0x00, 0xB4, 0x07, 0x7F, 0x60, 0x82, 0x21,
  0x00, 0x00, 0x92, 0x2D, 0x64, 0x00, 0x93, 0x4F, 0x00, 0x00, 0x51, 0x64,
  0x00, 0x99, 0x2E, 0x7F, 0x30, 0x89, 0x2E, 0x40, 0x30, 0x84, 0x4D, 0x00,
  0x00, 0x94, 0x4F, 0x32, 0x60, 0xB1, 0x07, 0x00, 0x00, 0x82, 0x2D, 0x00,
  0x00, 0x92, 0x21, 0x64, 0x00, 0x93, 0x51, 0x00, 0x00, 0x54, 0x64, 0x00,
  0xB1, 0x07, 0x00, 0x00, 0x99, 0x2A, 0x7F, 0x00, 0x23, 0x7F, 0x30, 0x89,
  0x2A, 0x40, 0x00, 0x23, 0x40, 0x30, 0x84, 0x4F, 0x00, 0x00, 0x94, 0x51,
  0x32, 0x00, 0x99, 0x2A, 0x7F, 0x30, 0x89, 0x2A, 0x40, 0x30, 0x81, 0x48,
  0x00, 0x00, 0xB1, 0x07, 0x7F, 0x00, 0x91, 0x41, 0x64, 0x00, 0x92, 0x21,
  0x00, 0x00, 0x1D, 0x64, 0x00, 0x91, 0x54, 0x00, 0x00, 0x4D, 0x64, 0x00,
  0xB1, 0x07, 0x7F, 0x00, 0x99, 0x2E, 0x7F, 0x30, 0x89, 0x2E, 0x40, 0x30,
  0x84, 0x51, 0x00, 0x00, 0x94, 0x54, 0x32, 0x30, 0x99, 0x2E, 0x7F, 0x30,
  0x91, 0x41, 0x00, 0x00, 0x43, 0x64, 0x00, 0x92, 0x1D, 0x00, 0x00, 0x1F,
  0x64, 0x00, 0x91, 0x4D, 0x00, 0x00, 0x4F, 0x64, 0x00, 0x89, 0x2E, 0x40,
  0x00, 0x99, 0x2A, 0x7F, 0x00, 0x23, 0x7F, 0x30, 0x89, 0x2A, 0x40, 0x00,
  0x23, 0x40, 0x30, 0x99, 0x2A, 0x7F, 0x30, 0x89, 0x2A, 0x40, 0x30, 0x81,
  0x43, 0x00, 0x00, 0x91, 0x45, 0x64, 0x00, 0x92, 0x1F, 0x00, 0x00, 0x21,
  0x64, 0x00, 0x91, 0x4F, 0x00, 0x00, 0x51, 0x64, 0x00, 0x99, 0x2E, 0x7F,
  0x30, 0x89, 0x2E, 0x40, 0x81, 0x10, 0x81, 0x45, 0x00, 0x00, 0x91, 0x4A,
  0x64, 0x00, 0x92, 0x21, 0x00, 0x00, 0x22, 0x64, 0x00, 0xB3, 0x07, 0x00,
  0x00, 0x81, 0x51, 0x00, 0x00, 0x91, 0x56, 0x64, 0x00, 0x99, 0x2A, 0x7F,
  0x00, 0x23, 0x7F, 0x30, 0x89, 0x2A, 0x40, 0x00, 0x23, 0x40, 0x81, 0x10,
  0x82, 0x22, 0x00, 0x00, 0x92, 0x2E, 0x64, 0x00, 0x93, 0x54, 0x00, 0x00,
  0xB3, 0x07, 0x7F, 0x00, 0x93, 0x4D, 0x64, 0x00, 0x99, 0x2E, 0x7F, 0x30,
  0x89, 0x2E, 0x40, 0x30, 0xB4, 0x07, 0x00, 0x60, 0x82, 0x2E, 0x00, 0x00,
  0x92, 0x22, 0x64, 0x00, 0x93, 0x4D, 0x00, 0x00, 0x4F, 0x64, 0x00, 0x99,
  0x2A, 0x7F, 0x00, 0x23, 0x7F, 0x30, 0x89, 0x2A, 0x40, 0x00, 0x23, 0x40,
  0x30, 0x84, 0x54, 0x40, 0x00, 0x94, 0x4D, 0x32, 0x00, 0xB4, 0x07, 0x7F,
  0x60, 0x82, 0x22, 0x00, 0x00, 0x92, 0x2E, 0x64, 0x00, 0x93, 0x4F, 0x00,
  0x00, 0x51, 0x64, 0x00, 0x99, 0x2E, 0x7F, 0x30, 0x89, 0x2E, 0x40, 0x30,
  0x84, 0x4D, 0x00, 0x00, 0x94, 0x4F, 0x32, 0x60, 0xB1, 0x07, 0x00, 0x00,
  0x82, 0x2E, 0x00, 0x00, 0x92, 0x22, 0x64, 0x00, 0x93, 0x51, 0x00, 0x00,
  0x56, 0x64, 0x00, 0xB1, 0x07, 0x00, 0x00, 0x99, 0x2A, 0x7F, 0x00, 0x23,
  0x7F, 0x30, 0x89, 0x2A, 0x40, 0x00, 0x23, 0x40, 0x30, 0x84, 0x4F, 0x00,
  0x00, 0x94, 0x51, 0x32, 0x00, 0x99, 0x2A, 0x7F, 0x30, 0x89, 0x2A, 0x40,
  0x30, 0x81, 0x4A, 0x00, 0x00, 0xB1, 0x07, 0x7F, 0x00, 0x91, 0x46, 0x64,
  0x00, 0x92, 0x22, 0x00, 0x00, 0x22, 0x64, 0x00, 0x91, 0x56, 0x00, 0x00,
  0x52, 0x64, 0x00, 0xB1, 0x07, 0x7F, 0x00, 0x99, 0x2E, 0x7F, 0x30, 0x89,
  0x2E, 0x40, 0x30, 0x84, 0x51, 0x00, 0x00, 0x94, 0x56, 0x32, 0x30, 0x99,
  0x2E, 0x7F, 0x30, 0x91, 0x46, 0x00, 0x00, 0x48, 0x64, 0x00, 0x92, 0x22,
  0x00, 0x00, 0x24, 0x64, 0x00, 0x91, 0x52, 0x00, 0x00, 0x54, 0x64, 0x00,
  0x89, 0x2E, 0x40, 0x00, 0x99, 0x2A, 0x7F, 0x00, 0x23, 0x7F, 0x30, 0x89,
  0x2A, 0x40, 0x00, 0x23, 0x40, 0x30, 0x99, 0x2A, 0x7F, 0x30, 0x89, 0x2A,
  0x40, 0x30, 0x81, 0x48, 0x00, 0x00, 0x91, 0x4A, 0x64, 0x00, 0x92, 0x24,
  0x00, 0x00, 0x26, 0x64, 0x00, 0x91, 0x54, 0x00, 0x00, 0x56, 0x64, 0x00,
  0x99, 0x2E, 0x7F, 0x30, 0x89, 0x2E, 0x40, 0x81, 0x10, 0x81, 0x4A, 0x00,
  0x00, 0x91, 0x4B, 0x64, 0x00, 0x92, 0x26, 0x00, 0x00, 0x27, 0x64, 0x00,
  0xB3, 0x07, 0x00, 0x00, 0x81, 0x56, 0x00, 0x00, 0x91, 0x57, 0x64, 0x00,
  0x99, 0x2A, 0x7F, 0x00, 0x23, 0x7F, 0x00, 0xFF, 0x7F, 0x05, 0x05, 0x0F,
  0x01, 0x01, 0x0F, 0x30, 0x89, 0x2A, 0x40, 0x00, 0x23, 0x40, 0x81, 0x10,
  0x81, 0x4B, 0x00, 0x00, 0x91, 0x4B, 0x64, 0x00, 0x92, 0x27, 0x00, 0x00,
  0x33, 0x64, 0x00, 0x91, 0x57, 0x00, 0x00, 0x57, 0x64, 0x00, 0x99, 0x2E,
  0x7F, 0x30, 0x89, 0x2E, 0x40, 0x30, 0xB4, 0x07, 0x00, 0x60, 0x82, 0x33,
  0x00, 0x00, 0x92, 0x27, 0x64, 0x00, 0x99, 0x2A, 0x7F, 0x00, 0x23, 0x7F,
  0x00, 0x27, 0x7F, 0x30, 0x89, 0x27, 0x40, 0x00, 0x2A, 0x40, 0x00, 0x23,
  0x40, 0x81, 0x10, 0x81, 0x4B, 0x00, 0x00, 0x91, 0x4B, 0x64, 0x00, 0x92,
  0x27, 0x00, 0x00, 0x33, 0x64, 0x00, 0x91, 0x57, 0x00, 0x00, 0x57, 0x64,
  0x00, 0x99, 0x2E, 0x7F, 0x30, 0x89, 0x2E, 0x40, 0x81, 0x10, 0x82, 0x33,
  0x00, 0x00, 0x92, 0x27, 0x64, 0x00, 0x99, 0x2A, 0x7F, 0x00, 0x23, 0x7F,
  0x30, 0x89, 0x2A, 0x40, 0x00, 0x23, 0x40, 0x30, 0x99, 0x2A, 0x7F, 0x30,
  0x89, 0x2A, 0x40, 0x30, 0x81, 0x4B, 0x00, 0x00, 0x91, 0x4A, 0x64, 0x00,
  0x92, 0x27, 0x00, 0x00, 0x33, 0x64, 0x00, 0x91, 0x57, 0x00, 0x00, 0x56,
  0x64, 0x00, 0x99, 0x2E, 0x7F, 0x30, 0x89, 0x2E, 0x40, 0x60, 0x99, 0x2E,
  0x7F, 0x30, 0x91, 0x4A, 0x00, 0x00, 0x48, 0x64, 0x00, 0x92, 0x33, 0x00,
  0x00, 0x27, 0x64, 0x00, 0x91, 0x56, 0x00, 0x00, 0x54, 0x64, 0x00, 0x89,
  0x2E, 0x40, 0x00, 0x99, 0x2A, 0x7F, 0x00, 0x23, 0x7F, 0x00, 0x27, 0x7F,
  0x30, 0x89, 0x27, 0x40, 0x00, 0x2A, 0x40, 0x00, 0x23, 0x40, 0x30, 0x99,
  0x2A, 0x7F, 0x30, 0x89, 0x2A, 0x40, 0x30, 0x82, 0x27, 0x00, 0x00, 0x92,
  0x33, 0x64, 0x00, 0x99, 0x2E, 0x7F, 0x30, 0x89, 0x2E, 0x40, 0x81, 0x10,
  0x81, 0x48, 0x00, 0x00, 0x91, 0x4A, 0x64, 0x00, 0x92, 0x33, 0x00, 0x00,
  0x26, 0x64, 0x00, 0x91, 0x54, 0x00, 0x00, 0x56, 0x64, 0x00, 0x99, 0x2A,
  0x7F, 0x00, 0x23, 0x7F, 0x30, 0x89, 0x23, 0x40, 0x00, 0x2A, 0x40, 0x81,
  0x10, 0x82, 0x26, 0x00, 0x00, 0x92, 0x32, 0x64, 0x00, 0x99, 0x2E, 0x7F,
  0x30, 0x89, 0x2E, 0x40, 0x81, 0x10, 0x82, 0x32, 0x00, 0x00, 0x92, 0x26,
  0x64, 0x00, 0x99, 0x2A, 0x7F, 0x00, 0x23, 0x7F, 0x00, 0x27, 0x7F, 0x30,
  0x89, 0x23, 0x40, 0x00, 0x2A, 0x40, 0x00, 0x27, 0x40, 0x81, 0x10, 0x82,
  0x26, 0x00, 0x00, 0x92, 0x32, 0x64, 0x00, 0x99, 0x2E, 0x7F, 0x30, 0x89,
  0x2E, 0x40, 0x81, 0x10, 0x82, 0x32, 0x00, 0x00, 0x92, 0x26, 0x64, 0x00,
  0x99, 0x2A, 0x7F, 0x00, 0x23, 0x7F, 0x30, 0x89, 0x23, 0x40, 0x00, 0x2A,
  0x40, 0x30, 0x99, 0x2A, 0x7F, 0x30, 0x89, 0x2A, 0x40, 0x30, 0x82, 0x26,
  0x00, 0x00, 0x92, 0x32, 0x64, 0x00, 0x99, 0x2E, 0x7F, 0x30, 0x89, 0x2E,
  0x40, 0x60, 0x99, 0x2E, 0x7F, 0x30, 0x91, 0x4A, 0x00, 0x00, 0x4A, 0x64,
  0x00, 0x92, 0x32, 0x00, 0x00, 0x26, 0x64, 0x00, 0x91, 0x56, 0x00, 0x00,
  0x56, 0x64, 0x00, 0x89, 0x2E, 0x40, 0x00, 0x99, 0x2A, 0x7F, 0x00, 0x23,
  0x7F, 0x00, 0x27, 0x7F, 0x30, 0x89, 0x23, 0x40, 0x00, 0x2A, 0x40, 0x00,
  0x27, 0x40, 0x30, 0x99, 0x2A, 0x7F, 0x30, 0x89, 0x2A, 0x40, 0x30, 0x82,
  0x26, 0x00, 0x00, 0x92, 0x32, 0x64, 0x00, 0x99, 0x2E, 0x7F, 0x30, 0x89,
  0x2E, 0x40, 0x81, 0x10, 0x81, 0x4A, 0x00, 0x00, 0x91, 0x48, 0x64, 0x00,
  0x92, 0x32, 0x00, 0x00, 0x24, 0x64, 0x00, 0x91, 0x56, 0x00, 0x00, 0x54,
  0x64, 0x00, 0x99, 0x2A, 0x7F, 0x00, 0x23, 0x7F, 0x30, 0x89, 0x23, 0x40,
  0x00, 0x2A, 0x40, 0x81, 0x10, 0x82, 0x24, 0x00, 0x00, 0x92, 0x30, 0x64,
  0x00, 0x99, 0x2E, 0x7F, 0x30, 0x89, 0x2E, 0x40, 0x81, 0x10, 0x82, 0x30,
  0x00, 0x00, 0x92, 0x24, 0x64, 0x00, 0x99, 0x2A, 0x7F, 0x00, 0x23, 0x7F,
  0x00, 0x27, 0x7F, 0x30, 0x89, 0x23, 0x40, 0x00, 0x2A, 0x40, 0x00, 0x27,
  0x40, 0x81, 0x10, 0x81, 0x48, 0x00, 0x00, 0x91, 0x43, 0x64, 0x00, 0x92,
  0x24, 0x00, 0x00, 0x30, 0x64, 0x00, 0x91, 0x54, 0x00, 0x00, 0x4F, 0x64,
  0x00, 0x99, 0x2E, 0x7F, 0x30, 0x89, 0x2E, 0x40, 0x81, 0x10, 0x82, 0x30,
  0x00, 0x00, 0x92, 0x1F, 0x64, 0x00, 0x99, 0x2A, 0x7F, 0x00, 0x23, 0x7F,
  0x30, 0x89, 0x23, 0x40, 0x00, 0x2A, 0x40, 0x30, 0x99, 0x2A, 0x7F, 0x30,
  0x89, 0x2A, 0x40, 0x30, 0x81, 0x43, 0x00, 0x00, 0x91, 0x43, 0x64, 0x00,
  0x92, 0x1F, 0x00, 0x00, 0x2B, 0x64, 0x00, 0x91, 0x4F, 0x00, 0x00, 0x4F,
  0x64, 0x00, 0x99, 0x2E, 0x7F, 0x30, 0x89, 0x2E, 0x40, 0x60, 0x99, 0x2E,
  0x7F, 0x30, 0x91, 0x43, 0x00, 0x00, 0x4A, 0x64, 0x00, 0x92, 0x2B, 0x00,
  0x00, 0x1F, 0x64, 0x00, 0x91, 0x4F, 0x00, 0x00, 0x56, 0x64, 0x00, 0x89,
  0x2E, 0x40, 0x00, 0x99, 0x2A, 0x7F, 0x00, 0x23, 0x7F, 0x00, 0x27, 0x7F,
  0x30, 0x89, 0x23, 0x40, 0x00, 0x2A, 0x40, 0x00, 0x27, 0x40, 0x30, 0x99,
  0x2A, 0x7F, 0x30, 0x89, 0x2A, 0x40, 0x30, 0x82, 0x1F, 0x00, 0x00, 0x92,
  0x2B, 0x64, 0x00, 0x99, 0x2E, 0x7F, 0x30, 0x89, 0x2E, 0x40, 0x81, 0x10,
  0x81, 0x4A, 0x00, 0x00, 0x91, 0x48, 0x64, 0x00, 0x92, 0x2B, 0x00, 0x00,
  0x24, 0x64, 0x00, 0x91, 0x56, 0x00, 0x00, 0x54, 0x64, 0x00, 0x99, 0x2A,
  0x7F, 0x00, 0x23, 0x7F, 0x30, 0x89, 0x23, 0x40, 0x00, 0x2A, 0x40, 0x81,
  0x10, 0x82, 0x24, 0x00, 0x00, 0x92, 0x30, 0x64, 0x00, 0x99, 0x2E, 0x7F,
  0x30, 0x89, 0x2E, 0x40, 0x81, 0x10, 0x82, 0x30, 0x00, 0x00, 0x92, 0x24,
  0x64, 0x00, 0x99, 0x2A, 0x7F, 0x00, 0x23, 0x7F, 0x00, 0x27, 0x7F, 0x30,
  0x89, 0x23, 0x40, 0x00, 0x2A, 0x40, 0x00, 0x27, 0x40, 0x81, 0x10, 0x82,
  0x24, 0x00, 0x00, 0x92, 0x30, 0x64, 0x00, 0x99, 0x2E, 0x7F, 0x30, 0x89,
  0x2E, 0x40, 0x81, 0x10, 0xB1, 0x07, 0x00, 0x00, 0x82, 0x30, 0x00, 0x00,
  0x92, 0x24, 0x64, 0x00, 0xB1, 0x07, 0x00, 0x00, 0x99, 0x2A, 0x7F, 0x00,
  0x23, 0x7F, 0x30, 0x89, 0x23, 0x40, 0x00, 0x2A, 0x40, 0x30, 0x99, 0x2A,
  0x7F, 0x30, 0x89, 0x2A, 0x40, 0x30, 0x81, 0x48, 0x00, 0x00, 0xB1, 0x07,
  0x7F, 0x00, 0x91, 0x41, 0x64, 0x00, 0x92, 0x24, 0x00, 0x00, 0x1D, 0x64,
  0x00, 0x91, 0x54, 0x00, 0x00, 0x4D, 0x64, 0x00, 0xB1, 0x07, 0x7F, 0x00,
  0x99, 0x2E, 0x7F, 0x30, 0x89, 0x2E, 0x40, 0x60, 0x99, 0x2E, 0x7F, 0x30,
  0x91, 0x41, 0x00, 0x00, 0x43, 0x64, 0x00, 0x92, 0x1D, 0x00, 0x00, 0x1F,
  0x64, 0x00, 0x91, 0x4D, 0x00, 0x00, 0x4F, 0x64, 0x00, 0x89, 0x2E, 0x40,
  0x00, 0x99, 0x2A, 0x7F, 0x00, 0x23, 0x7F, 0x00, 0x27, 0x7F, 0x30, 0x89,
  0x23, 0x40, 0x00, 0x2A, 0x40, 0x00, 0x27, 0x40, 0x30, 0x99, 0x2A, 0x7F,
  0x30, 0x89, 0x2A, 0x40, 0x30, 0x81, 0x43, 0x00, 0x00, 0x91, 0x44, 0x64,
  0x00, 0x92, 0x1F, 0x00, 0x00, 0x20, 0x64, 0x00, 0x91, 0x4F, 0x00, 0x00,
  0x50, 0x64, 0x00, 0x99, 0x2E, 0x7F, 0x30, 0x89, 0x2E, 0x40, 0x81, 0x10,
  0x81, 0x44, 0x00, 0x00, 0x91, 0x45, 0x64, 0x00, 0x92, 0x20, 0x00, 0x00,
  0x21, 0x64, 0x00, 0x91, 0x50, 0x00, 0x00, 0x51, 0x64, 0x00, 0x99, 0x2A,
  0x7F, 0x00, 0x23, 0x7F, 0x30, 0x89, 0x23, 0x40, 0x00, 0x2A, 0x40, 0x81,
  0x10, 0x82, 0x21, 0x00, 0x00, 0x92, 0x2D, 0x64, 0x00, 0x93, 0x56, 0x00,
  0x00, 0xB3, 0x07, 0x7F, 0x00, 0x93, 0x4D, 0x64, 0x00, 0x99, 0x2E, 0x7F,
  0x30, 0x89, 0x2E, 0x40, 0x81, 0x10, 0x82, 0x2D, 0x00, 0x00, 0x92, 0x21,
  0x64, 0x00, 0x93, 0x4D, 0x00, 0x00, 0x4F, 0x64, 0x00, 0x99, 0x2A, 0x7F,
  0x00, 0x23, 0x7F, 0x00, 0x27, 0x7F, 0x30, 0x89, 0x23, 0x40, 0x00, 0x2A,
  0x40, 0x00, 0x27, 0x40, 0x30, 0x84, 0x56, 0x40, 0x00, 0x94, 0x4D, 0x32,
  0x00, 0xB4, 0x07, 0x7F, 0x60, 0x82, 0x21, 0x00, 0x00, 0x92, 0x2D, 0x64,
  0x00, 0x93, 0x4F, 0x00, 0x00, 0x50, 0x64, 0x00, 0x99, 0x2E, 0x7F, 0x30,
  0x89, 0x2E, 0x40, 0x30, 0x84, 0x4D, 0x00, 0x00, 0x94, 0x4F, 0x32, 0x60,
  0xB1, 0x07, 0x00, 0x00, 0x82, 0x2D, 0x00, 0x00, 0x92, 0x21, 0x64, 0x00,
  0x93, 0x50, 0x00, 0x00, 0x51, 0x64, 0x00, 0xB1, 0x07, 0x00, 0x00, 0x99,
  0x2A, 0x7F, 0x00, 0x23, 0x7F, 0x30, 0x89, 0x23, 0x40, 0x00, 0x2A, 0x40,
  0x30, 0x84, 0x4F, 0x00, 0x00, 0x94, 0x50, 0x32, 0x00, 0x99, 0x2A, 0x7F,
  0x30, 0x89, 0x2A, 0x40, 0x30, 0x81, 0x45, 0x00, 0x00, 0xB1, 0x07, 0x7F,
  0x00, 0x91, 0x41, 0x64, 0x00, 0x92, 0x21, 0x00, 0x00, 0x1D, 0x64, 0x00,
  0x91, 0x51, 0x00, 0x00, 0x4D, 0x64, 0x00, 0xB1, 0x07, 0x7F, 0x00, 0x99,
  0x2E, 0x7F, 0x30, 0x89, 0x2E, 0x40, 0x30, 0x84, 0x50, 0x00, 0x00, 0x94,
  0x51, 0x32, 0x30, 0x99, 0x2E, 0x7F, 0x30, 0x91, 0x41, 0x00, 0x00, 0x43,
  0x64, 0x00, 0x92, 0x1D, 0x00, 0x00, 0x1F, 0x64, 0x00, 0x91, 0x4D, 0x00,
  0x00, 0x4F, 0x64, 0x00, 0x89, 0x2E, 0x40, 0x00, 0x99, 0x2A, 0x7F, 0x00,
  0x23, 0x7F, 0x00, 0x27, 0x7F, 0x30, 0x89, 0x23, 0x40, 0x00, 0x2A, 0x40,
  0x00, 0x27, 0x40, 0x30, 0x99, 0x2A, 0x7F, 0x30, 0x89, 0x2A, 0x40, 0x30,
  0x81, 0x43, 0x00, 0x00, 0x91, 0x45, 0x64, 0x00, 0x92, 0x1F, 0x00, 0x00,
  0x21, 0x64, 0x00, 0x91, 0x4F, 0x00, 0x00, 0x51, 0x64, 0x00, 0x99, 0x2E,
  0x7F, 0x30, 0x89, 0x2E, 0x40, 0x81, 0x10, 0x81, 0x45, 0x00, 0x00, 0x91,
  0x46, 0x64, 0x00, 0x92, 0x21, 0x00, 0x00, 0x22, 0x64, 0x00, 0xB3, 0x07,
  0x00, 0x00, 0x81, 0x51, 0x00, 0x00, 0x91, 0x52, 0x64, 0x00, 0x99, 0x2A,
  0x7F, 0x00, 0x23, 0x7F, 0x30, 0x89, 0x23, 0x40, 0x00, 0x2A, 0x40, 0x81,
  0x10, 0x82, 0x22, 0x00, 0x00, 0x92, 0x2E, 0x64, 0x00, 0x93, 0x51, 0x00,
  0x00, 0xB3, 0x07, 0x7F, 0x00, 0x93, 0x4D, 0x64, 0x00, 0x99, 0x2E, 0x7F,
  0x30, 0x89, 0x2E, 0x40, 0x30, 0xB4, 0x07, 0x00, 0x60, 0x82, 0x2E, 0x00,
  0x00, 0x92, 0x22, 0x64, 0x00, 0x93, 0x4D, 0x00, 0x00, 0x4F, 0x64, 0x00,
  0x99, 0x2A, 0x7F, 0x00, 0x23, 0x7F, 0x00, 0x27, 0x7F, 0x30, 0x89, 0x23,
  0x40, 0x00, 0x2A, 0x40, 0x00, 0x27, 0x40, 0x30, 0x84, 0x51, 0x40, 0x00,
  0x94, 0x4D, 0x32, 0x00, 0xB4, 0x07, 0x7F, 0x60, 0x82, 0x22, 0x00, 0x00,
  0x92, 0x2E, 0x64, 0x00, 0x93, 0x4F, 0x00, 0x00, 0x51, 0x64, 0x00, 0x99,
  0x2E, 0x7F, 0x30, 0x89, 0x2E, 0x40, 0x30, 0x84, 0x4D, 0x00, 0x00, 0x94,
  0x4F, 0x32, 0x60, 0xB1, 0x07, 0x00, 0x00, 0x82, 0x2E, 0x00, 0x00, 0x92,
  0x22, 0x64, 0x00, 0x93, 0x51, 0x00, 0x00, 0x52, 0x64, 0x00, 0xB1, 0x07,
  0x00, 0x00, 0x99, 0x2A, 0x7F, 0x00, 0x23, 0x7F, 0x30, 0x89, 0x23, 0x40,
  0x00, 0x2A, 0x40, 0x30, 0x84, 0x4F, 0x00, 0x00, 0x94, 0x51, 0x32, 0x00,
  0x99, 0x2A, 0x7F, 0x30, 0x89, 0x2A, 0x40, 0x30, 0x81, 0x46, 0x00, 0x00,
  0xB1, 0x07, 0x7F, 0x00, 0x91, 0x41, 0x64, 0x00, 0x92, 0x22, 0x00, 0x00,
  0x1D, 0x64, 0x00, 0x91, 0x52, 0x00, 0x00, 0x4D, 0x64, 0x00, 0xB1, 0x07,
  0x7F, 0x00, 0x99, 0x2E, 0x7F, 0x30, 0x89, 0x2E, 0x40, 0x30, 0x84, 0x51,
  0x00, 0x00, 0x94, 0x52, 0x32, 0x30, 0x99, 0x2E, 0x7F, 0x30, 0x91, 0x41,
  0x00, 0x00, 0x43, 0x64, 0x00, 0x92, 0x1D, 0x00, 0x00, 0x1F, 0x64, 0x00,
  0x91, 0x4D, 0x00, 0x00, 0x4F, 0x64, 0x00, 0x89, 0x2E, 0x40, 0x00, 0x99,
  0x2A, 0x7F, 0x00, 0x23, 0x7F, 0x00, 0x27, 0x7F, 0x30, 0x89, 0x23, 0x40,
  0x00, 0x2A, 0x40, 0x00, 0x27, 0x40, 0x30, 0x99, 0x2A, 0x7F, 0x30, 0x89,
  0x2A, 0x40, 0x30, 0x81, 0x43, 0x00, 0x00, 0x91, 0x45, 0x64, 0x00, 0x92,
  0x1F, 0x00, 0x00, 0x20, 0x64, 0x00, 0x91, 0x4F, 0x00, 0x00, 0x51, 0x64,
  0x00, 0x99, 0x2E, 0x7F, 0x30, 0x89, 0x2E, 0x40, 0x81, 0x10, 0x81, 0x45,
  0x00, 0x00, 0x91, 0x48, 0x64, 0x00, 0x92, 0x20, 0x00, 0x00, 0x21, 0x64,
  0x00, 0xB3, 0x07, 0x00, 0x00, 0x81, 0x51, 0x00, 0x00, 0x91, 0x54, 0x64,
  0x00, 0x99, 0x2A, 0x7F, 0x00, 0x23, 0x7F, 0x30, 0x89, 0x23, 0x40, 0x00,
  0x2A, 0x40, 0x81, 0x10, 0x82, 0x21, 0x00, 0x00, 0x92, 0x2D, 0x64, 0x00,
  0x93, 0x52, 0x00, 0x00, 0xB3, 0x07, 0x7F, 0x00, 0x93, 0x4D, 0x64, 0x00,
  0x99, 0x2E, 0x7F, 0x30, 0x89, 0x2E, 0x40, 0x30, 0xB4, 0x07, 0x00, 0x60,
  0x82, 0x2D, 0x00, 0x00, 0x92, 0x21, 0x64, 0x00, 0x93, 0x4D, 0x00, 0x00,
  0x4F, 0x64, 0x00, 0x99, 0x2A, 0x7F, 0x00, 0x23, 0x7F, 0x00, 0x27, 0x7F,
  0x30, 0x89, 0x23, 0x40, 0x00, 0x2A, 0x40, 0x00, 0x27, 0x40, 0x30, 0x84,
  0x52, 0x40, 0x00, 0x94, 0x4D, 0x32, 0x00, 0xB4, 0x07, 0x7F, 0x60, 0x82,
  0x21, 0x00, 0x00, 0x92, 0x2D, 0x64, 0x00, 0x93, 0x4F, 0x00, 0x00, 0x51,
  0x64, 0x00, 0x99, 0x2E, 0x7F, 0x30, 0x89, 0x2E, 0x40, 0x30, 0x84, 0x4D,
  0x00, 0x00, 0x94, 0x4F, 0x32, 0x60, 0xB1, 0x07, 0x00, 0x00, 0x82, 0x2D,
  0x00, 0x00, 0x92, 0x21, 0x64, 0x00, 0x93, 0x51, 0x00, 0x00, 0x54, 0x64,
  0x00, 0xB1, 0x07, 0x00, 0x00, 0x99, 0x2A, 0x7F, 0x00, 0x23, 0x7F, 0x30,
  0x89, 0x23, 0x40, 0x00, 0x2A, 0x40, 0x30, 0x84, 0x4F, 0x00, 0x00, 0x94,
  0x51, 0x32, 0x00, 0x99, 0x2A, 0x7F, 0x30, 0x89, 0x2A, 0x40, 0x30, 0x81,
  0x48, 0x00, 0x00, 0xB1, 0x07, 0x7F, 0x00, 0x91, 0x41, 0x64, 0x00, 0x92,
  0x21, 0x00, 0x00, 0x1D, 0x64, 0x00, 0x91, 0x54, 0x00, 0x00, 0x4D, 0x64,
  0x00, 0xB1, 0x07, 0x7F, 0x00, 0x99, 0x2E, 0x7F, 0x30, 0x89, 0x2E, 0x40,
  0x30, 0x84, 0x51, 0x00, 0x00, 0x94, 0x54, 0x32, 0x30, 0x99, 0x2E, 0x7F,
  0x30, 0x91, 0x41, 0x00, 0x00, 0x43, 0x64, 0x00, 0x92, 0x1D, 0x00, 0x00,
  0x1F, 0x64, 0x00, 0x91, 0x4D, 0x00, 0x00, 0x4F, 0x64, 0x00, 0x89, 0x2E,
  0x40, 0x00, 0x99, 0x2A, 0x7F, 0x00, 0x23, 0x7F, 0x00, 0x27, 0x7F, 0x30,
  0x89, 0x23, 0x40, 0x00, 0x2A, 0x40, 0x00, 0x27, 0x40, 0x30, 0x99, 0x2A,
  0x7F, 0x30, 0x89, 0x2A, 0x40, 0x30, 0x81, 0x43, 0x00, 0x00, 0x91, 0x45,
  0x64, 0x00, 0x92, 0x1F, 0x00, 0x00, 0x21, 0x64, 0x00, 0x91, 0x4F, 0x00,
  0x00, 0x51, 0x64, 0x00, 0x99, 0x2E, 0x7F, 0x30, 0x89, 0x2E, 0x40, 0x81,
  0x10, 0x81, 0x45, 0x00, 0x00, 0x91, 0x4A, 0x64, 0x00, 0x92, 0x21, 0x00,
  0x00, 0x22, 0x64, 0x00, 0xB3, 0x07, 0x00, 0x00, 0x81, 0x51, 0x00, 0x00,
  0x91, 0x56, 0x64, 0x00, 0x99, 0x2A, 0x7F, 0x00, 0x23, 0x7F, 0x30, 0x89,
  0x23, 0x40, 0x00, 0x2A, 0x40, 0x81, 0x10, 0x82, 0x22, 0x00, 0x00, 0x92,
  0x2E, 0x64, 0x00, 0x93, 0x54, 0x00, 0x00, 0xB3, 0x07, 0x7F, 0x00, 0x93,
  0x4D, 0x64, 0x00, 0x99, 0x2E, 0x7F, 0x30, 0x89, 0x2E, 0x40, 0x30, 0xB4,
  0x07, 0x00, 0x60, 0x82, 0x2E, 0x00, 0x00, 0x92, 0x22, 0x64, 0x00, 0x93,
  0x4D, 0x00, 0x00, 0x4F, 0x64, 0x00, 0x99, 0x2A, 0x7F, 0x00, 0x23, 0x7F,
  0x00, 0x27, 0x7F, 0x30, 0x89, 0x23, 0x40, 0x00, 0x2A, 0x40, 0x00, 0x27,
  0x40, 0x30, 0x84, 0x54, 0x40, 0x00, 0x94, 0x4D, 0x32, 0x00, 0xB4, 0x07,
  0x7F, 0x60, 0x82, 0x22, 0x00, 0x00, 0x92, 0x2E, 0x64, 0x00, 0x93, 0x4F,
  0x00, 0x00, 0x51, 0x64, 0x00, 0x99, 0x2E, 0x7F, 0x30, 0x89, 0x2E, 0x40,
  0x30, 0x84, 0x4D, 0x00, 0x00, 0x94, 0x4F, 0x32, 0x60, 0xB1, 0x07, 0x00,
  0x00, 0x82, 0x2E, 0x00, 0x00, 0x92, 0x22, 0x64, 0x00, 0x93, 0x51, 0x00,
  0x00, 0x56, 0x64, 0x00, 0xB1, 0x07, 0x00, 0x00, 0x99, 0x2A, 0x7F, 0x00,
  0x23, 0x7F, 0x30, 0x89, 0x23, 0x40, 0x00, 0x2A, 0x40, 0x30, 0x84, 0x4F,
  0x00, 0x00, 0x94, 0x51, 0x32, 0x00, 0x99, 0x2A, 0x7F, 0x30, 0x89, 0x2A,
  0x40, 0x30, 0x81, 0x4A, 0x00, 0x00, 0xB1, 0x07, 0x7F, 0x00, 0x91, 0x46,
  0x64, 0x00, 0x92, 0x22, 0x00, 0x00, 0x22, 0x64, 0x00, 0x91, 0x56, 0x00,
  0x00, 0x52, 0x64, 0x00, 0xB1, 0x07, 0x7F, 0x00, 0x99, 0x2E, 0x7F, 0x30,
  0x89, 0x2E, 0x40, 0x30, 0x84, 0x51, 0x00, 0x00, 0x94, 0x56, 0x32, 0x30,
  0x99, 0x2E, 0x7F, 0x30, 0x91, 0x46, 0x00, 0x00, 0x48, 0x64, 0x00, 0x92,
  0x22, 0x00, 0x00, 0x24, 0x64, 0x00, 0x91, 0x52, 0x00, 0x00, 0x54, 0x64,
  0x00, 0x89, 0x2E, 0x40, 0x00, 0x99, 0x2A, 0x7F, 0x00, 0x23, 0x7F, 0x00,
  0x27, 0x7F, 0x30, 0x89, 0x23, 0x40, 0x00, 0x2A, 0x40, 0x00, 0x27, 0x40,
  0x30, 0x99, 0x2A, 0x7F, 0x30, 0x89, 0x2A, 0x40, 0x30, 0x81, 0x48, 0x00,
  0x00, 0x91, 0x4A, 0x64, 0x00, 0x92, 0x24, 0x00, 0x00, 0x26, 0x64, 0x00,
  0x91, 0x54, 0x00, 0x00, 0x56, 0x64, 0x00, 0x99, 0x2E, 0x7F, 0x30, 0x89,
  0x2E, 0x40, 0x81, 0x10, 0x81, 0x4A, 0x00, 0x00, 0x91, 0x4B, 0x64, 0x00,
  0x92, 0x26, 0x00, 0x00, 0x27, 0x64, 0x00, 0xB3, 0x07, 0x00, 0x00, 0x81,
  0x56, 0x00, 0x00, 0x91, 0x57, 0x64, 0x00, 0x99, 0x2A, 0x7F, 0x00, 0x23,
  0x7F, 0x30, 0x89, 0x23, 0x40, 0x00, 0x2A, 0x40, 0x81, 0x10, 0x81, 0x4B,
  0x00, 0x00, 0x91, 0x4B, 0x64, 0x00, 0x92, 0x27, 0x00, 0x00, 0x33, 0x64,
  0x00, 0x91, 0x57, 0x00, 0x00, 0x57, 0x64, 0x00, 0x99, 0x2E, 0x7F, 0x30,
  0x89, 0x2E, 0x40, 0x30, 0xB4, 0x07, 0x00, 0x60, 0x82, 0x33, 0x00, 0x00,
  0x92, 0x27, 0x64, 0x00, 0x99, 0x2A, 0x7F, 0x00, 0x23, 0x7F, 0x00, 0x27,
  0x7F, 0x30, 0x89, 0x23, 0x40, 0x00, 0x2A, 0x40, 0x00, 0x27, 0x40, 0x81,
  0x10, 0x81, 0x4B, 0x00, 0x00, 0x91, 0x4B, 0x64, 0x00, 0x92, 0x27, 0x00,
  0x00, 0x33, 0x64, 0x00, 0x91, 0x57, 0x00, 0x00, 0x57, 0x64, 0x00, 0x99,
  0x2E, 0x7F, 0x30, 0x89, 0x2E, 0x40, 0x81, 0x10, 0x82, 0x33, 0x00, 0x00,
  0x92, 0x27, 0x64, 0x00, 0x99, 0x2A, 0x7F, 0x00, 0x23, 0x7F, 0x30, 0x89,
  0x23, 0x40, 0x00, 0x2A, 0x40, 0x30, 0x99, 0x2A, 0x7F, 0x30, 0x89, 0x2A,
  0x40, 0x30, 0x81, 0x4B, 0x00, 0x00, 0x91, 0x4A, 0x64, 0x00, 0x92, 0x27,
  0x00, 0x00, 0x33, 0x64, 0x00, 0x91, 0x57, 0x00, 0x00, 0x56, 0x64, 0x00,
  0x99, 0x2E, 0x7F, 0x30, 0x89, 0x2E, 0x40, 0x60, 0x99, 0x2E, 0x7F, 0x30,
  0x91, 0x4A, 0x00, 0x00, 0x48, 0x64, 0x00, 0x92, 0x33, 0x00, 0x00, 0x27,
  0x64, 0x00, 0x91, 0x56, 0x00, 0x00, 0x54, 0x64, 0x00, 0x89, 0x2E, 0x40,
  0x00, 0x99, 0x2A, 0x7F, 0x00, 0x23, 0x7F, 0x00, 0x27, 0x7F, 0x30, 0x89,
  0x23, 0x40, 0x00, 0x2A, 0x40, 0x00, 0x27, 0x40, 0x30, 0x99, 0x2A, 0x7F,
  0x30, 0x89, 0x2A, 0x40, 0x30, 0x82, 0x27, 0x00, 0x00, 0x92, 0x33, 0x64,
  0x00, 0x99, 0x2E, 0x7F, 0x30, 0x89, 0x2E, 0x40, 0x81, 0x10, 0x81, 0x48,
  0x00, 0x00, 0x91, 0x4A, 0x64, 0x00, 0x92, 0x33, 0x00, 0x00, 0x26, 0x64,
  0x00, 0x91, 0x54, 0x00, 0x00, 0x56, 0x64, 0x00, 0x99, 0x2A, 0x7F, 0x00,
  0x23, 0x7F, 0x30, 0x89, 0x23, 0x40, 0x00, 0x2A, 0x40, 0x81, 0x10, 0x82,
  0x26, 0x00, 0x00, 0x92, 0x32, 0x64, 0x00, 0x99, 0x2E, 0x7F, 0x30, 0x89,
  0x2E, 0x40, 0x81, 0x10, 0x82, 0x32, 0x00, 0x00, 0x92, 0x26, 0x64, 0x00,
  0x99, 0x2A, 0x7F, 0x00, 0x23, 0x7F, 0x00, 0x27, 0x7F, 0x30, 0x89, 0x23,
  0x40, 0x00, 0x2A, 0x40, 0x00, 0x27, 0x40, 0x81, 0x10, 0x82, 0x26, 0x00,
  0x00, 0x92, 0x32, 0x64, 0x00, 0x99, 0x2E, 0x7F, 0x30, 0x89, 0x2E, 0x40,
  0x81, 0x10, 0x82, 0x32, 0x00, 0x00, 0x92, 0x26, 0x64, 0x00, 0x99, 0x2A,
  0x7F, 0x00, 0x23, 0x7F, 0x30, 0x89, 0x23, 0x40, 0x00, 0x2A, 0x40, 0x30,
  0x99, 0x2A, 0x7F, 0x30, 0x89, 0x2A, 0x40, 0x30, 0x82, 0x26, 0x00, 0x00,
  0x92, 0x32, 0x64, 0x00, 0x99, 0x2E, 0x7F, 0x30, 0x89, 0x2E, 0x40, 0x60,
  0x99, 0x2E, 0x7F, 0x30, 0x91, 0x4A, 0x00, 0x00, 0x4A, 0x64, 0x00, 0x92,
  0x32, 0x00, 0x00, 0x26, 0x64, 0x00, 0x91, 0x56, 0x00, 0x00, 0x56, 0x64,
  0x00, 0x89, 0x2E, 0x40, 0x00, 0x99, 0x2A, 0x7F, 0x00, 0x23, 0x7F, 0x00,
  0x27, 0x7F, 0x30, 0x89, 0x23, 0x40, 0x00, 0x2A, 0x40, 0x00, 0x27, 0x40,
  0x30, 0x99, 0x2A, 0x7F, 0x30, 0x89, 0x2A, 0x40, 0x30, 0x82, 0x26, 0x00,
  0x00, 0x92, 0x32, 0x64, 0x00, 0x99, 0x2E, 0x7F, 0x30, 0x89, 0x2E, 0x40,
  0x81, 0x10, 0x81, 0x4A, 0x00, 0x00, 0x91, 0x48, 0x64, 0x00, 0x92, 0x32,
  0x00, 0x00, 0x24, 0x64, 0x00, 0x91, 0x56, 0x00, 0x00, 0x54, 0x64, 0x00,
  0x99, 0x2A, 0x7F, 0x00, 0x23, 0x7F, 0x30, 0x89, 0x23, 0x40, 0x00, 0x2A,
  0x40, 0x81, 0x10, 0x82, 0x24, 0x00, 0x00, 0x92, 0x30, 0x64, 0x00, 0x99,
  0x2E, 0x7F, 0x30, 0x89, 0x2E, 0x40, 0x81, 0x10, 0x82, 0x30, 0x00, 0x00,
  0x92, 0x24, 0x64, 0x00, 0x99, 0x2A, 0x7F, 0x00, 0x23, 0x7F, 0x00, 0x27,
  0x7F, 0x30, 0x89, 0x23, 0x40, 0x00, 0x2A, 0x40, 0x00, 0x27, 0x40, 0x81,
  0x10, 0x81, 0x48, 0x00, 0x00, 0x91, 0x41, 0x64, 0x00, 0x92, 0x24, 0x00,
  0x00, 0x30, 0x64, 0x00, 0x91, 0x54, 0x00, 0x00, 0x4D, 0x64, 0x00, 0x99,
  0x2E, 0x7F, 0x30, 0x89, 0x2E, 0x40, 0x81, 0x10, 0x82, 0x30, 0x00, 0x00,
  0x92, 0x1D, 0x64, 0x00, 0x99, 0x2A, 0x7F, 0x00, 0x23, 0x7F, 0x30, 0x89,
  0x23, 0x40, 0x00, 0x2A, 0x40, 0x30, 0x99, 0x2A, 0x7F, 0x30, 0x89, 0x2A,
  0x40, 0x30, 0x81, 0x41, 0x00, 0x00, 0x91, 0x4A, 0x64, 0x00, 0x92, 0x1D,
  0x00, 0x00, 0x24, 0x64, 0x00, 0x91, 0x4D, 0x00, 0x00, 0x56, 0x64, 0x00,
  0x99, 0x2E, 0x7F, 0x30, 0x89, 0x2E, 0x40, 0x60, 0x99, 0x2E, 0x7F, 0x30,
  0x91, 0x4A, 0x00, 0x00, 0x41, 0x64, 0x00, 0x92, 0x24, 0x00, 0x00, 0x1D,
  0x64, 0x00, 0x91, 0x56, 0x00, 0x00, 0x4D, 0x64, 0x00, 0x89, 0x2E, 0x40,
  0x00, 0x99, 0x2A, 0x7F, 0x00, 0x23, 0x7F, 0x00, 0x27, 0x7F, 0x30, 0x89,
  0x23, 0x40, 0x00, 0x2A, 0x40, 0x00, 0x27, 0x40, 0x30, 0x99, 0x2A, 0x7F,
  0x30, 0x89, 0x2A, 0x40, 0x30, 0x81, 0x41, 0x00, 0x00, 0x91, 0x4A, 0x64,
  0x00, 0x92, 0x1D, 0x00, 0x00, 0x24, 0x64, 0x00, 0x91, 0x4D, 0x00, 0x00,
  0x56, 0x64, 0x00, 0x99, 0x2E, 0x7F, 0x30, 0x89, 0x2E, 0x40, 0x81, 0x10,
  0x81, 0x4A, 0x00, 0x00, 0x91, 0x46, 0x64, 0x00, 0x92, 0x24, 0x00, 0x00,
  0x22, 0x64, 0x00, 0x91, 0x56, 0x00, 0x00, 0x52, 0x64, 0x00, 0x99, 0x2A,
  0x7F, 0x00, 0x23, 0x7F, 0x30, 0x89, 0x23, 0x40, 0x00, 0x2A, 0x40, 0x81,
  0x10, 0x99, 0x2E, 0x7F, 0x30, 0x89, 0x2E, 0x40, 0x81, 0x10, 0x99, 0x2A,
  0x7F, 0x00, 0x23, 0x7F, 0x00, 0x27, 0x7F, 0x30, 0x89, 0x23, 0x40, 0x00,
  0x2A, 0x40, 0x00, 0x27, 0x40, 0x81, 0x10, 0x99, 0x2E, 0x7F, 0x30, 0x89,
  0x2E, 0x40, 0x81, 0x10, 0xB1, 0x07, 0x00, 0x00, 0xB2, 0x07, 0x00, 0x00,
  0xB1, 0x07, 0x00, 0x00, 0x99, 0x2A, 0x7F, 0x00, 0x23, 0x7F, 0x30, 0x89,
  0x23, 0x40, 0x00, 0x2A, 0x40, 0x30, 0x99, 0x2A, 0x7F, 0x30, 0x89, 0x2A,
  0x40, 0x30, 0x81, 0x46, 0x00, 0x00, 0xB1, 0x07, 0x7F, 0x00, 0x91, 0x41,
  0x64, 0x00, 0x92, 0x22, 0x00, 0x00, 0xB2, 0x07, 0x7F, 0x00, 0x92, 0x1D,
  0x64, 0x00, 0x91, 0x52, 0x00, 0x00, 0x4D, 0x64, 0x00, 0xB1, 0x07, 0x7F,
  0x00, 0x99, 0x2E, 0x7F, 0x30, 0x89, 0x2E, 0x40, 0x60, 0x99, 0x2E, 0x7F,
  0x30, 0x91, 0x41, 0x00, 0x00, 0x43, 0x64, 0x00, 0x92, 0x1D, 0x00, 0x00,
  0x1F, 0x64, 0x00, 0x91, 0x4D, 0x00, 0x00, 0x4F, 0x64, 0x00, 0x89, 0x2E,
  0x40, 0x00, 0x99, 0x2A, 0x7F, 0x00, 0x23, 0x7F, 0x00, 0x27, 0x7F, 0x30,
  0x89, 0x23, 0x40, 0x00, 0x2A, 0x40, 0x00, 0x27, 0x40, 0x30, 0x99, 0x2A,
  0x7F, 0x30, 0x89, 0x2A, 0x40, 0x30, 0x81, 0x43, 0x00, 0x00, 0x91, 0x45,
  0x64, 0x00, 0x92, 0x1F, 0x00, 0x00, 0x21, 0x64, 0x00, 0x91, 0x4F, 0x00,
  0x00, 0x51, 0x64, 0x00, 0x99, 0x2E, 0x7F, 0x30, 0x89, 0x2E, 0x40, 0x81,
  0x10, 0x81, 0x45, 0x00, 0x00, 0xFF, 0x7F, 0x03, 0x05, 0x0F, 0x0A, 0x00,
  0x82, 0x21, 0x00, 0x00, 0xB2, 0x00, 0x00, 0x00, 0x0A, 0x3F, 0x00, 0x07,
  0x7F, 0x00, 0x92, 0x22, 0x64, 0x00, 0x93, 0x56, 0x00, 0x00, 0xFF, 0x7F,
  0x03, 0x05, 0x0F, 0x0A, 0x00, 0x81, 0x51, 0x00, 0x00, 0x84, 0x56, 0x40,
  0x00, 0xFF, 0x7F, 0x03, 0x05, 0x0F, 0x0A, 0x00, 0x99, 0x2A, 0x7F, 0x00,
  0x23, 0x7F, 0x30, 0x89, 0x23, 0x40, 0x00, 0x2A, 0x40, 0x81, 0x10, 0x82,
  0x22, 0x00, 0x00, 0x92, 0x2E, 0x64, 0x00, 0x99, 0x2E, 0x7F, 0x30, 0x89,
  0x2E, 0x40, 0x81, 0x10, 0x82, 0x2E, 0x00, 0x00, 0x92, 0x22, 0x64, 0x00,
  0x99, 0x2A, 0x7F, 0x00, 0x23, 0x7F, 0x00, 0x27, 0x7F, 0x30, 0x89, 0x23,
  0x40, 0x00, 0x2A, 0x40, 0x00, 0x27, 0x40, 0x81, 0x10, 0x82, 0x22, 0x00,
  0x00, 0x92, 0x2E, 0x64, 0x00, 0x99, 0x2E, 0x7F, 0x30, 0x89, 0x2E, 0x40,
  0x81, 0x10, 0x82, 0x2E, 0x00, 0x00, 0x92, 0x22, 0x64, 0x00, 0x99, 0x2A,
  0x7F, 0x00, 0x23, 0x7F, 0x30, 0x89, 0x23, 0x40, 0x00, 0x2A, 0x40, 0x30,
  0x99, 0x2A, 0x7F, 0x30, 0x89, 0x2A, 0x40, 0x30, 0x82, 0x22, 0x00, 0x00,
  0x92, 0x2E, 0x64, 0x00, 0x99, 0x2E, 0x7F, 0x30, 0x89, 0x2E, 0x40, 0x60,
  0x99, 0x2E, 0x7F, 0x30, 0x92, 0x2E, 0x00, 0x00, 0x22, 0x64, 0x00, 0x89,
  0x2E, 0x40, 0x00, 0x99, 0x2A, 0x7F, 0x00, 0x23, 0x7F, 0x00, 0x27, 0x7F,
  0x30, 0x89, 0x23, 0x40, 0x00, 0x2A, 0x40, 0x00, 0x27, 0x40, 0x30, 0x99,
  0x2A, 0x7F, 0x30, 0x89, 0x2A, 0x40, 0x30, 0x82, 0x22, 0x00, 0x00, 0x92,
  0x2E, 0x64, 0x00, 0x99, 0x2E, 0x7F, 0x30, 0x89, 0x2E, 0x40, 0x81, 0x10,
  0x82, 0x2E, 0x00, 0x00, 0x92, 0x22, 0x64, 0x00, 0x99, 0x2A, 0x7F, 0x00,
  0x23, 0x7F, 0x30, 0x89, 0x23, 0x40, 0x00, 0x2A, 0x40, 0x81, 0x10, 0x82,
  0x22, 0x00, 0x00, 0x92, 0x2E, 0x64, 0x00, 0x99, 0x2E, 0x7F, 0x30, 0x89,
  0x2E, 0x40, 0x81, 0x10, 0x82, 0x2E, 0x00, 0x00, 0x92, 0x22, 0x64, 0x00,
  0x99, 0x2A, 0x7F, 0x00, 0x23, 0x7F, 0x00, 0x27, 0x7F, 0x30, 0x89, 0x23,
  0x40, 0x00, 0x2A, 0x40, 0x00, 0x27, 0x40, 0x81, 0x10, 0x82, 0x22, 0x00,
  0x00, 0x92, 0x2E, 0x64, 0x00, 0x99, 0x2E, 0x7F, 0x30, 0x89, 0x2E, 0x40,
  0x81, 0x10, 0x82, 0x2E, 0x00, 0x00, 0x92, 0x22, 0x64, 0x00, 0x99, 0x2A,
  0x7F, 0x00, 0x23, 0x7F, 0x30, 0x89, 0x23, 0x40, 0x00, 0x2A, 0x40, 0x30,
  0x99, 0x2A, 0x7F, 0x30, 0x89, 0x2A, 0x40, 0x30, 0x82, 0x22, 0x00, 0x00,
  0x92, 0x2E, 0x64, 0x00, 0x99, 0x2E, 0x7F, 0x30, 0x89, 0x2E, 0x40, 0x60,
  0x99, 0x2E, 0x7F, 0x30, 0x92, 0x2E, 0x00, 0x00, 0x22, 0x64, 0x00, 0x89,
  0x2E, 0x40, 0x00, 0x99, 0x2A, 0x7F, 0x00, 0x23, 0x7F, 0x00, 0x27, 0x7F,
  0x30, 0x89, 0x23, 0x40, 0x00, 0x2A, 0x40, 0x00, 0x27, 0x40, 0x30, 0x99,
  0x2A, 0x7F, 0x30, 0x89, 0x2A, 0x40, 0x30, 0x82, 0x22, 0x00, 0x00, 0x92,
  0x2E, 0x64, 0x00, 0x99, 0x2E, 0x7F, 0x30, 0x89, 0x2E, 0x40, 0x81, 0x10,
  0x82, 0x2E, 0x00, 0x00, 0x92, 0x1F, 0x64, 0x00, 0x99, 0x2A, 0x7F, 0x00,
  0x23, 0x7F, 0x30, 0x89, 0x23, 0x40, 0x00, 0x2A, 0x40, 0x81, 0x10, 0x82,
  0x1F, 0x00, 0x00, 0x92, 0x2B, 0x64, 0x00, 0x99, 0x2E, 0x7F, 0x30, 0x89,
  0x2E, 0x40, 0x81, 0x10, 0x82, 0x2B, 0x00, 0x00, 0x92, 0x1F, 0x64, 0x00,
  0x99, 0x2A, 0x7F, 0x00, 0x23, 0x7F, 0x00, 0x27, 0x7F, 0x30, 0x89, 0x23,
  0x40, 0x00, 0x2A, 0x40, 0x00, 0x27, 0x40, 0x81, 0x10, 0x82, 0x1F, 0x00,
  0x00, 0x92, 0x2B, 0x64, 0x00, 0x99, 0x2E, 0x7F, 0x30, 0x89, 0x2E, 0x40,
  0x81, 0x10, 0x82, 0x2B, 0x00, 0x00, 0x92, 0x1F, 0x64, 0x00, 0x99, 0x2A,
  0x7F, 0x00, 0x23, 0x7F, 0x30, 0x89, 0x23, 0x40, 0x00, 0x2A, 0x40, 0x30,
  0x99, 0x2A, 0x7F, 0x30, 0x89, 0x2A, 0x40, 0x30, 0x82, 0x1F, 0x00, 0x00,
  0x92, 0x2B, 0x64, 0x00, 0x99, 0x2E, 0x7F, 0x30, 0x89, 0x2E, 0x40, 0x60,
  0x99, 0x2E, 0x7F, 0x30, 0x92, 0x2B, 0x00, 0x00, 0x1F, 0x64, 0x00, 0x89,
  0x2E, 0x40, 0x00, 0x99, 0x2A, 0x7F, 0x00, 0x23, 0x7F, 0x00, 0x27, 0x7F,
  0x30, 0x89, 0x23, 0x40, 0x00, 0x2A, 0x40, 0x00, 0x27, 0x40, 0x30, 0x99,
  0x2A, 0x7F, 0x30, 0x89, 0x2A, 0x40, 0x30, 0x82, 0x1F, 0x00, 0x00, 0x92,
  0x2B, 0x64, 0x00, 0x99, 0x2E, 0x7F, 0x30, 0x89, 0x2E, 0x40, 0x81, 0x10,
  0x82, 0x2B, 0x00, 0x00, 0x92, 0x1F, 0x64, 0x00, 0x99, 0x2A, 0x7F, 0x00,
  0x23, 0x7F, 0x30, 0x89, 0x23, 0x40, 0x00, 0x2A, 0x40, 0x81, 0x10, 0x82,
  0x1F, 0x00, 0x00, 0x92, 0x2B, 0x64, 0x00, 0x99, 0x2E, 0x7F, 0x30, 0x89,
  0x2E, 0x40, 0x81, 0x10, 0x82, 0x2B, 0x00, 0x00, 0x92, 0x1F, 0x64, 0x00,
  0x99, 0x2A, 0x7F, 0x00, 0x23, 0x7F, 0x00, 0x27, 0x7F, 0x30, 0x89, 0x23,
  0x40, 0x00, 0x2A, 0x40, 0x00, 0x27, 0x40, 0x81, 0x10, 0x82, 0x1F, 0x00,
  0x00, 0x92, 0x2B, 0x64, 0x00, 0x99, 0x2E, 0x7F, 0x30, 0x89, 0x2E, 0x40,
  0x81, 0x10, 0x82, 0x2B, 0x00, 0x00, 0x92, 0x1F, 0x64, 0x00, 0x99, 0x2A,
  0x7F, 0x00, 0x23, 0x7F, 0x30, 0x89, 0x23, 0x40, 0x00, 0x2A, 0x40, 0x30,
  0x99, 0x2A, 0x7F, 0x30, 0x89, 0x2A, 0x40, 0x30, 0x82, 0x1F, 0x00, 0x00,
  0x92, 0x2B, 0x64, 0x00, 0x99, 0x2E, 0x7F, 0x30, 0x89, 0x2E, 0x40, 0x60,
  0x99, 0x2E, 0x7F, 0x30, 0x92, 0x2B, 0x00, 0x00, 0x1F, 0x64, 0x00, 0x89,
  0x2E, 0x40, 0x00, 0x99, 0x2A, 0x7F, 0x00, 0x23, 0x7F, 0x00, 0x27, 0x7F,
  0x30, 0x89, 0x23, 0x40, 0x00, 0x2A, 0x40, 0x00, 0x27, 0x40, 0x30, 0x99,
  0x2A, 0x7F, 0x30, 0x89, 0x2A, 0x40, 0x30, 0x82, 0x1F, 0x00, 0x00, 0x92,
  0x2B, 0x64, 0x00, 0x99, 0x2E, 0x7F, 0x30, 0x89, 0x2E, 0x40, 0x81, 0x10,
  0x82, 0x2B, 0x00, 0x00, 0x92, 0x22, 0x64, 0x00, 0xFF, 0x7F, 0x03, 0x05,
  0x0F, 0x0A, 0x81, 0x40, 0x82, 0x22, 0x00, 0x00, 0x92, 0x2E, 0x64, 0x81,
  0x40, 0x2E, 0x00, 0x00, 0x22, 0x64, 0x81, 0x40, 0x22, 0x00, 0x00, 0x2E,
  0x64, 0x81, 0x40, 0x2E, 0x00, 0x00, 0x22, 0x64, 0x81, 0x40, 0x22, 0x00,
  0x00, 0x2E, 0x64, 0x81, 0x40, 0x2E, 0x00, 0x00, 0x22, 0x64, 0x81, 0x40,
  0x22, 0x00, 0x00, 0x2E, 0x64, 0x81, 0x40, 0x2E, 0x00, 0x00, 0x22, 0x64,
  0x81, 0x40, 0x22, 0x00, 0x00, 0x2E, 0x64, 0x81, 0x40, 0x2E, 0x00, 0x00,
  0x22, 0x64, 0x81, 0x40, 0x22, 0x00, 0x00, 0x2E, 0x64, 0x81, 0x40, 0x2E,
  0x00, 0x00, 0x22, 0x64, 0x81, 0x40, 0x22, 0x00, 0x00, 0x2E, 0x64, 0x81,
  0x40, 0x2E, 0x00, 0x00, 0x22, 0x64, 0x81, 0x40, 0x22, 0x00, 0x00, 0x2E,
  0x64, 0x81, 0x40, 0x2E, 0x00, 0x00, 0x1F, 0x64, 0x81, 0x40, 0x1F, 0x00,
  0x00, 0x2B, 0x64, 0x81, 0x40, 0x2B, 0x00, 0x00, 0x1F, 0x64, 0x81, 0x40,
  0x1F, 0x00, 0x00, 0x2B, 0x64, 0x81, 0x40, 0x2B, 0x00, 0x00, 0x1F, 0x64,
  0x81, 0x40, 0x1F, 0x00, 0x00, 0x2B, 0x64, 0x81, 0x40, 0x2B, 0x00, 0x00,
  0x1F, 0x64, 0x81, 0x40, 0x1F, 0x00, 0x00, 0x2B, 0x64, 0x81, 0x40, 0x2B,
  0x00, 0x00, 0x1F, 0x64, 0x81, 0x40, 0x1F, 0x00, 0x00, 0x2B, 0x64, 0x81,
  0x40, 0x2B, 0x00, 0x00, 0x1F, 0x64, 0x81, 0x40, 0x1F, 0x00, 0x00, 0x2B,
  0x64, 0x81, 0x40, 0x2B, 0x00, 0x00, 0x22, 0x64, 0x81, 0x40, 0x22, 0x00,
  0x00, 0x1D, 0x64, 0x81, 0x40, 0x1D, 0x00, 0x00, 0x1F, 0x64, 0x81, 0x40,
  0x1F, 0x00, 0x00, 0x20, 0x64, 0x81, 0x40, 0x20, 0x00, 0x01, 0xFF, 0x2F
};

//Un-comment the line with the SPI port you want to use. Default is SPI1 port.
SPIClass spiVS(1); //Create an SPI instance on SPI1 port.
//SPIClass spi(2); //Create an SPI instance on SPI2 port.
//SPIClass spi(3); //Create an SPI instance on SPI3 port.

VS1003 player(PC14, PB10, PA8, PA9, spiVS); // cs_pin, dcs_pin, dreq_pin, reset_pin, SPI channel - defaults to SPI

void setup () {
    SPI.begin();            // initiate SPI
    Serial.begin(9600);     // initiate a serial port at 9600
    delay(100);
    Serial.println("-= VS1053B MIDI file player =-");
    Serial.println("(c) 20 August 2015 by Vassilis Serasidis");
    Serial.println("email: avrsite@yahoo.gr");
    player.begin();         // initiate a player
    player.modeSwitch();    // Change mode to "classic MIDI" (not the Real Time Midi Mode) or MP3 decoding (Vassilis Serasidis).
    player.setVolume(0x00); // set maximum output volume
}

void loop() {
    // Play the Bubble Bobble MIDI file.
    player.playChunk(Bubble_Bobble_MIDI, sizeof(Bubble_Bobble_MIDI));
    player.stopSong();
}
